STARTFONT 2.1
COMMENT
COMMENT Converted from OpenType font "SairaCondensed-Regular.ttf" by "otf2bdf 3.0".
COMMENT
FONT -FreeType-Saira Condensed-Medium-R-Normal--42-300-100-100-P-147-ISO10646-1
SIZE 30 100 100
FONTBOUNDINGBOX 56 61 -19 -14
STARTPROPERTIES 19
FOUNDRY "FreeType"
FAMILY_NAME "Saira Condensed"
WEIGHT_NAME "Medium"
SLANT "R"
SETWIDTH_NAME "Normal"
ADD_STYLE_NAME ""
PIXEL_SIZE 42
POINT_SIZE 300
RESOLUTION_X 100
RESOLUTION_Y 100
SPACING "P"
AVERAGE_WIDTH 147
CHARSET_REGISTRY "ISO10646"
CHARSET_ENCODING "1"
FONT_ASCENT 47
FONT_DESCENT 18
COPYRIGHT "Copyright 2016 The Saira Project Authors (omnibus.type@gmail.com), with reserved font name "Saira"."
_OTF_FONTFILE "SairaCondensed-Regular.ttf"
_OTF_PSNAME "SairaCondensed-Regular"
ENDPROPERTIES
CHARS 608
STARTCHAR 0000
ENCODING 0
SWIDTH 0 0
DWIDTH 0 0
BBX 0 0 0 0
BITMAP
ENDCHAR
STARTCHAR 000D
ENCODING 13
SWIDTH 192 0
DWIDTH 8 0
BBX 0 0 0 0
BITMAP
ENDCHAR
STARTCHAR 0020
ENCODING 32
SWIDTH 192 0
DWIDTH 8 0
BBX 0 0 0 0
BITMAP
ENDCHAR
STARTCHAR 0021
ENCODING 33
SWIDTH 216 0
DWIDTH 9 0
BBX 3 29 3 0
BITMAP
E0
E0
E0
E0
E0
E0
E0
E0
E0
E0
E0
E0
E0
E0
E0
E0
E0
E0
E0
E0
E0
00
00
00
00
E0
E0
E0
E0
ENDCHAR
STARTCHAR 0022
ENCODING 34
SWIDTH 288 0
DWIDTH 12 0
BBX 8 10 2 19
BITMAP
E7
E7
E7
E7
E7
E7
E3
E3
E3
E3
ENDCHAR
STARTCHAR 0023
ENCODING 35
SWIDTH 528 0
DWIDTH 22 0
BBX 17 29 2 0
BITMAP
030700
030600
070600
070600
070600
060E00
060E00
060C00
7FFF80
7FFF80
0E0C00
0C1C00
0C1C00
0C1800
0C1800
1C1800
1C1800
181800
FFFF00
FFFF00
FFFF00
383000
383000
383000
307000
307000
306000
706000
706000
ENDCHAR
STARTCHAR 0024
ENCODING 36
SWIDTH 408 0
DWIDTH 17 0
BBX 13 29 2 0
BITMAP
0300
0300
0300
07C0
3FF0
7FF0
7000
E000
E000
E000
E000
E000
F000
7FC0
3FF0
03F8
0038
0038
0038
0038
0038
0038
0078
7FF0
7FE0
0F80
0300
0300
0300
ENDCHAR
STARTCHAR 0025
ENCODING 37
SWIDTH 648 0
DWIDTH 27 0
BBX 22 29 2 0
BITMAP
3E0060
7F00E0
E380C0
C181C0
C18180
C18380
C18300
C18300
C18600
C18600
C18C00
C18C00
C19800
E399F8
7F33FC
3E330C
00630C
00630C
00C30C
00C70C
01870C
01870C
03830C
03030C
07030C
06030C
0E030C
0C03FC
1C01F8
ENDCHAR
STARTCHAR 0026
ENCODING 38
SWIDTH 528 0
DWIDTH 22 0
BBX 19 29 2 0
BITMAP
07FC00
3FFF00
7FFF00
780000
700000
E00000
E00000
E00000
E00000
E00000
700000
700000
3FC7E0
0FC7E0
3FC7E0
780700
700700
E00700
E00700
E00700
E00700
E00700
E00700
E00700
F00700
780700
7FFF00
3FFF00
0FFE00
ENDCHAR
STARTCHAR 0027
ENCODING 39
SWIDTH 168 0
DWIDTH 7 0
BBX 3 10 2 19
BITMAP
E0
E0
E0
E0
E0
E0
E0
E0
E0
E0
ENDCHAR
STARTCHAR 0028
ENCODING 40
SWIDTH 240 0
DWIDTH 10 0
BBX 7 38 3 -6
BITMAP
0E
1C
18
38
30
70
70
60
E0
E0
E0
E0
E0
E0
E0
E0
E0
E0
E0
E0
E0
E0
E0
E0
E0
E0
E0
E0
E0
E0
60
70
70
30
38
18
1C
0E
ENDCHAR
STARTCHAR 0029
ENCODING 41
SWIDTH 240 0
DWIDTH 10 0
BBX 7 38 1 -6
BITMAP
C0
E0
60
70
38
38
18
1C
1C
1C
1C
1C
0C
0E
0E
0E
0E
0E
0E
0E
0E
0E
0E
0E
0E
0C
1C
1C
1C
1C
1C
18
38
38
70
60
E0
C0
ENDCHAR
STARTCHAR 002A
ENCODING 42
SWIDTH 408 0
DWIDTH 17 0
BBX 13 14 2 15
BITMAP
0700
0600
0200
4230
F278
3BE0
0F80
0F80
3BE0
F278
E230
0600
0600
0700
ENDCHAR
STARTCHAR 002B
ENCODING 43
SWIDTH 480 0
DWIDTH 20 0
BBX 15 15 3 3
BITMAP
0300
0300
0300
0300
0300
0300
FFFE
FFFE
FFFE
0300
0300
0300
0300
0300
0300
ENDCHAR
STARTCHAR 002C
ENCODING 44
SWIDTH 192 0
DWIDTH 8 0
BBX 5 9 1 -5
BITMAP
78
78
78
78
18
18
18
30
F0
ENDCHAR
STARTCHAR 002D
ENCODING 45
SWIDTH 312 0
DWIDTH 13 0
BBX 9 3 2 11
BITMAP
FF80
FF80
FF80
ENDCHAR
STARTCHAR 002E
ENCODING 46
SWIDTH 192 0
DWIDTH 8 0
BBX 4 4 2 0
BITMAP
F0
F0
F0
F0
ENDCHAR
STARTCHAR 002F
ENCODING 47
SWIDTH 288 0
DWIDTH 12 0
BBX 10 34 1 -2
BITMAP
01C0
01C0
01C0
01C0
0180
0380
0380
0380
0300
0700
0700
0700
0600
0E00
0E00
0E00
0E00
0C00
1C00
1C00
1C00
1800
3800
3800
3800
3000
7000
7000
7000
6000
E000
E000
E000
E000
ENDCHAR
STARTCHAR 0030
ENCODING 48
SWIDTH 480 0
DWIDTH 20 0
BBX 16 29 2 0
BITMAP
0FF0
3FFC
7FFE
780E
700E
700F
F007
E007
E007
E007
E007
E007
E007
E007
E007
E007
E007
E007
E007
E007
E007
E007
F007
700F
700E
700E
7FFE
3FFC
0FF0
ENDCHAR
STARTCHAR 0031
ENCODING 49
SWIDTH 264 0
DWIDTH 11 0
BBX 7 29 1 0
BITMAP
0E
1E
7E
FE
EE
8E
0E
0E
0E
0E
0E
0E
0E
0E
0E
0E
0E
0E
0E
0E
0E
0E
0E
0E
0E
0E
0E
0E
0E
ENDCHAR
STARTCHAR 0032
ENCODING 50
SWIDTH 432 0
DWIDTH 18 0
BBX 14 29 2 0
BITMAP
7FE0
FFF8
FFF8
003C
001C
001C
001C
001C
001C
001C
001C
003C
0078
01F8
03F0
0FC0
3F00
7E00
7800
F000
E000
E000
E000
E000
E000
E000
FFFC
FFFC
FFFC
ENDCHAR
STARTCHAR 0033
ENCODING 51
SWIDTH 432 0
DWIDTH 18 0
BBX 15 29 1 0
BITMAP
7FE0
FFF0
FFF8
003C
001C
001C
001C
001C
001C
001C
001C
0038
0FF8
0FE0
0FF0
0038
001C
001C
001C
001C
001E
001E
001C
001C
001C
003C
FFF8
FFF0
7FE0
ENDCHAR
STARTCHAR 0034
ENCODING 52
SWIDTH 480 0
DWIDTH 20 0
BBX 17 29 1 0
BITMAP
00E000
01E000
01C000
01C000
038000
038000
078000
070000
070C00
0E1C00
0E1C00
1E1C00
1C1C00
1C1C00
381C00
381C00
781C00
701C00
701C00
FFFF80
FFFF80
FFFF80
001C00
001C00
001C00
001C00
001C00
001C00
001C00
ENDCHAR
STARTCHAR 0035
ENCODING 53
SWIDTH 432 0
DWIDTH 18 0
BBX 15 29 2 0
BITMAP
FFF8
FFF8
FFF8
E000
E000
E000
E000
E000
E000
E000
E000
E580
FFF0
FFF8
C07C
001C
001C
001C
001E
001E
001E
001E
001C
001C
001C
003C
FFF8
FFF0
7FC0
ENDCHAR
STARTCHAR 0036
ENCODING 54
SWIDTH 480 0
DWIDTH 20 0
BBX 16 29 2 0
BITMAP
07FC
1FFE
3FFE
3800
7000
7000
7000
F000
E000
E000
E000
E1E0
EFFC
FFFE
F80E
F00F
F007
E007
E007
E007
E007
E007
F007
7007
700F
780E
3FFE
3FFC
0FF0
ENDCHAR
STARTCHAR 0037
ENCODING 55
SWIDTH 408 0
DWIDTH 17 0
BBX 15 29 1 0
BITMAP
FFFE
FFFE
FFFC
001C
001C
003C
0038
0038
0078
0070
0070
00F0
00E0
00E0
01E0
01C0
01C0
03C0
0380
0380
0780
0700
0700
0F00
0E00
0E00
1E00
1C00
1C00
ENDCHAR
STARTCHAR 0038
ENCODING 56
SWIDTH 480 0
DWIDTH 20 0
BBX 16 29 2 0
BITMAP
0FF0
3FFC
7FFE
700F
F007
F007
E007
E007
E007
F007
7007
700E
3FFC
0FF8
3FFC
781E
7007
E007
E007
E007
E007
E007
E007
E007
F007
700F
7FFE
3FFC
0FF0
ENDCHAR
STARTCHAR 0039
ENCODING 57
SWIDTH 480 0
DWIDTH 20 0
BBX 16 29 2 0
BITMAP
1FF0
3FF8
7FFC
F01E
E00E
E00E
E00E
E00E
E00F
E00F
E00F
E00F
E00F
F01F
7FFF
3FEF
070F
000F
000F
000F
000E
000E
000E
000E
001E
003C
7FFC
7FF8
3FE0
ENDCHAR
STARTCHAR 003A
ENCODING 58
SWIDTH 192 0
DWIDTH 8 0
BBX 4 22 2 0
BITMAP
F0
F0
F0
F0
00
00
00
00
00
00
00
00
00
00
00
00
00
00
F0
F0
F0
F0
ENDCHAR
STARTCHAR 003B
ENCODING 59
SWIDTH 192 0
DWIDTH 8 0
BBX 5 27 1 -5
BITMAP
78
78
78
78
00
00
00
00
00
00
00
00
00
00
00
00
00
00
78
78
78
78
18
18
18
30
F0
ENDCHAR
STARTCHAR 003C
ENCODING 60
SWIDTH 480 0
DWIDTH 20 0
BBX 15 15 3 3
BITMAP
0006
003E
00FC
03F0
1F80
7E00
F800
E000
F800
7E00
1FC0
03F0
00FC
003E
0006
ENDCHAR
STARTCHAR 003D
ENCODING 61
SWIDTH 480 0
DWIDTH 20 0
BBX 15 10 3 6
BITMAP
FFFE
FFFE
FFFE
0000
0000
0000
0000
FFFE
FFFE
FFFE
ENDCHAR
STARTCHAR 003E
ENCODING 62
SWIDTH 480 0
DWIDTH 20 0
BBX 15 15 3 3
BITMAP
C000
F000
FC00
3F80
07E0
01F8
003E
000E
007E
01F8
07E0
3F00
FC00
F000
8000
ENDCHAR
STARTCHAR 003F
ENCODING 63
SWIDTH 360 0
DWIDTH 15 0
BBX 12 29 1 0
BITMAP
FF80
FFC0
FFE0
00F0
0070
0070
0070
0070
0070
0070
00F0
00E0
03E0
0FC0
0F00
1E00
1C00
1C00
1C00
1C00
1C00
0000
0000
0000
0000
1C00
1C00
1C00
1C00
ENDCHAR
STARTCHAR 0040
ENCODING 64
SWIDTH 672 0
DWIDTH 28 0
BBX 23 34 3 -5
BITMAP
07FF80
3FFFF0
780038
60001C
C0000C
C0000C
C00004
C1FE06
C3FF06
C3FF06
C00386
800386
800386
800386
800386
800386
81FF86
83FF86
838386
830386
830386
830386
830386
C38784
C3FFFC
C1FBF8
C06000
C00000
C00000
E00000
600000
780000
1FFF80
03FF80
ENDCHAR
STARTCHAR 0041
ENCODING 65
SWIDTH 504 0
DWIDTH 21 0
BBX 19 29 1 0
BITMAP
01E000
01F000
01F000
03F000
03F000
03B800
03B800
073800
073C00
071C00
071C00
0E1C00
0E1E00
0E0E00
1E0E00
1C0E00
1C0F00
1C0700
3FFF00
3FFF00
3FFF80
380380
700380
700380
7003C0
7001C0
E001C0
E001C0
E001E0
ENDCHAR
STARTCHAR 0042
ENCODING 66
SWIDTH 504 0
DWIDTH 21 0
BBX 16 29 3 0
BITMAP
FFF0
FFF8
FFFC
E01E
E00E
E00E
E00E
E00E
E00E
E00E
E00E
E01C
E03C
FFF8
FFF0
FFFC
E01C
E00E
E00E
E00E
E00E
E00F
E00E
E00E
E00E
E01E
FFFC
FFFC
FFF0
ENDCHAR
STARTCHAR 0043
ENCODING 67
SWIDTH 408 0
DWIDTH 17 0
BBX 13 29 2 0
BITMAP
07F8
1FF8
3FF8
7800
7000
7000
7000
F000
F000
E000
E000
E000
E000
E000
E000
E000
E000
E000
E000
E000
F000
F000
7000
7000
7000
7800
3FF8
1FF8
07F8
ENDCHAR
STARTCHAR 0044
ENCODING 68
SWIDTH 504 0
DWIDTH 21 0
BBX 16 29 3 0
BITMAP
FFE0
FFF8
FFFC
E01E
E00E
E00E
E00E
E00E
E00E
E00E
E00E
E00E
E00E
E00E
E00F
E00E
E00E
E00E
E00E
E00E
E00E
E00E
E00E
E00E
E00E
E01E
FFFC
FFF8
FFE0
ENDCHAR
STARTCHAR 0045
ENCODING 69
SWIDTH 432 0
DWIDTH 18 0
BBX 13 29 3 0
BITMAP
FFF8
FFF8
FFF8
E000
E000
E000
E000
E000
E000
E000
E000
E000
E000
FFF0
FFF0
FFF0
E000
E000
E000
E000
E000
E000
E000
E000
E000
E000
FFF8
FFF8
FFF8
ENDCHAR
STARTCHAR 0046
ENCODING 70
SWIDTH 408 0
DWIDTH 17 0
BBX 13 29 3 0
BITMAP
FFF8
FFF8
FFF8
E000
E000
E000
E000
E000
E000
E000
E000
E000
E000
FFF0
FFF0
FFF0
E000
E000
E000
E000
E000
E000
E000
E000
E000
E000
E000
E000
E000
ENDCHAR
STARTCHAR 0047
ENCODING 71
SWIDTH 480 0
DWIDTH 20 0
BBX 16 29 2 0
BITMAP
07FE
1FFF
3FFF
7800
7000
7000
7000
F000
F000
F000
E000
E000
E000
E0FF
E0FF
E0FF
E007
E007
E007
E007
F007
F007
7007
7007
7007
7807
3FFF
1FFF
07FC
ENDCHAR
STARTCHAR 0048
ENCODING 72
SWIDTH 528 0
DWIDTH 22 0
BBX 16 29 3 0
BITMAP
E007
E007
E007
E007
E007
E007
E007
E007
E007
E007
E007
E007
E007
FFFF
FFFF
FFFF
E007
E007
E007
E007
E007
E007
E007
E007
E007
E007
E007
E007
E007
ENDCHAR
STARTCHAR 0049
ENCODING 73
SWIDTH 216 0
DWIDTH 9 0
BBX 3 29 3 0
BITMAP
E0
E0
E0
E0
E0
E0
E0
E0
E0
E0
E0
E0
E0
E0
E0
E0
E0
E0
E0
E0
E0
E0
E0
E0
E0
E0
E0
E0
E0
ENDCHAR
STARTCHAR 004A
ENCODING 74
SWIDTH 240 0
DWIDTH 10 0
BBX 7 29 1 0
BITMAP
0E
0E
0E
0E
0E
0E
0E
0E
0E
0E
0E
0E
0E
0E
0E
0E
0E
0E
0E
0E
0E
1E
0E
1E
1E
1C
FC
FC
F0
ENDCHAR
STARTCHAR 004B
ENCODING 75
SWIDTH 480 0
DWIDTH 20 0
BBX 16 29 3 0
BITMAP
E007
E00F
E00E
E01E
E01C
E038
E038
E070
E070
E0E0
E0E0
E1C0
E1C0
FF80
FF80
FFC0
E1C0
E1E0
E0E0
E0F0
E070
E078
E038
E03C
E01C
E01E
E00E
E00F
E007
ENDCHAR
STARTCHAR 004C
ENCODING 76
SWIDTH 384 0
DWIDTH 16 0
BBX 12 29 3 0
BITMAP
E000
E000
E000
E000
E000
E000
E000
E000
E000
E000
E000
E000
E000
E000
E000
E000
E000
E000
E000
E000
E000
E000
E000
E000
E000
E000
FFF0
FFF0
FFF0
ENDCHAR
STARTCHAR 004D
ENCODING 77
SWIDTH 672 0
DWIDTH 28 0
BBX 22 29 3 0
BITMAP
F8007C
F8007C
F8007C
F800FC
FC00FC
FC00FC
FC00DC
EC01DC
EE01DC
EE01DC
EE019C
E7039C
E7039C
E7031C
E7071C
E3871C
E3871C
E3861C
E18E1C
E1CE1C
E1CE1C
E1CC1C
E0DC1C
E0FC1C
E0F81C
E0F81C
E0781C
E0781C
E0701C
ENDCHAR
STARTCHAR 004E
ENCODING 78
SWIDTH 528 0
DWIDTH 22 0
BBX 16 29 3 0
BITMAP
E007
F007
F007
F807
F807
FC07
FC07
FE07
EE07
EE07
E707
E707
E387
E387
E3C7
E1C7
E1E7
E0E7
E0E7
E077
E077
E03F
E03F
E01F
E01F
E01F
E00F
E00F
E007
ENDCHAR
STARTCHAR 004F
ENCODING 79
SWIDTH 528 0
DWIDTH 22 0
BBX 17 29 2 0
BITMAP
0FF800
3FFE00
3FFF00
780700
700780
700380
F00380
F00380
E00380
E00380
E00380
E00380
E00380
E00380
E00380
E00380
E00380
E00380
E00380
E00380
E00380
F00380
700380
700380
700780
780700
3FFF00
3FFE00
0FF800
ENDCHAR
STARTCHAR 0050
ENCODING 80
SWIDTH 456 0
DWIDTH 19 0
BBX 15 29 3 0
BITMAP
FFF0
FFF8
FFFC
E01C
E01E
E00E
E00E
E00E
E00E
E00E
E00E
E00E
E00E
E01E
E01C
FFFC
FFF8
FFF0
E000
E000
E000
E000
E000
E000
E000
E000
E000
E000
E000
ENDCHAR
STARTCHAR 0051
ENCODING 81
SWIDTH 528 0
DWIDTH 22 0
BBX 18 33 2 -4
BITMAP
0FF800
3FFE00
3FFF00
780700
700780
700380
F00380
F00380
E00380
E00380
E00380
E00380
E00380
E00380
E00380
E00380
E00380
E00380
E00380
E00380
E1E380
F0E380
707380
707380
703F80
783F00
3FFF00
3FFE00
0FFE00
000F00
000700
000380
0003C0
ENDCHAR
STARTCHAR 0052
ENCODING 82
SWIDTH 504 0
DWIDTH 21 0
BBX 16 29 3 0
BITMAP
FFF0
FFFC
FFFC
E01E
E00E
E00E
E00E
E00E
E00E
E00E
E00E
E00E
E00E
E01E
FFFC
FFFC
FFF0
E070
E078
E038
E038
E03C
E01C
E01C
E01C
E00E
E00E
E00E
E00F
ENDCHAR
STARTCHAR 0053
ENCODING 83
SWIDTH 432 0
DWIDTH 18 0
BBX 15 29 2 0
BITMAP
0FF8
3FFC
7FFC
F000
E000
E000
E000
E000
E000
E000
E000
F000
FF00
7FF0
3FFC
03FC
001C
001E
000E
000E
000E
000E
000E
001E
001C
001C
FFFC
FFF8
FFE0
ENDCHAR
STARTCHAR 0054
ENCODING 84
SWIDTH 408 0
DWIDTH 17 0
BBX 16 29 1 0
BITMAP
FFFF
FFFF
FFFF
0380
0380
0380
0380
0380
0380
0380
0380
0380
0380
0380
0380
0380
0380
0380
0380
0380
0380
0380
0380
0380
0380
0380
0380
0380
0380
ENDCHAR
STARTCHAR 0055
ENCODING 85
SWIDTH 504 0
DWIDTH 21 0
BBX 16 29 3 0
BITMAP
E007
E007
E007
E007
E007
E007
E007
E007
E007
E007
E007
E007
E007
E007
E007
E007
E007
E007
E007
E007
E00F
E00F
E00E
E00E
E00E
F01E
7FFC
3FFC
0FF0
ENDCHAR
STARTCHAR 0056
ENCODING 86
SWIDTH 456 0
DWIDTH 19 0
BBX 19 29 0 0
BITMAP
F000E0
7001C0
7001C0
7801C0
3801C0
380380
380380
380380
1C0380
1C0700
1C0700
1C0700
0E0700
0E0E00
0E0E00
0E0E00
0F0E00
070E00
071C00
071C00
079C00
039C00
03B800
03B800
03B800
01F800
01F000
01F000
01F000
ENDCHAR
STARTCHAR 0057
ENCODING 87
SWIDTH 696 0
DWIDTH 29 0
BBX 27 29 1 0
BITMAP
E00E00E0
E01F00E0
E01F00E0
E01F00E0
F01F01E0
701F01C0
701B01C0
703B81C0
703B81C0
703B81C0
38318380
38318380
3871C380
3871C380
3871C380
3861C380
1C60C700
1CE0E700
1CE0E700
1CE0E700
1CC0E700
0CC06600
0FC07E00
0FC07E00
0FC07E00
0FC07E00
0F803C00
07803C00
07803C00
ENDCHAR
STARTCHAR 0058
ENCODING 88
SWIDTH 480 0
DWIDTH 20 0
BBX 18 29 1 0
BITMAP
F001C0
7003C0
780380
380780
380700
1C0F00
1C0E00
0E1E00
0E1C00
073C00
073800
03F800
03F000
01F000
01E000
01F000
03F000
03F800
073800
073C00
0E1C00
0E1E00
1C0E00
3C0F00
380700
780780
700380
F003C0
E001C0
ENDCHAR
STARTCHAR 0059
ENCODING 89
SWIDTH 432 0
DWIDTH 18 0
BBX 18 29 0 0
BITMAP
F001C0
700380
700380
380780
380700
3C0700
1C0E00
1C0E00
0E1C00
0E1C00
0F1C00
073800
073800
03F000
03F000
03F000
01E000
01E000
01E000
01E000
01E000
01E000
01E000
01E000
01E000
01E000
01E000
01E000
01E000
ENDCHAR
STARTCHAR 005A
ENCODING 90
SWIDTH 432 0
DWIDTH 18 0
BBX 16 29 1 0
BITMAP
7FFE
7FFE
7FFE
001E
001C
003C
0038
0078
0070
00F0
00E0
01E0
01E0
03C0
03C0
0780
0780
0700
0F00
0E00
1E00
1C00
3C00
3800
7800
7000
FFFF
FFFF
FFFF
ENDCHAR
STARTCHAR 005B
ENCODING 91
SWIDTH 240 0
DWIDTH 10 0
BBX 6 38 3 -6
BITMAP
FC
FC
FC
E0
E0
E0
E0
E0
E0
E0
E0
E0
E0
E0
E0
E0
E0
E0
E0
E0
E0
E0
E0
E0
E0
E0
E0
E0
E0
E0
E0
E0
E0
E0
E0
FC
FC
FC
ENDCHAR
STARTCHAR 005C
ENCODING 92
SWIDTH 288 0
DWIDTH 12 0
BBX 10 34 1 -2
BITMAP
E000
E000
E000
6000
6000
7000
7000
7000
3000
3800
3800
3800
1800
1C00
1C00
1C00
0C00
0E00
0E00
0E00
0E00
0600
0700
0700
0700
0300
0380
0380
0380
0180
01C0
01C0
01C0
00C0
ENDCHAR
STARTCHAR 005D
ENCODING 93
SWIDTH 240 0
DWIDTH 10 0
BBX 7 38 1 -6
BITMAP
FE
FE
FE
0E
0E
0E
0E
0E
0E
0E
0E
0E
0E
0E
0E
0E
0E
0E
0E
0E
0E
0E
0E
0E
0E
0E
0E
0E
0E
0E
0E
0E
0E
0E
0E
FE
FE
FE
ENDCHAR
STARTCHAR 005E
ENCODING 94
SWIDTH 408 0
DWIDTH 17 0
BBX 13 12 2 20
BITMAP
0700
0700
0F80
0D80
1DC0
18C0
38E0
3860
3070
7030
6038
E038
ENDCHAR
STARTCHAR 005F
ENCODING 95
SWIDTH 312 0
DWIDTH 13 0
BBX 13 3 0 -7
BITMAP
FFF8
FFF8
FFF8
ENDCHAR
STARTCHAR 0060
ENCODING 96
SWIDTH 144 0
DWIDTH 6 0
BBX 6 6 0 25
BITMAP
F0
70
30
38
18
1C
ENDCHAR
STARTCHAR 0061
ENCODING 97
SWIDTH 432 0
DWIDTH 18 0
BBX 14 22 1 0
BITMAP
3FE0
7FF8
7FF8
003C
001C
001C
001C
001C
001C
07FC
3FFC
7FFC
701C
701C
E01C
E01C
E01C
601C
703C
7FFC
3FDC
1F8C
ENDCHAR
STARTCHAR 0062
ENCODING 98
SWIDTH 456 0
DWIDTH 19 0
BBX 14 32 3 0
BITMAP
E000
E000
E000
E000
E000
E000
E000
E000
E000
E000
E7E0
EFF0
FFF8
F038
E038
E01C
E01C
E01C
E01C
E01C
E01C
E01C
E01C
E01C
E01C
E01C
E018
E038
F038
DFF8
DFF0
C7E0
ENDCHAR
STARTCHAR 0063
ENCODING 99
SWIDTH 360 0
DWIDTH 15 0
BBX 11 22 2 0
BITMAP
1FE0
3FE0
7FE0
7000
F000
E000
E000
E000
E000
E000
E000
E000
E000
E000
E000
E000
E000
F000
7000
7FE0
3FE0
1FE0
ENDCHAR
STARTCHAR 0064
ENCODING 100
SWIDTH 456 0
DWIDTH 19 0
BBX 14 32 2 0
BITMAP
001C
001C
001C
001C
001C
001C
001C
001C
001C
001C
1F9C
3FDC
7FFC
703C
E03C
E01C
E01C
E01C
E01C
E01C
E01C
E01C
E01C
E01C
E01C
E01C
E01C
E03C
703C
7FFC
3FDC
1F9C
ENDCHAR
STARTCHAR 0065
ENCODING 101
SWIDTH 432 0
DWIDTH 18 0
BBX 14 22 2 0
BITMAP
1FE0
3FF0
7FF8
7038
E01C
E01C
E01C
E01C
E01C
FFFC
FFFC
FFFC
E000
E000
E000
E000
E000
F000
7000
7FF8
3FF8
1FF8
ENDCHAR
STARTCHAR 0066
ENCODING 102
SWIDTH 288 0
DWIDTH 12 0
BBX 10 32 1 0
BITMAP
07C0
0FC0
1FC0
1C00
1C00
1C00
1C00
1C00
1C00
1C00
FFC0
FFC0
FFC0
1C00
1C00
1C00
1C00
1C00
1C00
1C00
1C00
1C00
1C00
1C00
1C00
1C00
1C00
1C00
1C00
1C00
1C00
1C00
ENDCHAR
STARTCHAR 0067
ENCODING 103
SWIDTH 456 0
DWIDTH 19 0
BBX 14 30 2 -8
BITMAP
1F9C
3FDC
7FFC
703C
E03C
E01C
E01C
E01C
E01C
E01C
E01C
E01C
E01C
E01C
E01C
E01C
E01C
E03C
703C
7FFC
3FDC
1F9C
001C
001C
001C
001C
0038
7FF8
7FF0
7FC0
ENDCHAR
STARTCHAR 0068
ENCODING 104
SWIDTH 456 0
DWIDTH 19 0
BBX 13 32 3 0
BITMAP
E000
E000
E000
E000
E000
E000
E000
E000
E000
E000
E7E0
EFF0
FFF8
F038
E038
E038
E038
E038
E038
E038
E038
E038
E038
E038
E038
E038
E038
E038
E038
E038
E038
E038
ENDCHAR
STARTCHAR 0069
ENCODING 105
SWIDTH 192 0
DWIDTH 8 0
BBX 3 32 3 0
BITMAP
E0
E0
E0
E0
00
00
00
00
00
00
E0
E0
E0
E0
E0
E0
E0
E0
E0
E0
E0
E0
E0
E0
E0
E0
E0
E0
E0
E0
E0
E0
ENDCHAR
STARTCHAR 006A
ENCODING 106
SWIDTH 192 0
DWIDTH 8 0
BBX 6 40 0 -8
BITMAP
1C
1C
1C
1C
00
00
00
00
00
00
1C
1C
1C
1C
1C
1C
1C
1C
1C
1C
1C
1C
1C
1C
1C
1C
1C
1C
1C
1C
1C
1C
1C
1C
1C
1C
38
F8
F8
F0
ENDCHAR
STARTCHAR 006B
ENCODING 107
SWIDTH 408 0
DWIDTH 17 0
BBX 13 32 3 0
BITMAP
E000
E000
E000
E000
E000
E000
E000
E000
E000
E000
E038
E070
E070
E0E0
E0E0
E1C0
E1C0
E380
E380
E700
FF00
FE00
FF00
E780
E380
E3C0
E1C0
E1E0
E0E0
E070
E070
E038
ENDCHAR
STARTCHAR 006C
ENCODING 108
SWIDTH 192 0
DWIDTH 8 0
BBX 3 32 3 0
BITMAP
E0
E0
E0
E0
E0
E0
E0
E0
E0
E0
E0
E0
E0
E0
E0
E0
E0
E0
E0
E0
E0
E0
E0
E0
E0
E0
E0
E0
E0
E0
E0
E0
ENDCHAR
STARTCHAR 006D
ENCODING 109
SWIDTH 696 0
DWIDTH 29 0
BBX 23 22 3 0
BITMAP
C7E1F8
CFF3FC
DFF7FE
F07C1E
E0380E
E0380E
E0380E
E0380E
E0380E
E0380E
E0380E
E0380E
E0380E
E0380E
E0380E
E0380E
E0380E
E0380E
E0380E
E0380E
E0380E
E0380E
ENDCHAR
STARTCHAR 006E
ENCODING 110
SWIDTH 456 0
DWIDTH 19 0
BBX 13 22 3 0
BITMAP
C7E0
CFF0
DFF8
F038
E038
E038
E038
E038
E038
E038
E038
E038
E038
E038
E038
E038
E038
E038
E038
E038
E038
E038
ENDCHAR
STARTCHAR 006F
ENCODING 111
SWIDTH 432 0
DWIDTH 18 0
BBX 14 22 2 0
BITMAP
1FE0
3FF8
7FF8
F03C
E01C
E01C
E01C
E01C
E01C
E01C
E01C
E01C
E01C
E01C
E01C
E01C
E01C
E01C
F03C
7FF8
3FF8
1FE0
ENDCHAR
STARTCHAR 0070
ENCODING 112
SWIDTH 456 0
DWIDTH 19 0
BBX 14 30 3 -8
BITMAP
C7E0
CFF0
DFF8
F038
E038
E018
E01C
E01C
E01C
E01C
E01C
E01C
E01C
E01C
E01C
E01C
E01C
E038
F038
FFF8
EFF0
E7E0
E000
E000
E000
E000
E000
E000
E000
E000
ENDCHAR
STARTCHAR 0071
ENCODING 113
SWIDTH 456 0
DWIDTH 19 0
BBX 14 30 2 -8
BITMAP
1F9C
3FDC
7FFC
703C
E01C
E01C
E01C
E01C
E01C
E01C
E01C
E01C
E01C
E01C
E01C
E01C
E01C
E03C
703C
7FFC
3FDC
1F9C
001C
001C
001C
001C
001C
001C
001C
001C
ENDCHAR
STARTCHAR 0072
ENCODING 114
SWIDTH 288 0
DWIDTH 12 0
BBX 8 22 3 0
BITMAP
C7
CF
DF
D8
F0
E0
E0
E0
E0
E0
E0
E0
E0
E0
E0
E0
E0
E0
E0
E0
E0
E0
ENDCHAR
STARTCHAR 0073
ENCODING 115
SWIDTH 384 0
DWIDTH 16 0
BBX 12 22 2 0
BITMAP
1FE0
7FE0
FFE0
E000
E000
C000
C000
E000
E000
FC00
FFC0
3FE0
00F0
0070
0070
0070
0070
0070
0070
FFF0
FFE0
FF80
ENDCHAR
STARTCHAR 0074
ENCODING 116
SWIDTH 264 0
DWIDTH 11 0
BBX 10 28 1 0
BITMAP
1C00
1C00
1C00
1C00
1C00
1C00
FFC0
FFC0
FFC0
1C00
1C00
1C00
1C00
1C00
1C00
1C00
1C00
1C00
1C00
1C00
1C00
1C00
1C00
1C00
1C00
1C00
1C00
1C00
ENDCHAR
STARTCHAR 0075
ENCODING 117
SWIDTH 456 0
DWIDTH 19 0
BBX 14 22 2 0
BITMAP
E01C
E01C
E01C
E01C
E01C
E01C
E01C
E01C
E01C
E01C
E01C
E01C
E01C
E01C
E01C
701C
701C
701C
703C
7FFC
3FCC
1F8C
ENDCHAR
STARTCHAR 0076
ENCODING 118
SWIDTH 408 0
DWIDTH 17 0
BBX 15 22 1 0
BITMAP
E00E
E00E
E01C
701C
701C
701C
3038
3838
3838
3838
1870
1C70
1C70
1C70
0C60
0EE0
0EE0
0EC0
07C0
07C0
07C0
0780
ENDCHAR
STARTCHAR 0077
ENCODING 119
SWIDTH 624 0
DWIDTH 26 0
BBX 24 22 1 0
BITMAP
E03807
E03C0E
E03C0E
703C0E
707C0E
707C0C
706E1C
306E1C
38661C
38E61C
38E618
38C738
18C738
1CC338
1DC330
1DC330
1D83F0
0D83F0
0F81F0
0F81E0
0F81E0
0701E0
ENDCHAR
STARTCHAR 0078
ENCODING 120
SWIDTH 408 0
DWIDTH 17 0
BBX 15 22 1 0
BITMAP
F00E
701C
781C
3838
3C38
1C70
1E70
0EE0
0FE0
07C0
03C0
07C0
07C0
0EE0
0EE0
1C70
1C70
3838
383C
701C
701E
E00E
ENDCHAR
STARTCHAR 0079
ENCODING 121
SWIDTH 456 0
DWIDTH 19 0
BBX 14 30 2 -8
BITMAP
E01C
E01C
E01C
E01C
E01C
E01C
E01C
E01C
E01C
E01C
E01C
E01C
E01C
E01C
E01C
701C
701C
701C
703C
7FFC
3FDC
1F9C
001C
001C
001C
001C
0038
7FF8
7FF0
7FC0
ENDCHAR
STARTCHAR 007A
ENCODING 122
SWIDTH 384 0
DWIDTH 16 0
BBX 13 22 1 0
BITMAP
7FF8
7FF8
7FF8
0070
00F0
00E0
01E0
01C0
03C0
0380
0780
0700
0F00
0E00
1E00
1C00
3C00
3800
7000
FFF8
FFF8
FFF8
ENDCHAR
STARTCHAR 007B
ENCODING 123
SWIDTH 264 0
DWIDTH 11 0
BBX 9 38 1 -6
BITMAP
0380
0700
0600
0E00
0C00
1C00
1C00
1C00
1C00
1C00
1C00
1C00
1C00
1C00
1C00
1C00
3800
7800
E000
F000
3800
3800
1C00
1C00
1C00
1C00
1C00
1C00
1C00
1C00
1C00
1C00
1C00
0C00
0E00
0600
0700
0380
ENDCHAR
STARTCHAR 007C
ENCODING 124
SWIDTH 216 0
DWIDTH 9 0
BBX 3 38 3 -6
BITMAP
E0
E0
E0
E0
E0
E0
E0
E0
E0
E0
E0
E0
E0
E0
E0
E0
E0
E0
E0
E0
E0
E0
E0
E0
E0
E0
E0
E0
E0
E0
E0
E0
E0
E0
E0
E0
E0
E0
ENDCHAR
STARTCHAR 007D
ENCODING 125
SWIDTH 264 0
DWIDTH 11 0
BBX 9 38 1 -6
BITMAP
E000
6000
7000
3800
3800
1800
1C00
1C00
1C00
1C00
1C00
1C00
1C00
1C00
1C00
1C00
0C00
0E00
0780
0780
0E00
0C00
1C00
1C00
1C00
1C00
1C00
1C00
1C00
1C00
1C00
1C00
1800
3800
3800
7000
7000
E000
ENDCHAR
STARTCHAR 007E
ENCODING 126
SWIDTH 432 0
DWIDTH 18 0
BBX 14 5 2 11
BITMAP
000C
7E0C
7FFC
7FF8
C0F8
ENDCHAR
STARTCHAR 00A0
ENCODING 160
SWIDTH 192 0
DWIDTH 8 0
BBX 0 0 0 0
BITMAP
ENDCHAR
STARTCHAR 00A1
ENCODING 161
SWIDTH 216 0
DWIDTH 9 0
BBX 3 29 3 -7
BITMAP
E0
E0
E0
E0
00
00
00
00
C0
C0
C0
C0
E0
E0
E0
E0
E0
E0
E0
E0
E0
E0
E0
E0
E0
E0
E0
E0
E0
ENDCHAR
STARTCHAR 00A2
ENCODING 162
SWIDTH 384 0
DWIDTH 16 0
BBX 12 29 2 0
BITMAP
0300
0300
03C0
3FF0
3FF0
7810
7000
F000
F000
E000
E000
E000
E000
E000
E000
E000
E000
E000
E000
E000
F000
7000
7810
3FF0
1FF0
0780
0300
0300
0300
ENDCHAR
STARTCHAR 00A3
ENCODING 163
SWIDTH 432 0
DWIDTH 18 0
BBX 15 29 2 0
BITMAP
03FC
0FFC
0FFC
1E00
1C00
3C00
3800
3800
3800
3800
3800
3800
FFF0
FFF0
FFF0
3800
3800
3800
3800
3800
3800
3800
3800
3800
3800
3800
FFFE
FFFE
FFFE
ENDCHAR
STARTCHAR 00A4
ENCODING 164
SWIDTH 552 0
DWIDTH 23 0
BBX 19 29 2 0
BITMAP
400040
E000E0
7001E0
3BFBC0
1FFF80
1FFF00
1C0700
1C0700
1C0380
1C0380
380380
380380
380380
380380
380380
380380
380380
380380
180380
1C0380
1C0380
1C0700
1C0700
1FFF00
1FFF80
3BFBC0
7001E0
E000E0
400040
ENDCHAR
STARTCHAR 00A5
ENCODING 165
SWIDTH 480 0
DWIDTH 20 0
BBX 18 29 1 0
BITMAP
F003C0
700380
700780
380700
380700
1C0E00
1C0E00
1C1C00
0E1C00
7E1F80
7F3F80
073800
073000
03F000
03E000
7FFF80
7FFF80
7FFF80
01C000
01C000
01C000
01C000
01C000
01C000
01C000
01C000
01C000
01C000
01C000
ENDCHAR
STARTCHAR 00A6
ENCODING 166
SWIDTH 216 0
DWIDTH 9 0
BBX 3 38 3 -6
BITMAP
E0
E0
E0
E0
E0
E0
E0
E0
E0
E0
E0
E0
E0
E0
E0
00
00
00
00
00
00
00
00
E0
E0
E0
E0
E0
E0
E0
E0
E0
E0
E0
E0
E0
E0
E0
ENDCHAR
STARTCHAR 00A7
ENCODING 167
SWIDTH 504 0
DWIDTH 21 0
BBX 17 37 2 -8
BITMAP
03FE00
0FFE00
1FFE00
1C0000
380000
380000
380000
380000
380000
3C0000
1F0000
1FE000
7FFC00
70FF00
E03F00
E00780
E00380
E00380
E00380
E00380
E00380
F80380
7F0380
3FE700
0FFF00
01FC00
003C00
001E00
000E00
000E00
000E00
000E00
001E00
203C00
3FFC00
3FF800
038000
ENDCHAR
STARTCHAR 00A8
ENCODING 168
SWIDTH 288 0
DWIDTH 12 0
BBX 10 3 1 28
BITMAP
E1C0
E1C0
E1C0
ENDCHAR
STARTCHAR 00A9
ENCODING 169
SWIDTH 576 0
DWIDTH 24 0
BBX 18 30 3 0
BITMAP
0FFC00
3FFF00
700380
600180
C00080
C00080
C000C0
C1F0C0
C3F0C0
C300C0
C600C0
C600C0
C600C0
C600C0
C600C0
C600C0
C600C0
C600C0
C600C0
C600C0
C300C0
C3F0C0
C1F0C0
C000C0
C00080
C00080
600180
700380
3FFF00
0FFC00
ENDCHAR
STARTCHAR 00AA
ENCODING 170
SWIDTH 336 0
DWIDTH 14 0
BBX 11 16 1 13
BITMAP
7F80
7FC0
01C0
00C0
00C0
00C0
00E0
3FE0
7FE0
60E0
E0E0
E0E0
E0E0
61E0
7FE0
3CE0
ENDCHAR
STARTCHAR 00AB
ENCODING 171
SWIDTH 360 0
DWIDTH 15 0
BBX 12 17 1 5
BITMAP
0C70
0C60
1860
18E0
38C0
31C0
7180
6380
E380
6380
7180
31C0
38C0
18E0
1860
0C60
0C30
ENDCHAR
STARTCHAR 00AC
ENCODING 172
SWIDTH 480 0
DWIDTH 20 0
BBX 15 9 3 3
BITMAP
FFFE
FFFE
FFFE
000E
000E
000E
000E
000E
000E
ENDCHAR
STARTCHAR 00AD
ENCODING 173
SWIDTH 312 0
DWIDTH 13 0
BBX 9 3 2 11
BITMAP
FF80
FF80
FF80
ENDCHAR
STARTCHAR 00AE
ENCODING 174
SWIDTH 576 0
DWIDTH 24 0
BBX 18 30 3 0
BITMAP
0FFC00
3FFF00
700380
600180
C00080
C00080
C000C0
C7E0C0
C7F8C0
C618C0
C618C0
C618C0
C618C0
C618C0
C618C0
C7F8C0
C7E0C0
C630C0
C630C0
C630C0
C618C0
C618C0
C61CC0
C000C0
C00080
C00080
600180
700380
3FFF00
0FFC00
ENDCHAR
STARTCHAR 00AF
ENCODING 175
SWIDTH 312 0
DWIDTH 13 0
BBX 9 3 2 29
BITMAP
FF80
FF80
FF80
ENDCHAR
STARTCHAR 00B0
ENCODING 176
SWIDTH 312 0
DWIDTH 13 0
BBX 9 13 2 17
BITMAP
3E00
7F00
E380
C180
C180
C180
C180
C180
C180
C180
E380
7F00
3E00
ENDCHAR
STARTCHAR 00B1
ENCODING 177
SWIDTH 480 0
DWIDTH 20 0
BBX 15 22 3 1
BITMAP
0300
0300
0300
0300
0300
0300
FFFE
FFFE
FFFE
0300
0300
0300
0300
0300
0300
0000
0000
0000
0000
FFFE
FFFE
FFFE
ENDCHAR
STARTCHAR 00B2
ENCODING 178
SWIDTH 288 0
DWIDTH 12 0
BBX 8 17 2 12
BITMAP
FE
FF
FF
03
03
03
03
07
1E
38
60
C0
C0
C0
FF
FF
FF
ENDCHAR
STARTCHAR 00B3
ENCODING 179
SWIDTH 288 0
DWIDTH 12 0
BBX 8 17 2 12
BITMAP
FC
FE
FF
03
03
03
07
3E
3E
07
03
03
03
07
FF
FE
10
ENDCHAR
STARTCHAR 00B4
ENCODING 180
SWIDTH 144 0
DWIDTH 6 0
BBX 6 6 0 26
BITMAP
3C
38
30
70
60
E0
ENDCHAR
STARTCHAR 00B5
ENCODING 181
SWIDTH 456 0
DWIDTH 19 0
BBX 13 29 3 -8
BITMAP
E038
E038
E038
E038
E038
E038
E038
E038
E038
E038
E038
E038
E038
E038
E038
E038
E038
E078
F8D8
FFD8
FF98
E000
E000
E000
E000
E000
E000
E000
E000
ENDCHAR
STARTCHAR 00B6
ENCODING 182
SWIDTH 432 0
DWIDTH 18 0
BBX 13 35 2 -6
BITMAP
3F98
7F98
FF98
FF98
FF98
FF98
FF98
FF98
FF98
FF98
FF98
FF98
FF98
FF98
FF98
FF98
FF98
FF98
7F98
3F98
0398
0398
0398
0398
0398
0398
0398
0398
0398
0398
0398
0398
0398
0398
0398
ENDCHAR
STARTCHAR 00B7
ENCODING 183
SWIDTH 192 0
DWIDTH 8 0
BBX 4 4 2 11
BITMAP
F0
F0
F0
F0
ENDCHAR
STARTCHAR 00B8
ENCODING 184
SWIDTH 144 0
DWIDTH 6 0
BBX 4 8 1 -8
BITMAP
30
30
70
70
60
E0
E0
E0
ENDCHAR
STARTCHAR 00B9
ENCODING 185
SWIDTH 216 0
DWIDTH 9 0
BBX 4 16 2 13
BITMAP
30
F0
F0
B0
30
30
30
30
30
30
30
30
30
30
30
30
ENDCHAR
STARTCHAR 00BA
ENCODING 186
SWIDTH 336 0
DWIDTH 14 0
BBX 10 16 2 13
BITMAP
3F00
7FC0
E1C0
C0C0
C0C0
C0C0
C0C0
C0C0
C0C0
C0C0
C0C0
C0C0
C0C0
E1C0
7FC0
3F00
ENDCHAR
STARTCHAR 00BB
ENCODING 187
SWIDTH 360 0
DWIDTH 15 0
BBX 12 17 2 5
BITMAP
E300
6380
7180
3180
31C0
38C0
18E0
1C60
0C70
1C60
18E0
38C0
31C0
3180
7180
6380
E300
ENDCHAR
STARTCHAR 00BC
ENCODING 188
SWIDTH 552 0
DWIDTH 23 0
BBX 19 29 2 0
BITMAP
300380
F00300
F00600
B00600
300C00
300C00
301800
301800
303800
303000
307000
306000
30E000
30C100
31C600
318E00
038C00
030C00
031D80
061980
061980
0C3980
0C3180
183180
187FE0
307FE0
300180
600180
600180
ENDCHAR
STARTCHAR 00BD
ENCODING 189
SWIDTH 600 0
DWIDTH 25 0
BBX 21 29 2 0
BITMAP
300380
F00300
F00600
B00600
300C00
300C00
301800
301800
303800
303000
307000
306000
30E000
30C7E0
31C7F0
318030
038038
030038
030030
060030
0600E0
0C03C0
0C0700
180600
180E00
300E00
300FF8
600FF8
600FF8
ENDCHAR
STARTCHAR 00BE
ENCODING 190
SWIDTH 600 0
DWIDTH 25 0
BBX 21 30 2 0
BITMAP
FC0060
FE00E0
FF00C0
0701C0
030180
030180
030300
070300
3E0600
3E0600
030C00
030C00
031C00
031800
FF38C0
FF31C0
FC7180
006380
00E300
00C330
00C730
018630
018630
030E30
030C30
060FF8
060FF8
0C0030
0C0030
1C0030
ENDCHAR
STARTCHAR 00BF
ENCODING 191
SWIDTH 312 0
DWIDTH 13 0
BBX 12 30 2 -8
BITMAP
0380
0380
0380
0380
0000
0000
0000
0000
0380
0380
0380
0380
0380
0380
0F00
1F00
7E00
7800
F000
E000
E000
E000
E000
E000
E000
E000
F000
7FF0
7FF0
1FF0
ENDCHAR
STARTCHAR 00C0
ENCODING 192
SWIDTH 504 0
DWIDTH 21 0
BBX 19 37 1 0
BITMAP
078000
038000
01C000
01C000
00C000
00E000
000000
000000
01E000
01F000
01F000
03F000
03F000
03B800
03B800
073800
073C00
071C00
071C00
0E1C00
0E1E00
0E0E00
1E0E00
1C0E00
1C0F00
1C0700
3FFF00
3FFF00
3FFF80
380380
700380
700380
7003C0
7001C0
E001C0
E001C0
E001E0
ENDCHAR
STARTCHAR 00C1
ENCODING 193
SWIDTH 504 0
DWIDTH 21 0
BBX 19 38 1 0
BITMAP
003800
007000
007000
006000
00E000
00C000
000000
000000
000000
01E000
01F000
01F000
03F000
03F000
03B800
03B800
073800
073C00
071C00
071C00
0E1C00
0E1E00
0E0E00
1E0E00
1C0E00
1C0F00
1C0700
3FFF00
3FFF00
3FFF80
380380
700380
700380
7003C0
7001C0
E001C0
E001C0
E001E0
ENDCHAR
STARTCHAR 00C2
ENCODING 194
SWIDTH 504 0
DWIDTH 21 0
BBX 19 38 1 0
BITMAP
01E000
01F000
03B000
033800
071800
0E0C00
000000
000000
000000
01E000
01F000
01F000
03F000
03F000
03B800
03B800
073800
073C00
071C00
071C00
0E1C00
0E1E00
0E0E00
1E0E00
1C0E00
1C0F00
1C0700
3FFF00
3FFF00
3FFF80
380380
700380
700380
7003C0
7001C0
E001C0
E001C0
E001E0
ENDCHAR
STARTCHAR 00C3
ENCODING 195
SWIDTH 504 0
DWIDTH 21 0
BBX 19 37 1 0
BITMAP
000600
0F8600
0FFE00
1FFE00
183C00
000000
000000
000000
01E000
01F000
01F000
03F000
03F000
03B800
03B800
073800
073C00
071C00
071C00
0E1C00
0E1E00
0E0E00
1E0E00
1C0E00
1C0F00
1C0700
3FFF00
3FFF00
3FFF80
380380
700380
700380
7003C0
7001C0
E001C0
E001C0
E001E0
ENDCHAR
STARTCHAR 00C4
ENCODING 196
SWIDTH 504 0
DWIDTH 21 0
BBX 19 36 1 0
BITMAP
0E0C00
0E0C00
0E0C00
000000
000000
000000
000000
01E000
01F000
01F000
03F000
03F000
03B800
03B800
073800
073C00
071C00
071C00
0E1C00
0E1E00
0E0E00
1E0E00
1C0E00
1C0F00
1C0700
3FFF00
3FFF00
3FFF80
380380
700380
700380
7003C0
7001C0
E001C0
E001C0
E001E0
ENDCHAR
STARTCHAR 00C5
ENCODING 197
SWIDTH 504 0
DWIDTH 21 0
BBX 19 37 1 0
BITMAP
03F000
07F800
061800
061C00
061C00
061C00
07B800
03F800
01E000
01F000
01F000
03F000
03F000
03B800
03B800
073800
073800
071C00
071C00
0E1C00
0E1E00
0E0E00
1E0E00
1C0E00
1C0F00
1C0700
3FFF00
3FFF00
3FFF80
380380
700380
700380
7003C0
7001C0
E001C0
E001C0
E001E0
ENDCHAR
STARTCHAR 00C6
ENCODING 198
SWIDTH 672 0
DWIDTH 28 0
BBX 27 29 0 0
BITMAP
003FFFE0
007FFFE0
007FFFE0
007E0000
00EE0000
00EE0000
00EE0000
01CE0000
01CE0000
01C70000
03870000
03870000
03870000
0707FF80
0707FF80
0707FF80
0E038000
0E038000
1FFF8000
1FFF8000
1FFF8000
3803C000
3801C000
3801C000
7001C000
7001C000
7001FFE0
E001FFE0
E000FFE0
ENDCHAR
STARTCHAR 00C7
ENCODING 199
SWIDTH 408 0
DWIDTH 17 0
BBX 13 37 2 -8
BITMAP
07F8
1FF8
3FF8
7800
7000
7000
7000
F000
F000
E000
E000
E000
E000
E000
E000
E000
E000
E000
E000
E000
F000
F000
7000
7000
7000
7800
3FF8
1FF8
0FF8
0600
0600
0E00
0E00
0C00
1C00
1C00
1C00
ENDCHAR
STARTCHAR 00C8
ENCODING 200
SWIDTH 432 0
DWIDTH 18 0
BBX 13 37 3 0
BITMAP
1C00
0E00
0E00
0600
0700
0300
0000
0000
FFF8
FFF8
FFF8
E000
E000
E000
E000
E000
E000
E000
E000
E000
E000
FFF0
FFF0
FFF0
E000
E000
E000
E000
E000
E000
E000
E000
E000
E000
FFF8
FFF8
FFF8
ENDCHAR
STARTCHAR 00C9
ENCODING 201
SWIDTH 432 0
DWIDTH 18 0
BBX 13 38 3 0
BITMAP
00E0
01C0
01C0
0180
0380
0300
0000
0000
0000
FFF8
FFF8
FFF8
E000
E000
E000
E000
E000
E000
E000
E000
E000
E000
FFF0
FFF0
FFF0
E000
E000
E000
E000
E000
E000
E000
E000
E000
E000
FFF8
FFF8
FFF8
ENDCHAR
STARTCHAR 00CA
ENCODING 202
SWIDTH 432 0
DWIDTH 18 0
BBX 13 38 3 0
BITMAP
0780
0F80
0DC0
1CC0
38E0
3060
0000
0000
0000
FFF8
FFF8
FFF8
E000
E000
E000
E000
E000
E000
E000
E000
E000
E000
FFF0
FFF0
FFF0
E000
E000
E000
E000
E000
E000
E000
E000
E000
E000
FFF8
FFF8
FFF8
ENDCHAR
STARTCHAR 00CB
ENCODING 203
SWIDTH 432 0
DWIDTH 18 0
BBX 13 36 3 0
BITMAP
3070
3070
3070
0000
0000
0000
0000
FFF8
FFF8
FFF8
E000
E000
E000
E000
E000
E000
E000
E000
E000
E000
FFF0
FFF0
FFF0
E000
E000
E000
E000
E000
E000
E000
E000
E000
E000
FFF8
FFF8
FFF8
ENDCHAR
STARTCHAR 00CC
ENCODING 204
SWIDTH 216 0
DWIDTH 9 0
BBX 5 37 1 0
BITMAP
E0
70
70
30
38
18
00
00
38
38
38
38
38
38
38
38
38
38
38
38
38
38
38
38
38
38
38
38
38
38
38
38
38
38
38
38
38
ENDCHAR
STARTCHAR 00CD
ENCODING 205
SWIDTH 216 0
DWIDTH 9 0
BBX 5 38 3 0
BITMAP
38
38
70
70
60
E0
00
00
00
E0
E0
E0
E0
E0
E0
E0
E0
E0
E0
E0
E0
E0
E0
E0
E0
E0
E0
E0
E0
E0
E0
E0
E0
E0
E0
E0
E0
E0
ENDCHAR
STARTCHAR 00CE
ENCODING 206
SWIDTH 216 0
DWIDTH 9 0
BBX 9 38 0 0
BITMAP
1C00
3E00
3700
6300
E380
C180
0000
0000
0000
1C00
1C00
1C00
1C00
1C00
1C00
1C00
1C00
1C00
1C00
1C00
1C00
1C00
1C00
1C00
1C00
1C00
1C00
1C00
1C00
1C00
1C00
1C00
1C00
1C00
1C00
1C00
1C00
1C00
ENDCHAR
STARTCHAR 00CF
ENCODING 207
SWIDTH 216 0
DWIDTH 9 0
BBX 11 36 -1 0
BITMAP
E0E0
E0E0
E0E0
0000
0000
0000
0000
0E00
0E00
0E00
0E00
0E00
0E00
0E00
0E00
0E00
0E00
0E00
0E00
0E00
0E00
0E00
0E00
0E00
0E00
0E00
0E00
0E00
0E00
0E00
0E00
0E00
0E00
0E00
0E00
0E00
ENDCHAR
STARTCHAR 00D0
ENCODING 208
SWIDTH 504 0
DWIDTH 21 0
BBX 19 29 0 0
BITMAP
1FFC00
1FFF00
1FFF80
1C03C0
1C01C0
1C01C0
1C01C0
1C01C0
1C01C0
1C01C0
1C01C0
1C01C0
1C01C0
FFC1C0
FFC1E0
FFC1C0
1C01C0
1C01C0
1C01C0
1C01C0
1C01C0
1C01C0
1C01C0
1C01C0
1C01C0
1C03C0
1FFF80
1FFF00
1FFC00
ENDCHAR
STARTCHAR 00D1
ENCODING 209
SWIDTH 528 0
DWIDTH 22 0
BBX 16 37 3 0
BITMAP
000C
1E0C
3FFC
3FFC
3078
0000
0000
0000
E007
F007
F007
F807
F807
FC07
FC07
FE07
EE07
EE07
E707
E707
E387
E387
E3C7
E1C7
E1E7
E0E7
E0E7
E077
E077
E03F
E03F
E01F
E01F
E01F
E00F
E00F
E007
ENDCHAR
STARTCHAR 00D2
ENCODING 210
SWIDTH 528 0
DWIDTH 22 0
BBX 17 37 2 0
BITMAP
070000
030000
038000
018000
01C000
00C000
000000
000000
0FF800
3FFE00
3FFF00
780700
700780
700380
F00380
F00380
E00380
E00380
E00380
E00380
E00380
E00380
E00380
E00380
E00380
E00380
E00380
E00380
E00380
F00380
700380
700380
700780
780700
3FFF00
3FFE00
0FF800
ENDCHAR
STARTCHAR 00D3
ENCODING 211
SWIDTH 528 0
DWIDTH 22 0
BBX 17 38 2 0
BITMAP
007800
007000
007000
00E000
00C000
01C000
000000
000000
000000
0FF800
3FFE00
3FFF00
780700
700780
700380
F00380
F00380
E00380
E00380
E00380
E00380
E00380
E00380
E00380
E00380
E00380
E00380
E00380
E00380
E00380
F00380
700380
700380
700780
780700
3FFF00
3FFE00
0FF800
ENDCHAR
STARTCHAR 00D4
ENCODING 212
SWIDTH 528 0
DWIDTH 22 0
BBX 17 38 2 0
BITMAP
01E000
03E000
037000
073000
061800
0C1C00
000000
000000
000000
0FF800
3FFE00
3FFF00
780700
700780
700380
F00380
F00380
E00380
E00380
E00380
E00380
E00380
E00380
E00380
E00380
E00380
E00380
E00380
E00380
E00380
F00380
700380
700380
700780
780700
3FFF00
3FFE00
0FF800
ENDCHAR
STARTCHAR 00D5
ENCODING 213
SWIDTH 528 0
DWIDTH 22 0
BBX 17 37 2 0
BITMAP
000600
0F0600
1FFE00
1FFC00
187C00
000000
000000
000000
0FF800
3FFE00
3FFF00
780700
700780
700380
F00380
F00380
E00380
E00380
E00380
E00380
E00380
E00380
E00380
E00380
E00380
E00380
E00380
E00380
E00380
F00380
700380
700380
700780
780700
3FFF00
3FFE00
0FF800
ENDCHAR
STARTCHAR 00D6
ENCODING 214
SWIDTH 528 0
DWIDTH 22 0
BBX 17 36 2 0
BITMAP
0E1C00
0E1C00
0E1C00
000000
000000
000000
000000
0FF800
3FFE00
3FFF00
780700
700780
700380
F00380
F00380
E00380
E00380
E00380
E00380
E00380
E00380
E00380
E00380
E00380
E00380
E00380
E00380
E00380
F00380
700380
700380
700780
780700
3FFF00
3FFE00
0FF800
ENDCHAR
STARTCHAR 00D7
ENCODING 215
SWIDTH 432 0
DWIDTH 18 0
BBX 13 13 3 4
BITMAP
4020
E078
F0F0
79E0
3FC0
1F80
0F00
1F80
3FC0
79E0
F0F0
E078
4020
ENDCHAR
STARTCHAR 00D8
ENCODING 216
SWIDTH 528 0
DWIDTH 22 0
BBX 17 34 2 -2
BITMAP
000380
000380
000300
0FFB00
3FFF00
3FFF00
780F00
700F80
701F80
F01F80
F01B80
E03B80
E03380
E07380
E07380
E0E380
E0E380
E1C380
E1C380
E18380
E38380
E30380
E70380
E70380
FE0380
FE0380
7C0380
7C0780
780700
3FFF00
3FFE00
7FF800
700000
E00000
ENDCHAR
STARTCHAR 00D9
ENCODING 217
SWIDTH 504 0
DWIDTH 21 0
BBX 16 37 3 0
BITMAP
0E00
0700
0700
0300
0380
0180
0000
0000
E007
E007
E007
E007
E007
E007
E007
E007
E007
E007
E007
E007
E007
E007
E007
E007
E007
E007
E007
E007
E00F
E00F
E00E
E00E
E00E
F01E
7FFC
3FFC
0FF0
ENDCHAR
STARTCHAR 00DA
ENCODING 218
SWIDTH 504 0
DWIDTH 21 0
BBX 16 38 3 0
BITMAP
0070
00E0
00E0
01C0
01C0
0180
0000
0000
0000
E007
E007
E007
E007
E007
E007
E007
E007
E007
E007
E007
E007
E007
E007
E007
E007
E007
E007
E007
E007
E00F
E00F
E00E
E00E
E00E
F01E
7FFC
3FFC
0FF0
ENDCHAR
STARTCHAR 00DB
ENCODING 219
SWIDTH 504 0
DWIDTH 21 0
BBX 16 38 3 0
BITMAP
03C0
07C0
06E0
0E60
0C70
1838
0000
0000
0000
E007
E007
E007
E007
E007
E007
E007
E007
E007
E007
E007
E007
E007
E007
E007
E007
E007
E007
E007
E007
E00F
E00F
E00E
E00E
E00E
F01E
7FFC
3FFC
0FF0
ENDCHAR
STARTCHAR 00DC
ENCODING 220
SWIDTH 504 0
DWIDTH 21 0
BBX 16 36 3 0
BITMAP
1838
1838
1838
0000
0000
0000
0000
E007
E007
E007
E007
E007
E007
E007
E007
E007
E007
E007
E007
E007
E007
E007
E007
E007
E007
E007
E007
E00F
E00F
E00E
E00E
E00E
F01E
7FFC
3FFC
0FF0
ENDCHAR
STARTCHAR 00DD
ENCODING 221
SWIDTH 432 0
DWIDTH 18 0
BBX 18 38 0 0
BITMAP
003800
003800
007000
007000
00E000
00C000
000000
000000
000000
F001C0
700380
700380
380780
380700
3C0700
1C0E00
1C0E00
0E1C00
0E1C00
0F1C00
073800
073800
03F000
03F000
03F000
01E000
01E000
01E000
01E000
01E000
01E000
01E000
01E000
01E000
01E000
01E000
01E000
01E000
ENDCHAR
STARTCHAR 00DE
ENCODING 222
SWIDTH 456 0
DWIDTH 19 0
BBX 15 29 3 0
BITMAP
E000
E000
E000
E000
E000
FFF0
FFF8
FFFC
E01E
E01E
E00E
E00E
E00E
E00E
E00E
E00E
E00E
E00E
E01E
E01C
FFFC
FFF8
FFF0
E000
E000
E000
E000
E000
E000
ENDCHAR
STARTCHAR 00DF
ENCODING 223
SWIDTH 456 0
DWIDTH 19 0
BBX 14 32 3 0
BITMAP
1FE0
3FF0
7FF8
F03C
E01C
E01C
E01C
E01C
E01C
E01C
E03C
E038
E3F0
E3E0
E3F8
E038
E01C
E01C
E01C
E01C
E01C
E01C
E01C
E01C
E01C
E01C
E01C
E01C
E03C
E7F8
E7F0
E7E0
ENDCHAR
STARTCHAR 00E0
ENCODING 224
SWIDTH 432 0
DWIDTH 18 0
BBX 14 31 1 0
BITMAP
0E00
0700
0700
0300
0380
0180
0000
0000
0000
3FE0
7FF8
7FF8
003C
001C
001C
001C
001C
001C
07FC
3FFC
7FFC
701C
701C
E01C
E01C
E01C
601C
703C
7FFC
3FDC
1F8C
ENDCHAR
STARTCHAR 00E1
ENCODING 225
SWIDTH 432 0
DWIDTH 18 0
BBX 14 32 1 0
BITMAP
00F0
00E0
00E0
01C0
0180
0380
0000
0000
0000
0000
3FE0
7FF8
7FF8
003C
001C
001C
001C
001C
001C
07FC
3FFC
7FFC
701C
701C
E01C
E01C
E01C
601C
703C
7FFC
3FDC
1F8C
ENDCHAR
STARTCHAR 00E2
ENCODING 226
SWIDTH 432 0
DWIDTH 18 0
BBX 14 32 1 0
BITMAP
03C0
07C0
06E0
0E60
0C30
1838
0000
0000
0000
0000
3FE0
7FF8
7FF8
003C
001C
001C
001C
001C
001C
07FC
3FFC
7FFC
701C
701C
E01C
E01C
E01C
601C
703C
7FFC
3FDC
1F8C
ENDCHAR
STARTCHAR 00E3
ENCODING 227
SWIDTH 432 0
DWIDTH 18 0
BBX 14 32 1 0
BITMAP
000C
1E0C
3FFC
3FF8
30F8
0000
0000
0000
0000
0000
3FE0
7FF8
7FF8
003C
001C
001C
001C
001C
001C
07FC
3FFC
7FFC
701C
701C
E01C
E01C
E01C
601C
703C
7FFC
3FDC
1F8C
ENDCHAR
STARTCHAR 00E4
ENCODING 228
SWIDTH 432 0
DWIDTH 18 0
BBX 14 31 1 0
BITMAP
1C38
1C38
1C38
0000
0000
0000
0000
0000
0000
3FE0
7FF8
7FF8
003C
001C
001C
001C
001C
001C
07FC
3FFC
7FFC
701C
701C
E01C
E01C
E01C
601C
703C
7FFC
3FDC
1F8C
ENDCHAR
STARTCHAR 00E5
ENCODING 229
SWIDTH 432 0
DWIDTH 18 0
BBX 14 34 1 0
BITMAP
07E0
0FF0
0C30
0C30
0C30
0C30
0FF0
07E0
0000
0000
0000
0000
3FE0
7FF8
7FF8
003C
001C
001C
001C
001C
001C
07FC
3FFC
7FFC
701C
701C
E01C
E01C
E01C
601C
703C
7FFC
3FDC
1F8C
ENDCHAR
STARTCHAR 00E6
ENCODING 230
SWIDTH 672 0
DWIDTH 28 0
BBX 25 22 1 0
BITMAP
3FE1FC00
7FF7FF00
7FFFFF00
003E0780
001E0380
001C0380
001C0380
001C0380
001C0380
07FFFF80
3FFFFF80
7FFFFF80
701C0000
701C0000
E01C0000
E01C0000
E01C0000
E01E0000
703E0000
7FF7FF80
3FE7FF80
1FC1FF00
ENDCHAR
STARTCHAR 00E7
ENCODING 231
SWIDTH 360 0
DWIDTH 15 0
BBX 11 30 2 -8
BITMAP
1FE0
3FE0
7FE0
7000
F000
E000
E000
E000
E000
E000
E000
E000
E000
E000
E000
E000
E000
F000
7000
7FE0
3FE0
1FE0
0C00
0C00
1C00
1C00
1800
3800
3800
3800
ENDCHAR
STARTCHAR 00E8
ENCODING 232
SWIDTH 432 0
DWIDTH 18 0
BBX 14 31 2 0
BITMAP
1C00
0E00
0E00
0700
0300
0380
0000
0000
0000
1FE0
3FF0
7FF8
7038
E01C
E01C
E01C
E01C
E01C
FFFC
FFFC
FFFC
E000
E000
E000
E000
E000
F000
7000
7FF8
3FF8
1FF8
ENDCHAR
STARTCHAR 00E9
ENCODING 233
SWIDTH 432 0
DWIDTH 18 0
BBX 14 32 2 0
BITMAP
00E0
00E0
01C0
0180
0380
0300
0000
0000
0000
0000
1FE0
3FF0
7FF8
7038
E01C
E01C
E01C
E01C
E01C
FFFC
FFFC
FFFC
E000
E000
E000
E000
E000
F000
7000
7FF8
3FF8
1FF8
ENDCHAR
STARTCHAR 00EA
ENCODING 234
SWIDTH 432 0
DWIDTH 18 0
BBX 14 32 2 0
BITMAP
0780
07C0
0EC0
1CE0
1860
3870
0000
0000
0000
0000
1FE0
3FF0
7FF8
7038
E01C
E01C
E01C
E01C
E01C
FFFC
FFFC
FFFC
E000
E000
E000
E000
E000
F000
7000
7FF8
3FF8
1FF8
ENDCHAR
STARTCHAR 00EB
ENCODING 235
SWIDTH 432 0
DWIDTH 18 0
BBX 14 31 2 0
BITMAP
3870
3870
3870
0000
0000
0000
0000
0000
0000
1FE0
3FF0
7FF8
7038
E01C
E01C
E01C
E01C
E01C
FFFC
FFFC
FFFC
E000
E000
E000
E000
E000
F000
7000
7FF8
3FF8
1FF8
ENDCHAR
STARTCHAR 00EC
ENCODING 236
SWIDTH 192 0
DWIDTH 8 0
BBX 6 31 0 0
BITMAP
F0
70
30
38
18
1C
00
00
00
1C
1C
1C
1C
1C
1C
1C
1C
1C
1C
1C
1C
1C
1C
1C
1C
1C
1C
1C
1C
1C
1C
ENDCHAR
STARTCHAR 00ED
ENCODING 237
SWIDTH 192 0
DWIDTH 8 0
BBX 5 32 3 0
BITMAP
38
70
70
E0
E0
C0
00
00
00
00
E0
E0
E0
E0
E0
E0
E0
E0
E0
E0
E0
E0
E0
E0
E0
E0
E0
E0
E0
E0
E0
E0
ENDCHAR
STARTCHAR 00EE
ENCODING 238
SWIDTH 192 0
DWIDTH 8 0
BBX 10 32 -1 0
BITMAP
1E00
1F00
3B00
3380
6180
E0C0
0000
0000
0000
0000
0E00
0E00
0E00
0E00
0E00
0E00
0E00
0E00
0E00
0E00
0E00
0E00
0E00
0E00
0E00
0E00
0E00
0E00
0E00
0E00
0E00
0E00
ENDCHAR
STARTCHAR 00EF
ENCODING 239
SWIDTH 192 0
DWIDTH 8 0
BBX 10 31 -1 0
BITMAP
E1C0
E1C0
E1C0
0000
0000
0000
0000
0000
0000
0E00
0E00
0E00
0E00
0E00
0E00
0E00
0E00
0E00
0E00
0E00
0E00
0E00
0E00
0E00
0E00
0E00
0E00
0E00
0E00
0E00
0E00
ENDCHAR
STARTCHAR 00F0
ENCODING 240
SWIDTH 432 0
DWIDTH 18 0
BBX 14 32 2 0
BITMAP
0780
03C0
01FC
0FFC
0FF0
0C70
0070
0038
0038
0038
1FB8
7FFC
7FFC
F03C
E01C
E01C
E01C
E01C
E01C
E01C
E01C
E01C
E01C
E01C
E01C
E01C
E01C
E01C
F03C
7FF8
3FF8
1FE0
ENDCHAR
STARTCHAR 00F1
ENCODING 241
SWIDTH 456 0
DWIDTH 19 0
BBX 13 32 3 0
BITMAP
0010
3C10
7FF0
7FF0
61F0
0000
0000
0000
0000
0000
C7E0
CFF0
DFF8
F038
E038
E038
E038
E038
E038
E038
E038
E038
E038
E038
E038
E038
E038
E038
E038
E038
E038
E038
ENDCHAR
STARTCHAR 00F2
ENCODING 242
SWIDTH 432 0
DWIDTH 18 0
BBX 14 31 2 0
BITMAP
1E00
0E00
0600
0700
0300
0380
0000
0000
0000
1FE0
3FF8
7FF8
F03C
E01C
E01C
E01C
E01C
E01C
E01C
E01C
E01C
E01C
E01C
E01C
E01C
E01C
E01C
F03C
7FF8
3FF8
1FE0
ENDCHAR
STARTCHAR 00F3
ENCODING 243
SWIDTH 432 0
DWIDTH 18 0
BBX 14 32 2 0
BITMAP
00E0
01C0
01C0
0180
0380
0300
0000
0000
0000
0000
1FE0
3FF8
7FF8
F03C
E01C
E01C
E01C
E01C
E01C
E01C
E01C
E01C
E01C
E01C
E01C
E01C
E01C
E01C
F03C
7FF8
3FF8
1FE0
ENDCHAR
STARTCHAR 00F4
ENCODING 244
SWIDTH 432 0
DWIDTH 18 0
BBX 14 32 2 0
BITMAP
0780
07C0
0EC0
0CE0
1860
3830
0000
0000
0000
0000
1FE0
3FF8
7FF8
F03C
E01C
E01C
E01C
E01C
E01C
E01C
E01C
E01C
E01C
E01C
E01C
E01C
E01C
E01C
F03C
7FF8
3FF8
1FE0
ENDCHAR
STARTCHAR 00F5
ENCODING 245
SWIDTH 432 0
DWIDTH 18 0
BBX 14 32 2 0
BITMAP
0018
3E18
3FF8
7FF8
60F0
0000
0000
0000
0000
0000
1FE0
3FF8
7FF8
F03C
E01C
E01C
E01C
E01C
E01C
E01C
E01C
E01C
E01C
E01C
E01C
E01C
E01C
E01C
F03C
7FF8
3FF8
1FE0
ENDCHAR
STARTCHAR 00F6
ENCODING 246
SWIDTH 432 0
DWIDTH 18 0
BBX 14 31 2 0
BITMAP
3870
3870
3870
0000
0000
0000
0000
0000
0000
1FE0
3FF8
7FF8
F03C
E01C
E01C
E01C
E01C
E01C
E01C
E01C
E01C
E01C
E01C
E01C
E01C
E01C
E01C
F03C
7FF8
3FF8
1FE0
ENDCHAR
STARTCHAR 00F7
ENCODING 247
SWIDTH 480 0
DWIDTH 20 0
BBX 15 17 3 2
BITMAP
0300
0300
0300
0000
0000
0000
0000
FFFE
FFFE
FFFE
0000
0000
0000
0000
0300
0300
0300
ENDCHAR
STARTCHAR 00F8
ENCODING 248
SWIDTH 432 0
DWIDTH 18 0
BBX 14 27 2 -2
BITMAP
000C
001C
0018
1FF8
3FF8
7FFC
F07C
E07C
E0FC
E0FC
E0DC
E1DC
E19C
E39C
E31C
E71C
E61C
EE1C
EC1C
FC1C
F81C
F83C
7FF8
3FF8
7FE0
6000
E000
ENDCHAR
STARTCHAR 00F9
ENCODING 249
SWIDTH 456 0
DWIDTH 19 0
BBX 14 31 2 0
BITMAP
1E00
0E00
0700
0700
0300
0380
0000
0000
0000
E01C
E01C
E01C
E01C
E01C
E01C
E01C
E01C
E01C
E01C
E01C
E01C
E01C
E01C
E01C
701C
701C
701C
703C
7FFC
3FCC
1F8C
ENDCHAR
STARTCHAR 00FA
ENCODING 250
SWIDTH 456 0
DWIDTH 19 0
BBX 14 32 2 0
BITMAP
00F0
00E0
00C0
01C0
0180
0380
0000
0000
0000
0000
E01C
E01C
E01C
E01C
E01C
E01C
E01C
E01C
E01C
E01C
E01C
E01C
E01C
E01C
E01C
701C
701C
701C
703C
7FFC
3FCC
1F8C
ENDCHAR
STARTCHAR 00FB
ENCODING 251
SWIDTH 456 0
DWIDTH 19 0
BBX 14 32 2 0
BITMAP
0780
07C0
0EC0
0CE0
1C70
1830
0000
0000
0000
0000
E01C
E01C
E01C
E01C
E01C
E01C
E01C
E01C
E01C
E01C
E01C
E01C
E01C
E01C
E01C
701C
701C
701C
703C
7FFC
3FCC
1F8C
ENDCHAR
STARTCHAR 00FC
ENCODING 252
SWIDTH 456 0
DWIDTH 19 0
BBX 14 31 2 0
BITMAP
3838
3838
3838
0000
0000
0000
0000
0000
0000
E01C
E01C
E01C
E01C
E01C
E01C
E01C
E01C
E01C
E01C
E01C
E01C
E01C
E01C
E01C
701C
701C
701C
703C
7FFC
3FCC
1F8C
ENDCHAR
STARTCHAR 00FD
ENCODING 253
SWIDTH 456 0
DWIDTH 19 0
BBX 14 40 2 -8
BITMAP
00F0
00E0
00C0
01C0
0180
0380
0000
0000
0000
0000
E01C
E01C
E01C
E01C
E01C
E01C
E01C
E01C
E01C
E01C
E01C
E01C
E01C
E01C
E01C
701C
701C
701C
703C
7FFC
3FDC
1F9C
001C
001C
001C
001C
0038
7FF8
7FF0
7FC0
ENDCHAR
STARTCHAR 00FE
ENCODING 254
SWIDTH 456 0
DWIDTH 19 0
BBX 14 40 3 -8
BITMAP
E000
E000
E000
E000
E000
E000
E000
E000
E000
E000
E7E0
EFF0
FFF8
F038
E038
E018
E01C
E01C
E01C
E01C
E01C
E01C
E01C
E01C
E01C
E01C
E01C
E038
F038
FFF8
EFF0
E7E0
E000
E000
E000
E000
E000
E000
E000
E000
ENDCHAR
STARTCHAR 00FF
ENCODING 255
SWIDTH 456 0
DWIDTH 19 0
BBX 14 39 2 -8
BITMAP
3838
3838
3838
0000
0000
0000
0000
0000
0000
E01C
E01C
E01C
E01C
E01C
E01C
E01C
E01C
E01C
E01C
E01C
E01C
E01C
E01C
E01C
701C
701C
701C
703C
7FFC
3FDC
1F9C
001C
001C
001C
001C
0038
7FF8
7FF0
7FC0
ENDCHAR
STARTCHAR 0100
ENCODING 256
SWIDTH 504 0
DWIDTH 21 0
BBX 19 37 1 0
BITMAP
07F800
07F800
07F800
000000
000000
000000
000000
000000
01E000
01F000
01F000
03F000
03F000
03B800
03B800
073800
073C00
071C00
071C00
0E1C00
0E1E00
0E0E00
1E0E00
1C0E00
1C0F00
1C0700
3FFF00
3FFF00
3FFF80
380380
700380
700380
7003C0
7001C0
E001C0
E001C0
E001E0
ENDCHAR
STARTCHAR 0101
ENCODING 257
SWIDTH 432 0
DWIDTH 18 0
BBX 14 32 1 0
BITMAP
0FF0
0FF0
0FF0
0000
0000
0000
0000
0000
0000
0000
3FE0
7FF8
7FF8
003C
001C
001C
001C
001C
001C
07FC
3FFC
7FFC
701C
701C
E01C
E01C
E01C
601C
703C
7FFC
3FDC
1F8C
ENDCHAR
STARTCHAR 0102
ENCODING 258
SWIDTH 504 0
DWIDTH 21 0
BBX 19 37 1 0
BITMAP
060C00
060C00
060C00
061C00
07F800
01F000
000000
000000
01E000
01F000
01F000
03F000
03F000
03B800
03B800
073800
073C00
071C00
071C00
0E1C00
0E1E00
0E0E00
1E0E00
1C0E00
1C0F00
1C0700
3FFF00
3FFF00
3FFF80
380380
700380
700380
7003C0
7001C0
E001C0
E001C0
E001E0
ENDCHAR
STARTCHAR 0103
ENCODING 259
SWIDTH 432 0
DWIDTH 18 0
BBX 14 32 1 0
BITMAP
1838
1830
1830
1C30
0FF0
07E0
0000
0000
0000
0000
3FE0
7FF8
7FF8
003C
001C
001C
001C
001C
001C
07FC
3FFC
7FFC
701C
701C
E01C
E01C
E01C
601C
703C
7FFC
3FDC
1F8C
ENDCHAR
STARTCHAR 0104
ENCODING 260
SWIDTH 504 0
DWIDTH 21 0
BBX 19 37 1 -8
BITMAP
01E000
01F000
01F000
03F000
03F000
03B800
03B800
073800
073C00
071C00
061C00
0E1C00
0E1E00
0E0E00
1C0E00
1C0E00
1C0F00
1C0700
3FFF00
3FFF00
3FFF80
380380
700380
700380
7001C0
7001C0
E001C0
E001C0
E001E0
0001C0
000380
000300
000700
000700
0007C0
0007C0
0003C0
ENDCHAR
STARTCHAR 0105
ENCODING 261
SWIDTH 432 0
DWIDTH 18 0
BBX 14 30 1 -8
BITMAP
3FE0
7FF8
7FF8
003C
001C
001C
001C
001C
001C
07FC
3FFC
7FFC
701C
701C
E01C
E01C
E01C
601C
703C
7FFC
3FCC
1F8C
0018
0038
0030
0070
0070
007C
003C
001C
ENDCHAR
STARTCHAR 0106
ENCODING 262
SWIDTH 408 0
DWIDTH 17 0
BBX 13 37 2 0
BITMAP
01C0
01C0
0380
0380
0700
0600
0000
0000
07F8
1FF8
3FF8
7800
7000
7000
7000
F000
F000
E000
E000
E000
E000
E000
E000
E000
E000
E000
E000
E000
F000
F000
7000
7000
7000
7800
3FF8
1FF8
07F8
ENDCHAR
STARTCHAR 0107
ENCODING 263
SWIDTH 360 0
DWIDTH 15 0
BBX 11 32 2 0
BITMAP
0380
0380
0700
0700
0E00
0C00
0000
0000
0000
0000
1FE0
3FE0
7FE0
7000
F000
E000
E000
E000
E000
E000
E000
E000
E000
E000
E000
E000
E000
F000
7000
7FE0
3FE0
1FE0
ENDCHAR
STARTCHAR 0108
ENCODING 264
SWIDTH 408 0
DWIDTH 17 0
BBX 13 37 2 0
BITMAP
0F00
0F80
1D80
18C0
30E0
7060
0000
0000
07F8
1FF8
3FF8
7800
7000
7000
7000
F000
F000
E000
E000
E000
E000
E000
E000
E000
E000
E000
E000
E000
F000
F000
7000
7000
7000
7800
3FF8
1FF8
07F8
ENDCHAR
STARTCHAR 0109
ENCODING 265
SWIDTH 360 0
DWIDTH 15 0
BBX 11 32 2 0
BITMAP
1E00
1F00
3B00
3380
7180
E0C0
0000
0000
0000
0000
1FE0
3FE0
7FE0
7000
F000
E000
E000
E000
E000
E000
E000
E000
E000
E000
E000
E000
E000
F000
7000
7FE0
3FE0
1FE0
ENDCHAR
STARTCHAR 010A
ENCODING 266
SWIDTH 408 0
DWIDTH 17 0
BBX 13 36 2 0
BITMAP
0700
0700
0700
0000
0000
0000
0000
07F8
1FF8
3FF8
7800
7000
7000
7000
F000
F000
E000
E000
E000
E000
E000
E000
E000
E000
E000
E000
E000
F000
F000
7000
7000
7000
7800
3FF8
1FF8
07F8
ENDCHAR
STARTCHAR 010B
ENCODING 267
SWIDTH 360 0
DWIDTH 15 0
BBX 11 31 2 0
BITMAP
0E00
0E00
0E00
0000
0000
0000
0000
0000
0000
1FE0
3FE0
7FE0
7000
F000
E000
E000
E000
E000
E000
E000
E000
E000
E000
E000
E000
E000
F000
7000
7FE0
3FE0
1FE0
ENDCHAR
STARTCHAR 010C
ENCODING 268
SWIDTH 408 0
DWIDTH 17 0
BBX 13 37 2 0
BITMAP
7060
38C0
19C0
1D80
0F80
0700
0000
0000
07F8
1FF8
3FF8
7800
7000
7000
7000
F000
F000
E000
E000
E000
E000
E000
E000
E000
E000
E000
E000
E000
F000
F000
7000
7000
7000
7800
3FF8
1FF8
07F8
ENDCHAR
STARTCHAR 010D
ENCODING 269
SWIDTH 360 0
DWIDTH 15 0
BBX 11 32 2 0
BITMAP
E0C0
7180
3380
3B00
1F00
1E00
0000
0000
0000
0000
1FE0
3FE0
7FE0
7000
F000
E000
E000
E000
E000
E000
E000
E000
E000
E000
E000
E000
E000
F000
7000
7FE0
3FE0
1FE0
ENDCHAR
STARTCHAR 010E
ENCODING 270
SWIDTH 504 0
DWIDTH 21 0
BBX 16 37 3 0
BITMAP
1830
1C60
0CE0
0EC0
07C0
0380
0000
0000
FFE0
FFF8
FFFC
E01E
E00E
E00E
E00E
E00E
E00E
E00E
E00E
E00E
E00E
E00E
E00F
E00E
E00E
E00E
E00E
E00E
E00E
E00E
E00E
E00E
E00E
E01E
FFFC
FFF8
FFE0
ENDCHAR
STARTCHAR 010F
ENCODING 271
SWIDTH 456 0
DWIDTH 19 0
BBX 19 32 2 0
BITMAP
001C00
001C00
001C00
001CE0
001CE0
001CE0
001CE0
001CE0
001CE0
001CC0
1F9CC0
3FDCC0
7FFDC0
703C00
E03C00
E01C00
E01C00
E01C00
E01C00
E01C00
E01C00
E01C00
E01C00
E01C00
E01C00
E01C00
E01C00
E03C00
703C00
7FFC00
3FDC00
1F9C00
ENDCHAR
STARTCHAR 0110
ENCODING 272
SWIDTH 504 0
DWIDTH 21 0
BBX 19 29 0 0
BITMAP
1FFC00
1FFF00
1FFF80
1C03C0
1C01C0
1C01C0
1C01C0
1C01C0
1C01C0
1C01C0
1C01C0
1C01C0
1C01C0
FFC1C0
FFC1E0
FFC1C0
1C01C0
1C01C0
1C01C0
1C01C0
1C01C0
1C01C0
1C01C0
1C01C0
1C01C0
1C03C0
1FFF80
1FFF00
1FFC00
ENDCHAR
STARTCHAR 0111
ENCODING 273
SWIDTH 456 0
DWIDTH 19 0
BBX 16 32 2 0
BITMAP
001C
001C
001C
03FF
03FF
03FF
001C
001C
001C
001C
1F9C
3FDC
7FFC
703C
E03C
E01C
E01C
E01C
E01C
E01C
E01C
E01C
E01C
E01C
E01C
E01C
E01C
E03C
703C
7FFC
3FDC
1F9C
ENDCHAR
STARTCHAR 0112
ENCODING 274
SWIDTH 432 0
DWIDTH 18 0
BBX 13 37 3 0
BITMAP
1FE0
1FE0
1FE0
0000
0000
0000
0000
0000
FFF8
FFF8
FFF8
E000
E000
E000
E000
E000
E000
E000
E000
E000
E000
FFF0
FFF0
FFF0
E000
E000
E000
E000
E000
E000
E000
E000
E000
E000
FFF8
FFF8
FFF8
ENDCHAR
STARTCHAR 0113
ENCODING 275
SWIDTH 432 0
DWIDTH 18 0
BBX 14 32 2 0
BITMAP
1FE0
1FE0
1FE0
0000
0000
0000
0000
0000
0000
0000
1FE0
3FF0
7FF8
7038
E01C
E01C
E01C
E01C
E01C
FFFC
FFFC
FFFC
E000
E000
E000
E000
E000
F000
7000
7FF8
3FF8
1FF8
ENDCHAR
STARTCHAR 0114
ENCODING 276
SWIDTH 432 0
DWIDTH 18 0
BBX 13 37 3 0
BITMAP
3060
3060
3060
38E0
1FC0
0F80
0000
0000
FFF8
FFF8
FFF8
E000
E000
E000
E000
E000
E000
E000
E000
E000
E000
FFF0
FFF0
FFF0
E000
E000
E000
E000
E000
E000
E000
E000
E000
E000
FFF8
FFF8
FFF8
ENDCHAR
STARTCHAR 0115
ENCODING 277
SWIDTH 432 0
DWIDTH 18 0
BBX 14 32 2 0
BITMAP
3070
3060
3060
3860
1FE0
0FC0
0000
0000
0000
0000
1FE0
3FF0
7FF8
7038
E01C
E01C
E01C
E01C
E01C
FFFC
FFFC
FFFC
E000
E000
E000
E000
E000
F000
7000
7FF8
3FF8
1FF8
ENDCHAR
STARTCHAR 0116
ENCODING 278
SWIDTH 432 0
DWIDTH 18 0
BBX 13 36 3 0
BITMAP
0700
0700
0700
0000
0000
0000
0000
FFF8
FFF8
FFF8
E000
E000
E000
E000
E000
E000
E000
E000
E000
E000
FFF0
FFF0
FFF0
E000
E000
E000
E000
E000
E000
E000
E000
E000
E000
FFF8
FFF8
FFF8
ENDCHAR
STARTCHAR 0117
ENCODING 279
SWIDTH 432 0
DWIDTH 18 0
BBX 14 31 2 0
BITMAP
0700
0700
0700
0000
0000
0000
0000
0000
0000
1FE0
3FF0
7FF8
7038
E01C
E01C
E01C
E01C
E01C
FFFC
FFFC
FFFC
E000
E000
E000
E000
E000
F000
7000
7FF8
3FF8
1FF8
ENDCHAR
STARTCHAR 0118
ENCODING 280
SWIDTH 432 0
DWIDTH 18 0
BBX 13 37 3 -8
BITMAP
FFF8
FFF8
FFF8
E000
E000
E000
E000
E000
E000
E000
E000
E000
FFF0
FFF0
FFF0
E000
E000
E000
E000
E000
E000
E000
E000
E000
E000
E000
FFF8
FFF8
FFF8
0038
0070
0060
00E0
00E0
00F8
00F8
0078
ENDCHAR
STARTCHAR 0119
ENCODING 281
SWIDTH 432 0
DWIDTH 18 0
BBX 14 30 2 -8
BITMAP
1FE0
3FF0
7FF8
7038
E01C
E01C
E01C
E01C
E01C
FFFC
FFFC
FFFC
E000
E000
E000
E000
E000
F000
7000
7FF8
3FF8
1FF8
0030
0060
00E0
00C0
00C0
00F8
00F8
0078
ENDCHAR
STARTCHAR 011A
ENCODING 282
SWIDTH 432 0
DWIDTH 18 0
BBX 13 37 3 0
BITMAP
3060
38E0
1CC0
0DC0
0F80
0700
0000
0000
FFF8
FFF8
FFF8
E000
E000
E000
E000
E000
E000
E000
E000
E000
E000
FFF0
FFF0
FFF0
E000
E000
E000
E000
E000
E000
E000
E000
E000
E000
FFF8
FFF8
FFF8
ENDCHAR
STARTCHAR 011B
ENCODING 283
SWIDTH 432 0
DWIDTH 18 0
BBX 14 32 2 0
BITMAP
3870
1860
1CC0
0DC0
0F80
0780
0000
0000
0000
0000
1FE0
3FF0
7FF8
7038
E01C
E01C
E01C
E01C
E01C
FFFC
FFFC
FFFC
E000
E000
E000
E000
E000
F000
7000
7FF8
3FF8
1FF8
ENDCHAR
STARTCHAR 011C
ENCODING 284
SWIDTH 480 0
DWIDTH 20 0
BBX 16 37 2 0
BITMAP
03C0
03E0
0760
0E70
0C30
1C18
0000
0000
07FE
1FFF
3FFF
7800
7000
7000
7000
F000
F000
F000
E000
E000
E000
E0FF
E0FF
E0FF
E007
E007
E007
E007
F007
F007
7007
7007
7007
7807
3FFF
1FFF
07FC
ENDCHAR
STARTCHAR 011D
ENCODING 285
SWIDTH 456 0
DWIDTH 19 0
BBX 14 40 2 -8
BITMAP
0780
07C0
0EC0
0CE0
1C60
1830
0000
0000
0000
0000
1F9C
3FDC
7FFC
703C
E03C
E01C
E01C
E01C
E01C
E01C
E01C
E01C
E01C
E01C
E01C
E01C
E01C
E03C
703C
7FFC
3FDC
1F9C
001C
001C
001C
001C
0038
7FF8
7FF0
7FC0
ENDCHAR
STARTCHAR 011E
ENCODING 286
SWIDTH 480 0
DWIDTH 20 0
BBX 16 37 2 0
BITMAP
1818
1818
1C38
0C30
0FF0
07E0
0000
0000
07FE
1FFF
3FFF
7800
7000
7000
7000
F000
F000
F000
E000
E000
E000
E0FF
E0FF
E0FF
E007
E007
E007
E007
F007
F007
7007
7007
7007
7807
3FFF
1FFF
07FC
ENDCHAR
STARTCHAR 011F
ENCODING 287
SWIDTH 456 0
DWIDTH 19 0
BBX 14 40 2 -8
BITMAP
1830
1830
1830
1870
1FE0
07C0
0000
0000
0000
0000
1F9C
3FDC
7FFC
703C
E03C
E01C
E01C
E01C
E01C
E01C
E01C
E01C
E01C
E01C
E01C
E01C
E01C
E03C
703C
7FFC
3FDC
1F9C
001C
001C
001C
001C
0038
7FF8
7FF0
7FC0
ENDCHAR
STARTCHAR 0120
ENCODING 288
SWIDTH 480 0
DWIDTH 20 0
BBX 16 36 2 0
BITMAP
0180
0180
0180
0000
0000
0000
0000
07FE
1FFF
3FFF
7800
7000
7000
7000
F000
F000
F000
E000
E000
E000
E0FF
E0FF
E0FF
E007
E007
E007
E007
F007
F007
7007
7007
7007
7807
3FFF
1FFF
07FC
ENDCHAR
STARTCHAR 0121
ENCODING 289
SWIDTH 456 0
DWIDTH 19 0
BBX 14 39 2 -8
BITMAP
0380
0380
0380
0000
0000
0000
0000
0000
0000
1F9C
3FDC
7FFC
703C
E03C
E01C
E01C
E01C
E01C
E01C
E01C
E01C
E01C
E01C
E01C
E01C
E01C
E03C
703C
7FFC
3FDC
1F9C
001C
001C
001C
001C
0038
7FF8
7FF0
7FC0
ENDCHAR
STARTCHAR 0122
ENCODING 290
SWIDTH 480 0
DWIDTH 20 0
BBX 16 39 2 -10
BITMAP
07FE
1FFF
3FFF
7800
7000
7000
7000
F000
F000
F000
E000
E000
E000
E0FF
E0FF
E0FF
E007
E007
E007
E007
F007
F007
7007
7007
7007
7807
3FFF
1FFF
07FC
0000
0000
01C0
01C0
01C0
01C0
00C0
00C0
00C0
0380
ENDCHAR
STARTCHAR 0123
ENCODING 291
SWIDTH 456 0
DWIDTH 19 0
BBX 14 42 2 -8
BITMAP
01C0
0300
0300
0300
0380
0380
0380
0380
0000
0000
0000
0000
1F9C
3FDC
7FFC
703C
E03C
E01C
E01C
E01C
E01C
E01C
E01C
E01C
E01C
E01C
E01C
E01C
E01C
E03C
703C
7FFC
3FDC
1F9C
001C
001C
001C
001C
0038
7FF8
7FF0
7FC0
ENDCHAR
STARTCHAR 0124
ENCODING 292
SWIDTH 528 0
DWIDTH 22 0
BBX 16 37 3 0
BITMAP
03C0
07C0
0660
0E70
0C30
1818
0000
0000
E007
E007
E007
E007
E007
E007
E007
E007
E007
E007
E007
E007
E007
FFFF
FFFF
FFFF
E007
E007
E007
E007
E007
E007
E007
E007
E007
E007
E007
E007
E007
ENDCHAR
STARTCHAR 0125
ENCODING 293
SWIDTH 456 0
DWIDTH 19 0
BBX 17 39 -1 0
BITMAP
1E0000
1F0000
3B0000
738000
618000
E1C000
000000
0E0000
0E0000
0E0000
0E0000
0E0000
0E0000
0E0000
0E0000
0E0000
0E0000
0E7E00
0EFF00
0FFF80
0F0380
0E0380
0E0380
0E0380
0E0380
0E0380
0E0380
0E0380
0E0380
0E0380
0E0380
0E0380
0E0380
0E0380
0E0380
0E0380
0E0380
0E0380
0E0380
ENDCHAR
STARTCHAR 0126
ENCODING 294
SWIDTH 528 0
DWIDTH 22 0
BBX 16 29 3 0
BITMAP
E007
E007
E007
E007
E007
E007
FFFF
FFFF
FFFF
E007
E007
E007
E007
E007
FFFF
FFFF
FFFF
E007
E007
E007
E007
E007
E007
E007
E007
E007
E007
E007
E007
ENDCHAR
STARTCHAR 0127
ENCODING 295
SWIDTH 456 0
DWIDTH 19 0
BBX 16 32 0 0
BITMAP
1C00
1C00
1C00
FFC0
FFC0
FFC0
1C00
1C00
1C00
1C00
1CFC
1DFE
1FFF
1E07
1C07
1C07
1C07
1C07
1C07
1C07
1C07
1C07
1C07
1C07
1C07
1C07
1C07
1C07
1C07
1C07
1C07
1C07
ENDCHAR
STARTCHAR 0128
ENCODING 296
SWIDTH 216 0
DWIDTH 9 0
BBX 11 37 -1 0
BITMAP
2020
FC60
FFE0
C7E0
C080
0000
0000
0000
0E00
0E00
0E00
0E00
0E00
0E00
0E00
0E00
0E00
0E00
0E00
0E00
0E00
0E00
0E00
0E00
0E00
0E00
0E00
0E00
0E00
0E00
0E00
0E00
0E00
0E00
0E00
0E00
0E00
ENDCHAR
STARTCHAR 0129
ENCODING 297
SWIDTH 192 0
DWIDTH 8 0
BBX 12 32 -2 0
BITMAP
0030
7C30
FFF0
FFF0
C3E0
0000
0000
0000
0000
0000
0700
0700
0700
0700
0700
0700
0700
0700
0700
0700
0700
0700
0700
0700
0700
0700
0700
0700
0700
0700
0700
0700
ENDCHAR
STARTCHAR 012A
ENCODING 298
SWIDTH 216 0
DWIDTH 9 0
BBX 9 37 0 0
BITMAP
FF80
FF80
FF80
0000
0000
0000
0000
0000
1C00
1C00
1C00
1C00
1C00
1C00
1C00
1C00
1C00
1C00
1C00
1C00
1C00
1C00
1C00
1C00
1C00
1C00
1C00
1C00
1C00
1C00
1C00
1C00
1C00
1C00
1C00
1C00
1C00
ENDCHAR
STARTCHAR 012B
ENCODING 299
SWIDTH 192 0
DWIDTH 8 0
BBX 8 32 0 0
BITMAP
FF
FF
FF
00
00
00
00
00
00
00
1C
1C
1C
1C
1C
1C
1C
1C
1C
1C
1C
1C
1C
1C
1C
1C
1C
1C
1C
1C
1C
1C
ENDCHAR
STARTCHAR 012C
ENCODING 300
SWIDTH 216 0
DWIDTH 9 0
BBX 9 37 0 0
BITMAP
C180
C180
C180
E380
7F00
3E00
0000
0000
1C00
1C00
1C00
1C00
1C00
1C00
1C00
1C00
1C00
1C00
1C00
1C00
1C00
1C00
1C00
1C00
1C00
1C00
1C00
1C00
1C00
1C00
1C00
1C00
1C00
1C00
1C00
1C00
1C00
ENDCHAR
STARTCHAR 012D
ENCODING 301
SWIDTH 192 0
DWIDTH 8 0
BBX 10 32 -1 0
BITMAP
C0C0
C0C0
E1C0
6180
7F80
3F00
0000
0000
0000
0000
0E00
0E00
0E00
0E00
0E00
0E00
0E00
0E00
0E00
0E00
0E00
0E00
0E00
0E00
0E00
0E00
0E00
0E00
0E00
0E00
0E00
0E00
ENDCHAR
STARTCHAR 012E
ENCODING 302
SWIDTH 216 0
DWIDTH 9 0
BBX 5 37 1 -8
BITMAP
38
38
38
38
38
38
38
38
38
38
38
38
38
38
38
38
38
38
38
38
38
38
38
38
38
38
38
38
38
38
70
60
E0
E0
F8
F8
78
ENDCHAR
STARTCHAR 012F
ENCODING 303
SWIDTH 192 0
DWIDTH 8 0
BBX 6 39 0 -8
BITMAP
1C
1C
1C
00
00
00
00
00
00
1C
1C
1C
1C
1C
1C
1C
1C
1C
1C
1C
1C
1C
1C
1C
1C
1C
1C
1C
1C
1C
1C
18
30
60
60
E0
FC
7C
3C
ENDCHAR
STARTCHAR 0130
ENCODING 304
SWIDTH 216 0
DWIDTH 9 0
BBX 3 36 3 0
BITMAP
E0
E0
E0
00
00
00
00
E0
E0
E0
E0
E0
E0
E0
E0
E0
E0
E0
E0
E0
E0
E0
E0
E0
E0
E0
E0
E0
E0
E0
E0
E0
E0
E0
E0
E0
ENDCHAR
STARTCHAR 0131
ENCODING 305
SWIDTH 192 0
DWIDTH 8 0
BBX 3 22 3 0
BITMAP
E0
E0
E0
E0
E0
E0
E0
E0
E0
E0
E0
E0
E0
E0
E0
E0
E0
E0
E0
E0
E0
E0
ENDCHAR
STARTCHAR 0132
ENCODING 306
SWIDTH 480 0
DWIDTH 20 0
BBX 14 29 3 0
BITMAP
E01C
E01C
E01C
E01C
E01C
E01C
E01C
E01C
E01C
E01C
E01C
E01C
E01C
E01C
E01C
E01C
E01C
E01C
E01C
E01C
E01C
E01C
E01C
E01C
E01C
E03C
E1F8
E1F8
E1E0
ENDCHAR
STARTCHAR 0133
ENCODING 307
SWIDTH 384 0
DWIDTH 16 0
BBX 11 40 3 -8
BITMAP
E0E0
E0E0
E0E0
E0E0
0000
0000
0000
0000
0000
0000
E0E0
E0E0
E0E0
E0E0
E0E0
E0E0
E0E0
E0E0
E0E0
E0E0
E0E0
E0E0
E0E0
E0E0
E0E0
E0E0
E0E0
E0E0
E0E0
E0E0
E0E0
E0E0
00E0
00E0
00E0
00E0
00E0
07C0
07C0
0780
ENDCHAR
STARTCHAR 0134
ENCODING 308
SWIDTH 240 0
DWIDTH 10 0
BBX 10 37 1 0
BITMAP
1E00
1F00
3B00
7380
6180
E0C0
0000
0000
0E00
0E00
0E00
0E00
0E00
0E00
0E00
0E00
0E00
0E00
0E00
0E00
0E00
0E00
0E00
0E00
0E00
0E00
0E00
0E00
0E00
1E00
0E00
1E00
1E00
1C00
FC00
FC00
F000
ENDCHAR
STARTCHAR 0135
ENCODING 309
SWIDTH 192 0
DWIDTH 8 0
BBX 10 40 -1 -8
BITMAP
1E00
1F00
3B00
7380
6180
E1C0
0000
0000
0000
0000
0E00
0E00
0E00
0E00
0E00
0E00
0E00
0E00
0E00
0E00
0E00
0E00
0E00
0E00
0E00
0E00
0E00
0E00
0E00
0E00
0E00
0E00
0E00
0E00
0E00
0E00
1C00
7C00
7C00
7800
ENDCHAR
STARTCHAR 0136
ENCODING 310
SWIDTH 480 0
DWIDTH 20 0
BBX 16 39 3 -10
BITMAP
E007
E00F
E00E
E01E
E01C
E038
E038
E070
E070
E0E0
E0E0
E1C0
E1C0
FF80
FF80
FFC0
E1C0
E1E0
E0E0
E0F0
E070
E078
E038
E03C
E01C
E01E
E00E
E00F
E007
0000
0000
0380
0380
0380
0380
0180
0180
0180
0700
ENDCHAR
STARTCHAR 0137
ENCODING 311
SWIDTH 408 0
DWIDTH 17 0
BBX 13 42 3 -10
BITMAP
E000
E000
E000
E000
E000
E000
E000
E000
E000
E000
E038
E070
E070
E0E0
E0E0
E1C0
E1C0
E380
E380
E700
FF00
FE00
FF00
E780
E380
E3C0
E1C0
E1E0
E0E0
E070
E070
E038
0000
0000
0F00
0F00
0F00
0F00
0200
0200
0600
1E00
ENDCHAR
STARTCHAR 0138
ENCODING 312
SWIDTH 408 0
DWIDTH 17 0
BBX 13 22 3 0
BITMAP
E038
E070
E070
E0E0
E0E0
E1C0
E1C0
E380
E380
E700
FF00
FE00
FF00
E780
E380
E3C0
E1C0
E1E0
E0E0
E070
E070
E038
ENDCHAR
STARTCHAR 0139
ENCODING 313
SWIDTH 384 0
DWIDTH 16 0
BBX 12 37 3 0
BITMAP
1C00
3800
3800
3000
7000
6000
0000
0000
E000
E000
E000
E000
E000
E000
E000
E000
E000
E000
E000
E000
E000
E000
E000
E000
E000
E000
E000
E000
E000
E000
E000
E000
E000
E000
FFF0
FFF0
FFF0
ENDCHAR
STARTCHAR 013A
ENCODING 314
SWIDTH 192 0
DWIDTH 8 0
BBX 5 39 3 0
BITMAP
38
70
70
60
E0
C0
00
E0
E0
E0
E0
E0
E0
E0
E0
E0
E0
E0
E0
E0
E0
E0
E0
E0
E0
E0
E0
E0
E0
E0
E0
E0
E0
E0
E0
E0
E0
E0
E0
ENDCHAR
STARTCHAR 013B
ENCODING 315
SWIDTH 384 0
DWIDTH 16 0
BBX 12 39 3 -10
BITMAP
E000
E000
E000
E000
E000
E000
E000
E000
E000
E000
E000
E000
E000
E000
E000
E000
E000
E000
E000
E000
E000
E000
E000
E000
E000
E000
FFF0
FFF0
FFF0
0000
0000
0E00
0E00
0E00
0E00
0600
0600
0600
1C00
ENDCHAR
STARTCHAR 013C
ENCODING 316
SWIDTH 192 0
DWIDTH 8 0
BBX 4 42 2 -10
BITMAP
70
70
70
70
70
70
70
70
70
70
70
70
70
70
70
70
70
70
70
70
70
70
70
70
70
70
70
70
70
70
70
70
00
00
70
70
70
70
30
30
30
E0
ENDCHAR
STARTCHAR 013D
ENCODING 317
SWIDTH 384 0
DWIDTH 16 0
BBX 12 30 3 0
BITMAP
0070
E070
E070
E070
E060
E0E0
E0E0
E0E0
E0E0
E0C0
E000
E000
E000
E000
E000
E000
E000
E000
E000
E000
E000
E000
E000
E000
E000
E000
E000
FFF0
FFF0
FFF0
ENDCHAR
STARTCHAR 013E
ENCODING 318
SWIDTH 216 0
DWIDTH 9 0
BBX 7 32 3 0
BITMAP
E0
E0
E0
EE
EE
EE
EE
EE
EE
EE
EE
EC
EC
E0
E0
E0
E0
E0
E0
E0
E0
E0
E0
E0
E0
E0
E0
E0
E0
E0
E0
E0
ENDCHAR
STARTCHAR 013F
ENCODING 319
SWIDTH 384 0
DWIDTH 16 0
BBX 12 29 3 0
BITMAP
E000
E000
E000
E000
E000
E000
E000
E000
E000
E000
E000
E0F0
E0F0
E0F0
E0F0
E000
E000
E000
E000
E000
E000
E000
E000
E000
E000
E000
FFF0
FFF0
FFF0
ENDCHAR
STARTCHAR 0140
ENCODING 320
SWIDTH 240 0
DWIDTH 10 0
BBX 8 32 3 0
BITMAP
E0
E0
E0
E0
E0
E0
E0
E0
E0
E0
E0
E0
E0
E0
E0
E0
E0
E7
E7
E7
E7
E0
E0
E0
E0
E0
E0
E0
E0
E0
E0
E0
ENDCHAR
STARTCHAR 0141
ENCODING 321
SWIDTH 384 0
DWIDTH 16 0
BBX 14 29 1 0
BITMAP
3800
3800
3800
3800
3800
3800
3800
3800
3800
3800
3800
3820
38E0
3FE0
3F80
FE00
F800
B800
3800
3800
3800
3800
3800
3800
3800
3800
3FFC
3FFC
3FFC
ENDCHAR
STARTCHAR 0142
ENCODING 322
SWIDTH 192 0
DWIDTH 8 0
BBX 7 32 1 0
BITMAP
38
38
38
38
38
38
38
38
38
38
38
38
38
38
3A
3E
FE
F8
F8
38
38
38
38
38
38
38
38
38
38
38
38
38
ENDCHAR
STARTCHAR 0143
ENCODING 323
SWIDTH 528 0
DWIDTH 22 0
BBX 16 37 3 0
BITMAP
0070
00E0
00E0
00C0
01C0
0180
0000
0000
E007
F007
F007
F807
F807
FC07
FC07
FE07
EE07
EE07
E707
E707
E387
E387
E3C7
E1C7
E1E7
E0E7
E0E7
E077
E077
E03F
E03F
E01F
E01F
E01F
E00F
E00F
E007
ENDCHAR
STARTCHAR 0144
ENCODING 324
SWIDTH 456 0
DWIDTH 19 0
BBX 13 32 3 0
BITMAP
01C0
01C0
0380
0380
0300
0700
0000
0000
0000
0000
C7E0
CFF0
DFF8
F038
E038
E038
E038
E038
E038
E038
E038
E038
E038
E038
E038
E038
E038
E038
E038
E038
E038
E038
ENDCHAR
STARTCHAR 0145
ENCODING 325
SWIDTH 528 0
DWIDTH 22 0
BBX 16 39 3 -10
BITMAP
E007
F007
F007
F807
F807
FC07
FC07
FE07
EE07
EE07
E707
E707
E387
E387
E3C7
E1C7
E1E7
E0E7
E0E7
E077
E077
E03F
E03F
E01F
E01F
E01F
E00F
E00F
E007
0000
0000
01C0
01C0
01C0
01C0
00C0
00C0
00C0
0380
ENDCHAR
STARTCHAR 0146
ENCODING 326
SWIDTH 456 0
DWIDTH 19 0
BBX 13 32 3 -10
BITMAP
C7E0
CFF0
DFF8
F038
E038
E038
E038
E038
E038
E038
E038
E038
E038
E038
E038
E038
E038
E038
E038
E038
E038
E038
0000
0000
0700
0700
0700
0700
0300
0300
0300
0E00
ENDCHAR
STARTCHAR 0147
ENCODING 327
SWIDTH 528 0
DWIDTH 22 0
BBX 16 37 3 0
BITMAP
1C38
0C30
0E60
07E0
03C0
03C0
0000
0000
E007
F007
F007
F807
F807
FC07
FC07
FE07
EE07
EE07
E707
E707
E387
E387
E3C7
E1C7
E1E7
E0E7
E0E7
E077
E077
E03F
E03F
E01F
E01F
E01F
E00F
E00F
E007
ENDCHAR
STARTCHAR 0148
ENCODING 328
SWIDTH 456 0
DWIDTH 19 0
BBX 13 32 3 0
BITMAP
3060
38E0
19C0
1D80
0F80
0700
0000
0000
0000
0000
C7E0
CFF0
DFF8
F038
E038
E038
E038
E038
E038
E038
E038
E038
E038
E038
E038
E038
E038
E038
E038
E038
E038
E038
ENDCHAR
STARTCHAR 0149
ENCODING 329
SWIDTH 504 0
DWIDTH 21 0
BBX 18 32 0 0
BITMAP
700000
700000
700000
300000
300000
300000
300000
E00000
000000
000000
0E3E00
0EFF80
0EFF80
0F83C0
0F01C0
0F01C0
0E01C0
0E01C0
0E01C0
0E01C0
0E01C0
0E01C0
0E01C0
0E01C0
0E01C0
0E01C0
0E01C0
0E01C0
0E01C0
0E01C0
0E01C0
0E01C0
ENDCHAR
STARTCHAR 014A
ENCODING 330
SWIDTH 528 0
DWIDTH 22 0
BBX 16 37 3 -8
BITMAP
E007
F007
F007
F807
F807
FC07
FC07
FE07
EE07
EE07
E707
E707
E387
E387
E1C7
E1C7
E1E7
E0E7
E0E7
E077
E077
E03F
E03F
E01F
E01F
E00F
E00F
E00F
E007
0007
0007
0007
0007
0007
003F
003E
003C
ENDCHAR
STARTCHAR 014B
ENCODING 331
SWIDTH 456 0
DWIDTH 19 0
BBX 13 30 3 -8
BITMAP
C7E0
CFF0
DFF8
F038
E038
E038
E038
E038
E038
E038
E038
E038
E038
E038
E038
E038
E038
E038
E038
E038
E038
E038
0038
0038
0038
0038
0038
00F8
00F8
00F0
ENDCHAR
STARTCHAR 014C
ENCODING 332
SWIDTH 528 0
DWIDTH 22 0
BBX 17 37 2 0
BITMAP
07F800
07F800
07F800
000000
000000
000000
000000
000000
0FF800
3FFE00
3FFF00
780700
700780
700380
F00380
F00380
E00380
E00380
E00380
E00380
E00380
E00380
E00380
E00380
E00380
E00380
E00380
E00380
E00380
F00380
700380
700380
700780
780700
3FFF00
3FFE00
0FF800
ENDCHAR
STARTCHAR 014D
ENCODING 333
SWIDTH 432 0
DWIDTH 18 0
BBX 14 32 2 0
BITMAP
1FE0
1FE0
1FE0
0000
0000
0000
0000
0000
0000
0000
1FE0
3FF8
7FF8
F03C
E01C
E01C
E01C
E01C
E01C
E01C
E01C
E01C
E01C
E01C
E01C
E01C
E01C
E01C
F03C
7FF8
3FF8
1FE0
ENDCHAR
STARTCHAR 014E
ENCODING 334
SWIDTH 528 0
DWIDTH 22 0
BBX 17 37 2 0
BITMAP
0C1800
0C1800
0C1800
0E1800
07F800
03E000
000000
000000
0FF800
3FFE00
3FFF00
780700
700780
700380
F00380
F00380
E00380
E00380
E00380
E00380
E00380
E00380
E00380
E00380
E00380
E00380
E00380
E00380
E00380
F00380
700380
700380
700780
780700
3FFF00
3FFE00
0FF800
ENDCHAR
STARTCHAR 014F
ENCODING 335
SWIDTH 432 0
DWIDTH 18 0
BBX 14 32 2 0
BITMAP
3830
3830
1830
1860
1FE0
0FC0
0000
0000
0000
0000
1FE0
3FF8
7FF8
F03C
E01C
E01C
E01C
E01C
E01C
E01C
E01C
E01C
E01C
E01C
E01C
E01C
E01C
E01C
F03C
7FF8
3FF8
1FE0
ENDCHAR
STARTCHAR 0150
ENCODING 336
SWIDTH 528 0
DWIDTH 22 0
BBX 17 37 2 0
BITMAP
01C600
018E00
038C00
031C00
071800
061800
000000
000000
0FF800
3FFE00
3FFF00
780700
700780
700380
F00380
F00380
E00380
E00380
E00380
E00380
E00380
E00380
E00380
E00380
E00380
E00380
E00380
E00380
E00380
F00380
700380
700380
700780
780700
3FFF00
3FFE00
0FF800
ENDCHAR
STARTCHAR 0151
ENCODING 337
SWIDTH 432 0
DWIDTH 18 0
BBX 14 31 2 0
BITMAP
039C
0718
0638
0E30
0C70
0000
0000
0000
0000
1FE0
3FF8
7FF8
F03C
E01C
E01C
E01C
E01C
E01C
E01C
E01C
E01C
E01C
E01C
E01C
E01C
E01C
E01C
F03C
7FF8
3FF8
1FE0
ENDCHAR
STARTCHAR 0152
ENCODING 338
SWIDTH 744 0
DWIDTH 31 0
BBX 27 29 2 0
BITMAP
0FFFFFE0
3FFFFFE0
3FFF7FE0
78070000
70078000
70038000
F0038000
F0038000
F0038000
E0038000
E0038000
E0038000
E0038000
E003FFC0
E003FFC0
E003FFC0
E0038000
E0038000
E0038000
E0038000
E0038000
F0038000
70038000
70038000
70078000
78070000
3FFF7FE0
3FFFFFE0
0FFFFFE0
ENDCHAR
STARTCHAR 0153
ENCODING 339
SWIDTH 696 0
DWIDTH 29 0
BBX 25 22 2 0
BITMAP
1FE1FC00
3FF3FF00
7FFFFF00
F03E0380
E01E0380
E01E0380
E01C0380
E01C0380
E01C0380
E01FFF80
E01FFF80
E01FFF80
E01C0000
E01C0000
E01C0000
E01C0000
E01E0000
E01E0000
F03F0000
7FFFFF80
3FF3FF80
1FE1FF00
ENDCHAR
STARTCHAR 0154
ENCODING 340
SWIDTH 504 0
DWIDTH 21 0
BBX 16 37 3 0
BITMAP
00E0
00E0
01C0
0180
0380
0300
0000
0000
FFF0
FFFC
FFFC
E01E
E00E
E00E
E00E
E00E
E00E
E00E
E00E
E00E
E00E
E01E
FFFC
FFFC
FFF0
E070
E078
E038
E038
E03C
E01C
E01C
E01C
E00E
E00E
E00E
E00F
ENDCHAR
STARTCHAR 0155
ENCODING 341
SWIDTH 288 0
DWIDTH 12 0
BBX 8 32 3 0
BITMAP
0E
1C
1C
38
38
30
00
00
00
00
C7
CF
DF
D8
F0
E0
E0
E0
E0
E0
E0
E0
E0
E0
E0
E0
E0
E0
E0
E0
E0
E0
ENDCHAR
STARTCHAR 0156
ENCODING 342
SWIDTH 504 0
DWIDTH 21 0
BBX 16 39 3 -10
BITMAP
FFF0
FFFC
FFFC
E01E
E00E
E00E
E00E
E00E
E00E
E00E
E00E
E00E
E00E
E01E
FFFC
FFFC
FFF0
E070
E078
E038
E038
E03C
E01C
E01C
E01C
E00E
E00E
E00E
E00F
0000
0000
0380
0380
0380
0380
0180
0180
0180
0700
ENDCHAR
STARTCHAR 0157
ENCODING 343
SWIDTH 288 0
DWIDTH 12 0
BBX 9 32 2 -10
BITMAP
6380
6780
6F80
6C00
7800
7000
7000
7000
7000
7000
7000
7000
7000
7000
7000
7000
7000
7000
7000
7000
7000
7000
0000
0000
7000
7000
7000
7000
3000
3000
3000
E000
ENDCHAR
STARTCHAR 0158
ENCODING 344
SWIDTH 504 0
DWIDTH 21 0
BBX 16 37 3 0
BITMAP
3830
1C60
0CE0
0EC0
07C0
0380
0000
0000
FFF0
FFFC
FFFC
E01E
E00E
E00E
E00E
E00E
E00E
E00E
E00E
E00E
E00E
E01E
FFFC
FFFC
FFF0
E070
E078
E038
E038
E03C
E01C
E01C
E01C
E00E
E00E
E00E
E00F
ENDCHAR
STARTCHAR 0159
ENCODING 345
SWIDTH 288 0
DWIDTH 12 0
BBX 10 32 1 0
BITMAP
E1C0
6180
7380
3F00
3E00
1E00
0000
0000
0000
0000
31C0
33C0
37C0
3600
3C00
3800
3800
3800
3800
3800
3800
3800
3800
3800
3800
3800
3800
3800
3800
3800
3800
3800
ENDCHAR
STARTCHAR 015A
ENCODING 346
SWIDTH 432 0
DWIDTH 18 0
BBX 15 37 2 0
BITMAP
00E0
00E0
01C0
0180
0380
0300
0000
0000
0FF8
3FFC
7FFC
F000
E000
E000
E000
E000
E000
E000
E000
F000
FF00
7FF0
3FFC
03FC
001C
001E
000E
000E
000E
000E
000E
001E
001C
001C
FFFC
FFF8
FFE0
ENDCHAR
STARTCHAR 015B
ENCODING 347
SWIDTH 384 0
DWIDTH 16 0
BBX 12 32 2 0
BITMAP
01C0
0380
0380
0700
0700
0600
0000
0000
0000
0000
1FE0
7FE0
FFE0
E000
E000
C000
C000
E000
E000
FC00
FFC0
3FE0
00F0
0070
0070
0070
0070
0070
0070
FFF0
FFE0
FF80
ENDCHAR
STARTCHAR 015C
ENCODING 348
SWIDTH 432 0
DWIDTH 18 0
BBX 15 37 2 0
BITMAP
0780
07C0
0EC0
0CE0
1860
3830
0000
0000
0FF8
3FFC
7FFC
F000
E000
E000
E000
E000
E000
E000
E000
F000
FF00
7FF0
3FFC
03FC
001C
001E
000E
000E
000E
000E
000E
001E
001C
001C
FFFC
FFF8
FFE0
ENDCHAR
STARTCHAR 015D
ENCODING 349
SWIDTH 384 0
DWIDTH 16 0
BBX 12 32 2 0
BITMAP
0F00
1F00
1B80
3980
30C0
60E0
0000
0000
0000
0000
1FE0
7FE0
FFE0
E000
E000
C000
C000
E000
E000
FC00
FFC0
3FE0
00F0
0070
0070
0070
0070
0070
0070
FFF0
FFE0
FF80
ENDCHAR
STARTCHAR 015E
ENCODING 350
SWIDTH 432 0
DWIDTH 18 0
BBX 15 37 2 -8
BITMAP
0FF8
3FFC
7FFC
F000
E000
E000
E000
E000
E000
E000
E000
E000
FE00
7FF0
3FF8
03FC
001C
001E
000E
000E
000E
000E
000E
001E
001C
001C
FFFC
FFF8
FFE0
0300
0300
0700
0600
0600
0E00
0E00
0E00
ENDCHAR
STARTCHAR 015F
ENCODING 351
SWIDTH 384 0
DWIDTH 16 0
BBX 12 30 2 -8
BITMAP
1FE0
7FE0
FFE0
E000
E000
C000
C000
E000
E000
F800
FFC0
3FE0
00F0
0070
0070
0070
0070
0070
0070
FFF0
FFE0
FFC0
0E00
0E00
0C00
0C00
1C00
1C00
1C00
3800
ENDCHAR
STARTCHAR 0160
ENCODING 352
SWIDTH 432 0
DWIDTH 18 0
BBX 15 38 2 0
BITMAP
1830
1C70
0CE0
0EC0
07C0
0780
0000
0000
0000
0FF8
3FFC
7FFC
F000
E000
E000
E000
E000
E000
E000
E000
F000
FF00
7FF0
3FFC
03FC
001C
001E
000E
000E
000E
000E
000E
001E
001C
001C
FFFC
FFF8
FFE0
ENDCHAR
STARTCHAR 0161
ENCODING 353
SWIDTH 384 0
DWIDTH 16 0
BBX 12 32 2 0
BITMAP
70E0
30C0
39C0
1F80
0F00
0F00
0000
0000
0000
0000
1FE0
7FE0
FFE0
E000
E000
C000
C000
E000
E000
FC00
FFC0
3FE0
00F0
0070
0070
0070
0070
0070
0070
FFF0
FFE0
FF80
ENDCHAR
STARTCHAR 0162
ENCODING 354
SWIDTH 408 0
DWIDTH 17 0
BBX 16 37 1 -8
BITMAP
FFFF
FFFF
FFFF
0380
0380
0380
0380
0380
0380
0380
0380
0380
0380
0380
0380
0380
0380
0380
0380
0380
0380
0380
0380
0380
0380
0380
0380
0380
0380
0380
0300
0300
0700
0700
0600
0E00
0E00
ENDCHAR
STARTCHAR 0163
ENCODING 355
SWIDTH 264 0
DWIDTH 11 0
BBX 10 36 1 -8
BITMAP
1C00
1C00
1C00
1C00
1C00
1C00
FFC0
FFC0
FFC0
1C00
1C00
1C00
1C00
1C00
1C00
1C00
1C00
1C00
1C00
1C00
1C00
1C00
1C00
1C00
1C00
1C00
1C00
1C00
1800
1800
3800
3800
3000
3000
7000
7000
ENDCHAR
STARTCHAR 0164
ENCODING 356
SWIDTH 408 0
DWIDTH 17 0
BBX 16 37 1 0
BITMAP
1830
1C70
0E60
06E0
07C0
0380
0000
0000
FFFF
FFFF
FFFF
0380
0380
0380
0380
0380
0380
0380
0380
0380
0380
0380
0380
0380
0380
0380
0380
0380
0380
0380
0380
0380
0380
0380
0380
0380
0380
ENDCHAR
STARTCHAR 0165
ENCODING 357
SWIDTH 312 0
DWIDTH 13 0
BBX 14 29 1 0
BITMAP
001C
1C1C
1C1C
1C1C
1C1C
1C1C
1C1C
FFD8
FFD8
FFD8
1C00
1C00
1C00
1C00
1C00
1C00
1C00
1C00
1C00
1C00
1C00
1C00
1C00
1C00
1C00
1C00
1C00
1C00
1C00
ENDCHAR
STARTCHAR 0166
ENCODING 358
SWIDTH 408 0
DWIDTH 17 0
BBX 16 29 1 0
BITMAP
FFFF
FFFF
FFFF
0380
0380
0380
0380
0380
0380
0380
0380
0380
0380
7FFC
7FFC
7FFC
0380
0380
0380
0380
0380
0380
0380
0380
0380
0380
0380
0380
0380
ENDCHAR
STARTCHAR 0167
ENCODING 359
SWIDTH 264 0
DWIDTH 11 0
BBX 10 28 1 0
BITMAP
1C00
1C00
1C00
1C00
1C00
1C00
FFC0
FFC0
FFC0
1C00
1C00
1C00
1C00
1C00
1C00
1C00
FF80
FF80
FF80
1C00
1C00
1C00
1C00
1C00
1C00
1C00
1C00
1C00
ENDCHAR
STARTCHAR 0168
ENCODING 360
SWIDTH 504 0
DWIDTH 21 0
BBX 16 37 3 0
BITMAP
080C
3F08
3FF8
31F8
3030
0000
0000
0000
E007
E007
E007
E007
E007
E007
E007
E007
E007
E007
E007
E007
E007
E007
E007
E007
E007
E007
E007
E007
E00F
E00F
E00E
E00E
E00E
F01E
7FFC
3FFC
0FF0
ENDCHAR
STARTCHAR 0169
ENCODING 361
SWIDTH 456 0
DWIDTH 19 0
BBX 14 32 2 0
BITMAP
0018
3E18
3FF8
3FF8
20F0
0000
0000
0000
0000
0000
E01C
E01C
E01C
E01C
E01C
E01C
E01C
E01C
E01C
E01C
E01C
E01C
E01C
E01C
E01C
701C
701C
701C
703C
7FFC
3FCC
1F8C
ENDCHAR
STARTCHAR 016A
ENCODING 362
SWIDTH 504 0
DWIDTH 21 0
BBX 16 37 3 0
BITMAP
0FF0
0FF0
0FF0
0000
0000
0000
0000
0000
E007
E007
E007
E007
E007
E007
E007
E007
E007
E007
E007
E007
E007
E007
E007
E007
E007
E007
E007
E007
E00F
E00F
E00E
E00E
E00E
F01E
7FFC
3FFC
0FF0
ENDCHAR
STARTCHAR 016B
ENCODING 363
SWIDTH 456 0
DWIDTH 19 0
BBX 14 32 2 0
BITMAP
1FF0
1FF0
1FF0
0000
0000
0000
0000
0000
0000
0000
E01C
E01C
E01C
E01C
E01C
E01C
E01C
E01C
E01C
E01C
E01C
E01C
E01C
E01C
E01C
701C
701C
701C
703C
7FFC
3FCC
1F8C
ENDCHAR
STARTCHAR 016C
ENCODING 364
SWIDTH 504 0
DWIDTH 21 0
BBX 16 37 3 0
BITMAP
1830
1830
1830
1C70
0FF0
07C0
0000
0000
E007
E007
E007
E007
E007
E007
E007
E007
E007
E007
E007
E007
E007
E007
E007
E007
E007
E007
E007
E007
E00F
E00F
E00E
E00E
E00E
F01E
7FFC
3FFC
0FF0
ENDCHAR
STARTCHAR 016D
ENCODING 365
SWIDTH 456 0
DWIDTH 19 0
BBX 14 32 2 0
BITMAP
1830
1830
1830
1870
1FE0
07C0
0000
0000
0000
0000
E01C
E01C
E01C
E01C
E01C
E01C
E01C
E01C
E01C
E01C
E01C
E01C
E01C
E01C
E01C
701C
701C
701C
703C
7FFC
3FCC
1F8C
ENDCHAR
STARTCHAR 016E
ENCODING 366
SWIDTH 504 0
DWIDTH 21 0
BBX 16 38 3 0
BITMAP
0FE0
0E70
1C30
1830
1830
0C30
0FF0
0380
0000
E007
E007
E007
E007
E007
E007
E007
E007
E007
E007
E007
E007
E007
E007
E007
E007
E007
E007
E007
E007
E00F
E00F
E00E
E00E
E00E
F01E
7FFC
3FFC
0FF0
ENDCHAR
STARTCHAR 016F
ENCODING 367
SWIDTH 456 0
DWIDTH 19 0
BBX 14 34 2 0
BITMAP
0FC0
1FE0
1870
1830
1830
1870
1FE0
0FE0
0000
0000
0000
0000
E01C
E01C
E01C
E01C
E01C
E01C
E01C
E01C
E01C
E01C
E01C
E01C
E01C
E01C
E01C
701C
701C
701C
703C
7FFC
3FCC
1F8C
ENDCHAR
STARTCHAR 0170
ENCODING 368
SWIDTH 504 0
DWIDTH 21 0
BBX 16 37 3 0
BITMAP
038C
031C
0718
0638
0E30
0C20
0000
0000
E007
E007
E007
E007
E007
E007
E007
E007
E007
E007
E007
E007
E007
E007
E007
E007
E007
E007
E007
E007
E00F
E00F
E00E
E00E
E00E
F01E
7FFC
3FFC
0FF0
ENDCHAR
STARTCHAR 0171
ENCODING 369
SWIDTH 456 0
DWIDTH 19 0
BBX 14 31 2 0
BITMAP
039C
071C
0618
0630
0C30
0000
0000
0000
0000
E01C
E01C
E01C
E01C
E01C
E01C
E01C
E01C
E01C
E01C
E01C
E01C
E01C
E01C
E01C
701C
701C
701C
703C
7FFC
3FCC
1F8C
ENDCHAR
STARTCHAR 0172
ENCODING 370
SWIDTH 504 0
DWIDTH 21 0
BBX 16 37 3 -8
BITMAP
E007
E007
E007
E007
E007
E007
E007
E007
E007
E007
E007
E007
E007
E007
E007
E007
E007
E007
E007
E007
E00F
E00F
E00E
E00E
E00E
F01E
7FFC
3FF8
0FF0
0060
00C0
00C0
01C0
01C0
01F0
00F0
0070
ENDCHAR
STARTCHAR 0173
ENCODING 371
SWIDTH 456 0
DWIDTH 19 0
BBX 14 30 2 -8
BITMAP
E01C
E01C
E01C
E01C
E01C
E01C
E01C
E01C
E01C
E01C
E01C
E01C
E01C
E01C
E01C
701C
701C
701C
703C
7FEC
3FCC
1F8C
0018
0038
0030
0070
0070
007C
003C
003C
ENDCHAR
STARTCHAR 0174
ENCODING 372
SWIDTH 696 0
DWIDTH 29 0
BBX 27 37 1 0
BITMAP
001E0000
001F0000
003B0000
00318000
0071C000
0060C000
00000000
00000000
E00E00E0
E01F00E0
E01F00E0
E01F00E0
F01F01E0
701F01C0
701B01C0
703B81C0
703B81C0
703B81C0
38318380
38318380
3871C380
3871C380
3871C380
3861C380
1C60C700
1CE0E700
1CE0E700
1CE0E700
1CC0E700
0CC06600
0FC07E00
0FC07E00
0FC07E00
0FC07E00
0F803C00
07803C00
07803C00
ENDCHAR
STARTCHAR 0175
ENCODING 373
SWIDTH 624 0
DWIDTH 26 0
BBX 24 32 1 0
BITMAP
003C00
007C00
006E00
00E600
00C700
018380
000000
000000
000000
000000
E03807
E03C0E
E03C0E
703C0E
707C0E
707C0C
706E1C
306E1C
38661C
38E61C
38E618
38C738
18C738
1CC338
1DC330
1DC330
1D83F0
0D83F0
0F81F0
0F81E0
0F81E0
0701E0
ENDCHAR
STARTCHAR 0176
ENCODING 374
SWIDTH 432 0
DWIDTH 18 0
BBX 18 37 0 0
BITMAP
01E000
01F000
03B000
073800
061800
0C0C00
000000
000000
F001C0
700380
700380
380780
380700
3C0700
1C0E00
1C0E00
0E1C00
0E1C00
0F1C00
073800
073800
03F000
03F000
03F000
01E000
01E000
01E000
01E000
01E000
01E000
01E000
01E000
01E000
01E000
01E000
01E000
01E000
ENDCHAR
STARTCHAR 0177
ENCODING 375
SWIDTH 456 0
DWIDTH 19 0
BBX 14 40 2 -8
BITMAP
0780
07C0
0EC0
0CE0
1C70
1830
0000
0000
0000
0000
E01C
E01C
E01C
E01C
E01C
E01C
E01C
E01C
E01C
E01C
E01C
E01C
E01C
E01C
E01C
701C
701C
701C
703C
7FFC
3FDC
1F9C
001C
001C
001C
001C
0038
7FF8
7FF0
7FC0
ENDCHAR
STARTCHAR 0178
ENCODING 376
SWIDTH 432 0
DWIDTH 18 0
BBX 18 36 0 0
BITMAP
0E1C00
0E1C00
0E1C00
000000
000000
000000
000000
F001C0
700380
700380
380780
380700
3C0700
1C0E00
1C0E00
0E1C00
0E1C00
0F1C00
073800
073800
03F000
03F000
03F000
01E000
01E000
01E000
01E000
01E000
01E000
01E000
01E000
01E000
01E000
01E000
01E000
01E000
ENDCHAR
STARTCHAR 0179
ENCODING 377
SWIDTH 432 0
DWIDTH 18 0
BBX 16 37 1 0
BITMAP
0070
00E0
00E0
01C0
0180
0380
0000
0000
7FFE
7FFE
7FFE
001E
001C
003C
0038
0078
0070
00F0
00E0
01E0
01E0
03C0
03C0
0780
0780
0700
0F00
0E00
1E00
1C00
3C00
3800
7800
7000
FFFF
FFFF
FFFF
ENDCHAR
STARTCHAR 017A
ENCODING 378
SWIDTH 384 0
DWIDTH 16 0
BBX 13 32 1 0
BITMAP
01E0
01C0
01C0
0380
0300
0700
0000
0000
0000
0000
7FF8
7FF8
7FF8
0070
00F0
00E0
01E0
01C0
03C0
0380
0780
0700
0F00
0E00
1E00
1C00
3C00
3800
7000
FFF8
FFF8
FFF8
ENDCHAR
STARTCHAR 017B
ENCODING 379
SWIDTH 432 0
DWIDTH 18 0
BBX 16 36 1 0
BITMAP
0380
0380
0380
0000
0000
0000
0000
7FFE
7FFE
7FFE
001E
001C
003C
0038
0078
0070
00F0
00E0
01E0
01E0
03C0
03C0
0780
0780
0700
0F00
0E00
1E00
1C00
3C00
3800
7800
7000
FFFF
FFFF
FFFF
ENDCHAR
STARTCHAR 017C
ENCODING 380
SWIDTH 384 0
DWIDTH 16 0
BBX 13 31 1 0
BITMAP
0700
0700
0700
0000
0000
0000
0000
0000
0000
7FF8
7FF8
7FF8
0070
00F0
00E0
01E0
01C0
03C0
0380
0780
0700
0F00
0E00
1E00
1C00
3C00
3800
7000
FFF8
FFF8
FFF8
ENDCHAR
STARTCHAR 017D
ENCODING 381
SWIDTH 432 0
DWIDTH 18 0
BBX 16 38 1 0
BITMAP
1C18
0C30
0670
0760
03E0
03C0
0000
0000
0000
7FFE
7FFE
7FFE
001E
001C
003C
0038
0078
0070
00F0
00E0
01E0
01E0
03C0
03C0
0780
0780
0700
0F00
0E00
1E00
1C00
3C00
3800
7800
7000
FFFF
FFFF
FFFF
ENDCHAR
STARTCHAR 017E
ENCODING 382
SWIDTH 384 0
DWIDTH 16 0
BBX 13 32 1 0
BITMAP
3870
1860
1CE0
0FC0
0780
0780
0000
0000
0000
0000
7FF8
7FF8
7FF8
0070
00F0
00E0
01E0
01C0
03C0
0380
0780
0700
0F00
0E00
1E00
1C00
3C00
3800
7000
FFF8
FFF8
FFF8
ENDCHAR
STARTCHAR 017F
ENCODING 383
SWIDTH 264 0
DWIDTH 11 0
BBX 10 32 1 0
BITMAP
07C0
0FC0
1FC0
1C00
1C00
1C00
1C00
1C00
1C00
1C00
FC00
FC00
FC00
1C00
1C00
1C00
1C00
1C00
1C00
1C00
1C00
1C00
1C00
1C00
1C00
1C00
1C00
1C00
1C00
1C00
1C00
1C00
ENDCHAR
STARTCHAR 018F
ENCODING 399
SWIDTH 504 0
DWIDTH 21 0
BBX 17 29 2 0
BITMAP
1FF800
1FFE00
1FFE00
000F00
000700
000780
000380
000380
000380
000380
000380
000380
FFFF80
FFFF80
FFFF80
E00380
E00380
E00380
E00380
E00380
E00380
F00380
700380
700780
700780
780700
3FFF00
3FFE00
0FF800
ENDCHAR
STARTCHAR 0192
ENCODING 402
SWIDTH 336 0
DWIDTH 14 0
BBX 19 40 -4 -8
BITMAP
0003E0
0007C0
000FC0
001E00
001C00
001C00
003800
003800
003800
003800
03FF80
03FF00
03FF00
007000
007000
00E000
00E000
00E000
00E000
00E000
01C000
01C000
01C000
01C000
01C000
038000
038000
038000
038000
038000
070000
070000
070000
070000
0E0000
0E0000
0E0000
FC0000
F80000
F00000
ENDCHAR
STARTCHAR 019D
ENCODING 413
SWIDTH 528 0
DWIDTH 22 0
BBX 19 37 0 -8
BITMAP
1C00E0
1E00E0
1E00E0
1F00E0
1F00E0
1F80E0
1F80E0
1FC0E0
1DC0E0
1DC0E0
1CE0E0
1CE0E0
1C70E0
1C70E0
1C78E0
1C38E0
1C3CE0
1C1CE0
1C1CE0
1C0EE0
1C0EE0
1C07E0
1C07E0
1C03E0
1C03E0
1C03E0
1C01E0
1C01E0
1C00E0
1C0000
1C0000
1C0000
1C0000
1C0000
FC0000
F80000
F00000
ENDCHAR
STARTCHAR 01A0
ENCODING 416
SWIDTH 528 0
DWIDTH 22 0
BBX 19 34 2 0
BITMAP
000060
000060
000060
000060
0000E0
0FFFE0
3FFFC0
3FFF00
780700
700780
700380
F00380
F00380
E00380
E00380
E00380
E00380
E00380
E00380
E00380
E00380
E00380
E00380
E00380
E00380
E00380
F00380
700380
700380
700780
780700
3FFF00
3FFE00
0FF800
ENDCHAR
STARTCHAR 01A1
ENCODING 417
SWIDTH 432 0
DWIDTH 18 0
BBX 17 26 2 0
BITMAP
000380
000380
000380
000380
1FFF00
3FFE00
7FF800
F03C00
E01C00
E01C00
E01C00
E01C00
E01C00
E01C00
E01C00
E01C00
E01C00
E01C00
E01C00
E01C00
E01C00
E01C00
F03C00
7FF800
3FF800
1FE000
ENDCHAR
STARTCHAR 01AF
ENCODING 431
SWIDTH 504 0
DWIDTH 21 0
BBX 19 34 3 0
BITMAP
000060
000060
000060
000060
000060
E007E0
E00780
E00700
E00700
E00700
E00700
E00700
E00700
E00700
E00700
E00700
E00700
E00700
E00700
E00700
E00700
E00700
E00700
E00700
E00700
E00F00
E00F00
E00E00
E00E00
E00E00
F01E00
7FFC00
3FFC00
0FF000
ENDCHAR
STARTCHAR 01B0
ENCODING 432
SWIDTH 456 0
DWIDTH 19 0
BBX 18 26 2 0
BITMAP
0000C0
0000C0
0000C0
0001C0
E01F80
E01F00
E01C00
E01C00
E01C00
E01C00
E01C00
E01C00
E01C00
E01C00
E01C00
E01C00
E01C00
E01C00
E01C00
701C00
701C00
701C00
703C00
7FFC00
3FCC00
1F8C00
ENDCHAR
STARTCHAR 01C4
ENCODING 452
SWIDTH 912 0
DWIDTH 38 0
BBX 34 37 3 0
BITMAP
0000030600
0000038E00
0000018C00
000000D800
000000F800
0000007000
0000000000
0000000000
FFE01FFFC0
FFF81FFFC0
FFFC1FFFC0
E01E0003C0
E00E000780
E00E000780
E00E000F00
E00E000F00
E00E000E00
E00E001E00
E00E001C00
E00E003C00
E00E003800
E00E007800
E00F007000
E00E00F000
E00E00E000
E00E01E000
E00E01C000
E00E03C000
E00E038000
E00E078000
E00E070000
E00E0F0000
E00E0F0000
E01E1E0000
FFFC1FFFC0
FFF81FFFC0
FFE01FFFC0
ENDCHAR
STARTCHAR 01C5
ENCODING 453
SWIDTH 864 0
DWIDTH 36 0
BBX 32 32 3 0
BITMAP
0000060E
0000030C
00000398
FFE001B8
FFF801F0
FFFC00F0
E01E0000
E00E0000
E00E0000
E00E0000
E00E1FFF
E00E1FFF
E00E1FFF
E00E000E
E00E001E
E00E001C
E00E003C
E00F0038
E00E0078
E00E0070
E00E00E0
E00E01E0
E00E01C0
E00E03C0
E00E0380
E00E0780
E00E0700
E00E0F00
E01E0E00
FFFC1FFF
FFF81FFF
FFE01FFF
ENDCHAR
STARTCHAR 01C6
ENCODING 454
SWIDTH 816 0
DWIDTH 34 0
BBX 31 32 2 0
BITMAP
001C0C18
001C0E38
001C0670
001C0760
001C03E0
001C03C0
001C0000
001C0000
001C0000
001C0000
1F9C3FFE
3FDC3FFE
7FFC3FFE
703C001C
E03C003C
E01C0038
E01C0078
E01C0070
E01C00F0
E01C00E0
E01C01C0
E01C03C0
E01C0380
E01C0780
E01C0700
E01C0F00
E01C0E00
E03C1E00
703C1C00
7FFC3FFE
3FDC3FFE
1F9C3FFE
ENDCHAR
STARTCHAR 01C7
ENCODING 455
SWIDTH 624 0
DWIDTH 26 0
BBX 21 29 3 0
BITMAP
E00078
E00078
E00078
E00078
E00078
E00078
E00078
E00078
E00078
E00078
E00078
E00078
E00078
E00078
E00078
E00078
E00078
E00078
E00078
E00070
E00070
E00070
E00070
E00070
E00070
E00070
FFF7F0
FFF7E0
FFF7C0
ENDCHAR
STARTCHAR 01C8
ENCODING 456
SWIDTH 576 0
DWIDTH 24 0
BBX 18 40 3 -8
BITMAP
0001C0
0001C0
0001C0
E001C0
E00000
E00000
E00000
E00000
E00000
E00000
E001C0
E001C0
E001C0
E001C0
E001C0
E001C0
E001C0
E001C0
E001C0
E001C0
E001C0
E001C0
E001C0
E001C0
E001C0
E001C0
E001C0
E001C0
E001C0
FFF1C0
FFF1C0
FFF1C0
0001C0
0001C0
0001C0
0001C0
0001C0
0007C0
0007C0
000780
ENDCHAR
STARTCHAR 01C9
ENCODING 457
SWIDTH 384 0
DWIDTH 16 0
BBX 11 40 3 -8
BITMAP
E0E0
E0E0
E0E0
E0E0
E000
E000
E000
E000
E000
E000
E0E0
E0E0
E0E0
E0E0
E0E0
E0E0
E0E0
E0E0
E0E0
E0E0
E0E0
E0E0
E0E0
E0E0
E0E0
E0E0
E0E0
E0E0
E0E0
E0E0
E0E0
E0E0
00E0
00E0
00E0
00E0
00E0
07C0
07C0
0780
ENDCHAR
STARTCHAR 01CA
ENCODING 458
SWIDTH 768 0
DWIDTH 32 0
BBX 27 29 3 0
BITMAP
E00700E0
F00700E0
F00700E0
F80700E0
F80700E0
FC0700E0
FC0700E0
FE0700E0
EE0700E0
EE0700E0
E70700E0
E70700E0
E38700E0
E38700E0
E3C700E0
E1C700E0
E1E700E0
E0E700E0
E0E700E0
E07700E0
E07700E0
E03F01E0
E03F00E0
E01F01E0
E01F01E0
E01F01C0
E00F0FC0
E00F0FC0
E0070F00
ENDCHAR
STARTCHAR 01CB
ENCODING 459
SWIDTH 720 0
DWIDTH 30 0
BBX 25 40 3 -8
BITMAP
00000380
00000380
00000380
E0070380
F0070000
F0070000
F8070000
F8070000
FC070000
FC070000
FE070380
EE070380
EE070380
E7070380
E7070380
E3870380
E3870380
E3C70380
E1C70380
E1E70380
E0E70380
E0E70380
E0770380
E0770380
E03F0380
E03F0380
E01F0380
E01F0380
E01F0380
E00F0380
E00F0380
E0070380
00000380
00000380
00000380
00000380
00000700
00001F00
00001F00
00001E00
ENDCHAR
STARTCHAR 01CC
ENCODING 460
SWIDTH 648 0
DWIDTH 27 0
BBX 22 40 3 -8
BITMAP
00003C
00003C
00003C
00003C
000000
000000
000000
000000
000000
000000
C7E038
CFF038
DFF838
F03838
E03838
E03838
E03838
E03838
E03838
E03838
E03838
E03838
E03838
E03838
E03838
E03838
E03838
E03838
E03838
E03838
E03838
E03838
000038
000038
000038
000038
000038
0000F8
0000F8
0000F0
ENDCHAR
STARTCHAR 01CD
ENCODING 461
SWIDTH 504 0
DWIDTH 21 0
BBX 19 37 1 0
BITMAP
0E0C00
071800
033800
03B000
01F000
00E000
000000
000000
01E000
01F000
01F000
03F000
03F000
03B800
03B800
073800
073C00
071C00
071C00
0E1C00
0E1E00
0E0E00
1E0E00
1C0E00
1C0F00
1C0700
3FFF00
3FFF00
3FFF80
380380
700380
700380
7003C0
7001C0
E001C0
E001C0
E001E0
ENDCHAR
STARTCHAR 01CE
ENCODING 462
SWIDTH 432 0
DWIDTH 18 0
BBX 14 32 1 0
BITMAP
1838
0C30
0E60
06E0
07C0
03C0
0000
0000
0000
0000
3FE0
7FF8
7FF8
003C
001C
001C
001C
001C
001C
07FC
3FFC
7FFC
701C
701C
E01C
E01C
E01C
601C
703C
7FFC
3FDC
1F8C
ENDCHAR
STARTCHAR 01CF
ENCODING 463
SWIDTH 216 0
DWIDTH 9 0
BBX 9 37 0 0
BITMAP
C180
E380
7300
3700
3E00
1C00
0000
0000
1C00
1C00
1C00
1C00
1C00
1C00
1C00
1C00
1C00
1C00
1C00
1C00
1C00
1C00
1C00
1C00
1C00
1C00
1C00
1C00
1C00
1C00
1C00
1C00
1C00
1C00
1C00
1C00
1C00
ENDCHAR
STARTCHAR 01D0
ENCODING 464
SWIDTH 192 0
DWIDTH 8 0
BBX 10 32 -1 0
BITMAP
E1C0
6180
7380
3B00
1F00
1E00
0000
0000
0000
0000
0E00
0E00
0E00
0E00
0E00
0E00
0E00
0E00
0E00
0E00
0E00
0E00
0E00
0E00
0E00
0E00
0E00
0E00
0E00
0E00
0E00
0E00
ENDCHAR
STARTCHAR 01D1
ENCODING 465
SWIDTH 528 0
DWIDTH 22 0
BBX 17 37 2 0
BITMAP
0C1C00
063800
073000
037000
03E000
01E000
000000
000000
0FF800
3FFE00
3FFF00
780700
700780
700380
F00380
F00380
E00380
E00380
E00380
E00380
E00380
E00380
E00380
E00380
E00380
E00380
E00380
E00380
E00380
F00380
700380
700380
700780
780700
3FFF00
3FFE00
0FF800
ENDCHAR
STARTCHAR 01D2
ENCODING 466
SWIDTH 432 0
DWIDTH 18 0
BBX 14 32 2 0
BITMAP
3830
1860
0CE0
0EC0
07C0
0780
0000
0000
0000
0000
1FE0
3FF8
7FF8
F03C
E01C
E01C
E01C
E01C
E01C
E01C
E01C
E01C
E01C
E01C
E01C
E01C
E01C
E01C
F03C
7FF8
3FF8
1FE0
ENDCHAR
STARTCHAR 01D3
ENCODING 467
SWIDTH 504 0
DWIDTH 21 0
BBX 16 37 3 0
BITMAP
1838
0C70
0E60
06E0
07C0
0380
0000
0000
E007
E007
E007
E007
E007
E007
E007
E007
E007
E007
E007
E007
E007
E007
E007
E007
E007
E007
E007
E007
E00F
E00F
E00E
E00E
E00E
F01E
7FFC
3FFC
0FF0
ENDCHAR
STARTCHAR 01D4
ENCODING 468
SWIDTH 456 0
DWIDTH 19 0
BBX 14 32 2 0
BITMAP
1830
1C70
0CE0
0EC0
07C0
0380
0000
0000
0000
0000
E01C
E01C
E01C
E01C
E01C
E01C
E01C
E01C
E01C
E01C
E01C
E01C
E01C
E01C
E01C
701C
701C
701C
703C
7FFC
3FCC
1F8C
ENDCHAR
STARTCHAR 01D5
ENCODING 469
SWIDTH 504 0
DWIDTH 21 0
BBX 16 43 3 0
BITMAP
0FF0
0FF0
0FF0
0000
0000
0000
1838
1838
1838
0000
0000
0000
0000
0000
E007
E007
E007
E007
E007
E007
E007
E007
E007
E007
E007
E007
E007
E007
E007
E007
E007
E007
E007
E007
E00F
E00F
E00E
E00E
E00E
F01E
7FFC
3FFC
0FF0
ENDCHAR
STARTCHAR 01D6
ENCODING 470
SWIDTH 456 0
DWIDTH 19 0
BBX 14 39 2 0
BITMAP
1FF0
1FF0
1FF0
0000
0000
0000
0000
0000
3838
3838
3838
0000
0000
0000
0000
0000
0000
E01C
E01C
E01C
E01C
E01C
E01C
E01C
E01C
E01C
E01C
E01C
E01C
E01C
E01C
E01C
701C
701C
701C
703C
7FFC
3FCC
1F8C
ENDCHAR
STARTCHAR 01D7
ENCODING 471
SWIDTH 504 0
DWIDTH 21 0
BBX 16 42 3 0
BITMAP
00F0
00E0
00E0
01C0
0180
0380
1838
1838
1838
0000
0000
0000
0000
E007
E007
E007
E007
E007
E007
E007
E007
E007
E007
E007
E007
E007
E007
E007
E007
E007
E007
E007
E007
E00F
E00F
E00E
E00E
E00E
F01E
7FFC
3FFC
0FF0
ENDCHAR
STARTCHAR 01D8
ENCODING 472
SWIDTH 456 0
DWIDTH 19 0
BBX 14 39 2 0
BITMAP
00F0
00E0
01C0
01C0
0180
0380
0000
0000
3838
3838
3838
0000
0000
0000
0000
0000
0000
E01C
E01C
E01C
E01C
E01C
E01C
E01C
E01C
E01C
E01C
E01C
E01C
E01C
E01C
E01C
701C
701C
701C
703C
7FFC
3FCC
1F8C
ENDCHAR
STARTCHAR 01D9
ENCODING 473
SWIDTH 504 0
DWIDTH 21 0
BBX 16 42 3 0
BITMAP
1838
0C70
0E60
06E0
07C0
03C0
1838
1838
1838
0000
0000
0000
0000
E007
E007
E007
E007
E007
E007
E007
E007
E007
E007
E007
E007
E007
E007
E007
E007
E007
E007
E007
E007
E00F
E00F
E00E
E00E
E00E
F01E
7FFC
3FFC
0FF0
ENDCHAR
STARTCHAR 01DA
ENCODING 474
SWIDTH 456 0
DWIDTH 19 0
BBX 14 39 2 0
BITMAP
1830
1C70
0C60
0EC0
07C0
0380
0000
0000
3838
3838
3838
0000
0000
0000
0000
0000
0000
E01C
E01C
E01C
E01C
E01C
E01C
E01C
E01C
E01C
E01C
E01C
E01C
E01C
E01C
E01C
701C
701C
701C
703C
7FFC
3FCC
1F8C
ENDCHAR
STARTCHAR 01DB
ENCODING 475
SWIDTH 504 0
DWIDTH 21 0
BBX 16 42 3 0
BITMAP
0E00
0E00
0700
0300
0380
0180
1838
1838
1838
0000
0000
0000
0000
E007
E007
E007
E007
E007
E007
E007
E007
E007
E007
E007
E007
E007
E007
E007
E007
E007
E007
E007
E007
E00F
E00F
E00E
E00E
E00E
F01E
7FFC
3FFC
0FF0
ENDCHAR
STARTCHAR 01DC
ENCODING 476
SWIDTH 456 0
DWIDTH 19 0
BBX 14 38 2 0
BITMAP
1E00
0E00
0600
0700
0300
0380
0000
3838
3838
3838
0000
0000
0000
0000
0000
0000
E01C
E01C
E01C
E01C
E01C
E01C
E01C
E01C
E01C
E01C
E01C
E01C
E01C
E01C
E01C
701C
701C
701C
703C
7FFC
3FCC
1F8C
ENDCHAR
STARTCHAR 01E6
ENCODING 486
SWIDTH 480 0
DWIDTH 20 0
BBX 16 37 2 0
BITMAP
1C38
0C30
0670
07E0
03C0
03C0
0000
0000
07FE
1FFF
3FFF
7800
7000
7000
7000
F000
F000
F000
E000
E000
E000
E0FF
E0FF
E0FF
E007
E007
E007
E007
F007
F007
7007
7007
7007
7807
3FFF
1FFF
07FC
ENDCHAR
STARTCHAR 01E7
ENCODING 487
SWIDTH 456 0
DWIDTH 19 0
BBX 14 40 2 -8
BITMAP
1830
1C60
0CE0
0EC0
07C0
0780
0000
0000
0000
0000
1F9C
3FDC
7FFC
703C
E03C
E01C
E01C
E01C
E01C
E01C
E01C
E01C
E01C
E01C
E01C
E01C
E01C
E03C
703C
7FFC
3FDC
1F9C
001C
001C
001C
001C
0038
7FF8
7FF0
7FC0
ENDCHAR
STARTCHAR 01EA
ENCODING 490
SWIDTH 528 0
DWIDTH 22 0
BBX 17 37 2 -8
BITMAP
0FF800
3FFE00
3FFF00
780700
700780
700380
F00380
F00380
E00380
E00380
E00380
E00380
E00380
E00380
E00380
E00380
E00380
E00380
E00380
E00380
E00380
F00380
700380
700380
700780
780700
3FFF00
3FFE00
0FF800
001800
003000
007000
006000
007000
007C00
007C00
003C00
ENDCHAR
STARTCHAR 01EB
ENCODING 491
SWIDTH 432 0
DWIDTH 18 0
BBX 14 30 2 -8
BITMAP
1FE0
3FF8
7FF8
F03C
E01C
E01C
E01C
E01C
E01C
E01C
E01C
E01C
E01C
E01C
E01C
E01C
E01C
E01C
F03C
7FF8
3FF0
1FE0
00C0
00C0
01C0
0180
0180
01F0
01F0
00F0
ENDCHAR
STARTCHAR 01F1
ENCODING 497
SWIDTH 912 0
DWIDTH 38 0
BBX 34 29 3 0
BITMAP
FFE01FFFC0
FFF81FFFC0
FFFC1FFFC0
E01E0003C0
E00E000780
E00E000780
E00E000F00
E00E000F00
E00E000E00
E00E001E00
E00E001C00
E00E003C00
E00E003800
E00E007800
E00F007000
E00E00F000
E00E00E000
E00E01E000
E00E01C000
E00E03C000
E00E038000
E00E078000
E00E070000
E00E0F0000
E00E0F0000
E01E1E0000
FFFC1FFFC0
FFF81FFFC0
FFE01FFFC0
ENDCHAR
STARTCHAR 01F2
ENCODING 498
SWIDTH 864 0
DWIDTH 36 0
BBX 32 29 3 0
BITMAP
FFE00000
FFF80000
FFFC0000
E01E0000
E00E0000
E00E0000
E00E0000
E00E1FFF
E00E1FFF
E00E1FFF
E00E000E
E00E001E
E00E001C
E00E003C
E00F0038
E00E0078
E00E0070
E00E00E0
E00E01E0
E00E01C0
E00E03C0
E00E0380
E00E0780
E00E0700
E00E0F00
E01E0E00
FFFC1FFF
FFF81FFF
FFE01FFF
ENDCHAR
STARTCHAR 01F3
ENCODING 499
SWIDTH 816 0
DWIDTH 34 0
BBX 31 32 2 0
BITMAP
001C0000
001C0000
001C0000
001C0000
001C0000
001C0000
001C0000
001C0000
001C0000
001C0000
1F9C3FFE
3FDC3FFE
7FFC3FFE
703C001C
E03C003C
E01C0038
E01C0078
E01C0070
E01C00F0
E01C00E0
E01C01C0
E01C03C0
E01C0380
E01C0780
E01C0700
E01C0F00
E01C0E00
E03C1E00
703C1C00
7FFC3FFE
3FDC3FFE
1F9C3FFE
ENDCHAR
STARTCHAR 01F4
ENCODING 500
SWIDTH 480 0
DWIDTH 20 0
BBX 16 37 2 0
BITMAP
0070
00E0
00E0
00C0
01C0
0180
0000
0000
07FE
1FFF
3FFF
7800
7000
7000
7000
F000
F000
F000
E000
E000
E000
E0FF
E0FF
E0FF
E007
E007
E007
E007
F007
F007
7007
7007
7007
7807
3FFF
1FFF
07FC
ENDCHAR
STARTCHAR 01F5
ENCODING 501
SWIDTH 456 0
DWIDTH 19 0
BBX 14 40 2 -8
BITMAP
00E0
00E0
01C0
01C0
0180
0380
0000
0000
0000
0000
1F9C
3FDC
7FFC
703C
E03C
E01C
E01C
E01C
E01C
E01C
E01C
E01C
E01C
E01C
E01C
E01C
E01C
E03C
703C
7FFC
3FDC
1F9C
001C
001C
001C
001C
0038
7FF8
7FF0
7FC0
ENDCHAR
STARTCHAR 01FA
ENCODING 506
SWIDTH 504 0
DWIDTH 21 0
BBX 19 45 1 0
BITMAP
003800
003800
007000
006000
00E000
00C000
000000
000000
03F000
07F800
061800
061C00
061C00
061C00
07B800
03F800
01E000
01F000
01F000
03F000
03F000
03B800
03B800
073800
073800
071C00
071C00
0E1C00
0E1E00
0E0E00
1E0E00
1C0E00
1C0F00
1C0700
3FFF00
3FFF00
3FFF80
380380
700380
700380
7003C0
7001C0
E001C0
E001C0
E001E0
ENDCHAR
STARTCHAR 01FB
ENCODING 507
SWIDTH 432 0
DWIDTH 18 0
BBX 14 42 1 0
BITMAP
0070
00E0
00E0
01C0
01C0
0180
0000
0000
07E0
0FF0
0C30
0C30
0C30
0C30
0FF0
07E0
0000
0000
0000
0000
3FE0
7FF8
7FF8
003C
001C
001C
001C
001C
001C
07FC
3FFC
7FFC
701C
701C
E01C
E01C
E01C
601C
703C
7FFC
3FDC
1F8C
ENDCHAR
STARTCHAR 01FC
ENCODING 508
SWIDTH 672 0
DWIDTH 28 0
BBX 27 37 0 0
BITMAP
0001C000
0001C000
00038000
00030000
00070000
00060000
00000000
00000000
003FFFE0
007FFFE0
007FFFE0
007E0000
00EE0000
00EE0000
00EE0000
01CE0000
01CE0000
01C70000
03870000
03870000
03870000
0707FF80
0707FF80
0707FF80
0E038000
0E038000
1FFF8000
1FFF8000
1FFF8000
3803C000
3801C000
3801C000
7001C000
7001C000
7001FFE0
E001FFE0
E000FFE0
ENDCHAR
STARTCHAR 01FD
ENCODING 509
SWIDTH 672 0
DWIDTH 28 0
BBX 25 32 1 0
BITMAP
00038000
00070000
00070000
00060000
000E0000
000C0000
00000000
00000000
00000000
00000000
3FE1FC00
7FF7FF00
7FFFFF00
003E0780
001E0380
001C0380
001C0380
001C0380
001C0380
07FFFF80
3FFFFF80
7FFFFF80
701C0000
701C0000
E01C0000
E01C0000
E01C0000
E01E0000
703E0000
7FF7FF80
3FE7FF80
1FC1FF00
ENDCHAR
STARTCHAR 01FE
ENCODING 510
SWIDTH 528 0
DWIDTH 22 0
BBX 17 39 2 -2
BITMAP
007800
007000
007000
00E000
00C000
01C380
000380
000300
0FFB00
3FFF00
3FFF00
780F00
700F80
701F80
F01F80
F01B80
E03B80
E03380
E07380
E07380
E0E380
E0E380
E1C380
E1C380
E18380
E38380
E30380
E70380
E70380
FE0380
FE0380
7C0380
7C0780
780700
3FFF00
3FFE00
7FF800
700000
E00000
ENDCHAR
STARTCHAR 01FF
ENCODING 511
SWIDTH 432 0
DWIDTH 18 0
BBX 14 34 2 -2
BITMAP
00E0
01E0
01C0
0180
0380
0300
0000
000C
001C
0018
1FF8
3FF8
7FFC
F07C
E07C
E0FC
E0FC
E0DC
E1DC
E19C
E39C
E31C
E71C
E61C
EE1C
EC1C
FC1C
F81C
F83C
7FF8
3FF8
7FE0
6000
E000
ENDCHAR
STARTCHAR 0200
ENCODING 512
SWIDTH 504 0
DWIDTH 21 0
BBX 19 37 1 0
BITMAP
1CE000
1C7000
0C7000
063000
061800
031800
000000
000000
01E000
01F000
01F000
03F000
03F000
03B800
03B800
073800
073C00
071C00
071C00
0E1C00
0E1E00
0E0E00
1E0E00
1C0E00
1C0F00
1C0700
3FFF00
3FFF00
3FFF80
380380
700380
700380
7003C0
7001C0
E001C0
E001C0
E001E0
ENDCHAR
STARTCHAR 0201
ENCODING 513
SWIDTH 432 0
DWIDTH 18 0
BBX 14 31 1 0
BITMAP
71C0
38C0
18E0
1C60
0C30
0000
0000
0000
0000
3FE0
7FF8
7FF8
003C
001C
001C
001C
001C
001C
07FC
3FFC
7FFC
701C
701C
E01C
E01C
E01C
601C
703C
7FFC
3FDC
1F8C
ENDCHAR
STARTCHAR 0202
ENCODING 514
SWIDTH 504 0
DWIDTH 21 0
BBX 19 37 1 0
BITMAP
03F000
07F800
061C00
060C00
060C00
060C00
000000
000000
01E000
01F000
01F000
03F000
03F000
03B800
03B800
073800
073C00
071C00
071C00
0E1C00
0E1E00
0E0E00
1E0E00
1C0E00
1C0F00
1C0700
3FFF00
3FFF00
3FFF80
380380
700380
700380
7003C0
7001C0
E001C0
E001C0
E001E0
ENDCHAR
STARTCHAR 0203
ENCODING 515
SWIDTH 432 0
DWIDTH 18 0
BBX 14 32 1 0
BITMAP
07E0
0FF0
0C30
1830
1830
1838
0000
0000
0000
0000
3FE0
7FF8
7FF8
003C
001C
001C
001C
001C
001C
07FC
3FFC
7FFC
701C
701C
E01C
E01C
E01C
601C
703C
7FFC
3FDC
1F8C
ENDCHAR
STARTCHAR 0204
ENCODING 516
SWIDTH 432 0
DWIDTH 18 0
BBX 13 37 3 0
BITMAP
E380
6380
7180
31C0
38C0
1860
0000
0000
FFF8
FFF8
FFF8
E000
E000
E000
E000
E000
E000
E000
E000
E000
E000
FFF0
FFF0
FFF0
E000
E000
E000
E000
E000
E000
E000
E000
E000
E000
FFF8
FFF8
FFF8
ENDCHAR
STARTCHAR 0205
ENCODING 517
SWIDTH 432 0
DWIDTH 18 0
BBX 14 31 2 0
BITMAP
E380
7180
31C0
18C0
1860
0000
0000
0000
0000
1FE0
3FF0
7FF8
7038
E01C
E01C
E01C
E01C
E01C
FFFC
FFFC
FFFC
E000
E000
E000
E000
E000
F000
7000
7FF8
3FF8
1FF8
ENDCHAR
STARTCHAR 0206
ENCODING 518
SWIDTH 432 0
DWIDTH 18 0
BBX 13 37 3 0
BITMAP
1FC0
1FE0
3860
3060
3060
3060
0000
0000
FFF8
FFF8
FFF8
E000
E000
E000
E000
E000
E000
E000
E000
E000
E000
FFF0
FFF0
FFF0
E000
E000
E000
E000
E000
E000
E000
E000
E000
E000
FFF8
FFF8
FFF8
ENDCHAR
STARTCHAR 0207
ENCODING 519
SWIDTH 432 0
DWIDTH 18 0
BBX 14 32 2 0
BITMAP
0FC0
1FE0
1860
3860
3070
3070
0000
0000
0000
0000
1FE0
3FF0
7FF8
7038
E01C
E01C
E01C
E01C
E01C
FFFC
FFFC
FFFC
E000
E000
E000
E000
E000
F000
7000
7FF8
3FF8
1FF8
ENDCHAR
STARTCHAR 0208
ENCODING 520
SWIDTH 216 0
DWIDTH 9 0
BBX 11 37 -2 0
BITMAP
E300
6380
7180
31C0
38C0
1860
0000
0000
0700
0700
0700
0700
0700
0700
0700
0700
0700
0700
0700
0700
0700
0700
0700
0700
0700
0700
0700
0700
0700
0700
0700
0700
0700
0700
0700
0700
0700
ENDCHAR
STARTCHAR 0209
ENCODING 521
SWIDTH 192 0
DWIDTH 8 0
BBX 10 31 -2 0
BITMAP
E700
6380
7180
3180
30C0
0000
0000
0000
0000
0700
0700
0700
0700
0700
0700
0700
0700
0700
0700
0700
0700
0700
0700
0700
0700
0700
0700
0700
0700
0700
0700
ENDCHAR
STARTCHAR 020A
ENCODING 522
SWIDTH 216 0
DWIDTH 9 0
BBX 9 37 0 0
BITMAP
7F00
FF80
C180
C180
C180
C180
0000
0000
1C00
1C00
1C00
1C00
1C00
1C00
1C00
1C00
1C00
1C00
1C00
1C00
1C00
1C00
1C00
1C00
1C00
1C00
1C00
1C00
1C00
1C00
1C00
1C00
1C00
1C00
1C00
1C00
1C00
ENDCHAR
STARTCHAR 020B
ENCODING 523
SWIDTH 192 0
DWIDTH 8 0
BBX 10 32 -1 0
BITMAP
3F00
7F80
6180
61C0
E0C0
E0C0
0000
0000
0000
0000
0E00
0E00
0E00
0E00
0E00
0E00
0E00
0E00
0E00
0E00
0E00
0E00
0E00
0E00
0E00
0E00
0E00
0E00
0E00
0E00
0E00
0E00
ENDCHAR
STARTCHAR 020C
ENCODING 524
SWIDTH 528 0
DWIDTH 22 0
BBX 17 37 2 0
BITMAP
38E000
1CE000
1C7000
0C3000
063000
061800
000000
000000
0FF800
3FFE00
3FFF00
780700
700780
700380
F00380
F00380
E00380
E00380
E00380
E00380
E00380
E00380
E00380
E00380
E00380
E00380
E00380
E00380
E00380
F00380
700380
700380
700780
780700
3FFF00
3FFE00
0FF800
ENDCHAR
STARTCHAR 020D
ENCODING 525
SWIDTH 432 0
DWIDTH 18 0
BBX 14 31 2 0
BITMAP
7380
31C0
38C0
18E0
1C60
0000
0000
0000
0000
1FE0
3FF8
7FF8
F03C
E01C
E01C
E01C
E01C
E01C
E01C
E01C
E01C
E01C
E01C
E01C
E01C
E01C
E01C
F03C
7FF8
3FF8
1FE0
ENDCHAR
STARTCHAR 020E
ENCODING 526
SWIDTH 528 0
DWIDTH 22 0
BBX 17 37 2 0
BITMAP
03F000
07F800
0E1800
0C1800
0C1800
0C1800
000000
000000
0FF800
3FFE00
3FFF00
780700
700780
700380
F00380
F00380
E00380
E00380
E00380
E00380
E00380
E00380
E00380
E00380
E00380
E00380
E00380
E00380
E00380
F00380
700380
700380
700780
780700
3FFF00
3FFE00
0FF800
ENDCHAR
STARTCHAR 020F
ENCODING 527
SWIDTH 432 0
DWIDTH 18 0
BBX 14 32 2 0
BITMAP
07C0
1FE0
1860
1830
1830
3830
0000
0000
0000
0000
1FE0
3FF8
7FF8
F03C
E01C
E01C
E01C
E01C
E01C
E01C
E01C
E01C
E01C
E01C
E01C
E01C
E01C
E01C
F03C
7FF8
3FF8
1FE0
ENDCHAR
STARTCHAR 0210
ENCODING 528
SWIDTH 504 0
DWIDTH 21 0
BBX 16 37 3 0
BITMAP
7380
71C0
31C0
18C0
1860
0C60
0000
0000
FFF0
FFFC
FFFC
E01E
E00E
E00E
E00E
E00E
E00E
E00E
E00E
E00E
E00E
E01E
FFFC
FFFC
FFF0
E070
E078
E038
E038
E03C
E01C
E01C
E01C
E00E
E00E
E00E
E00F
ENDCHAR
STARTCHAR 0211
ENCODING 529
SWIDTH 288 0
DWIDTH 12 0
BBX 11 31 0 0
BITMAP
E700
E300
6180
3180
30C0
0000
0000
0000
0000
18E0
19E0
1BE0
1B00
1E00
1C00
1C00
1C00
1C00
1C00
1C00
1C00
1C00
1C00
1C00
1C00
1C00
1C00
1C00
1C00
1C00
1C00
ENDCHAR
STARTCHAR 0212
ENCODING 530
SWIDTH 504 0
DWIDTH 21 0
BBX 16 37 3 0
BITMAP
0FC0
1FE0
1870
1830
1830
1830
0000
0000
FFF0
FFFC
FFFC
E01E
E00E
E00E
E00E
E00E
E00E
E00E
E00E
E00E
E00E
E01E
FFFC
FFFC
FFF0
E070
E078
E038
E038
E03C
E01C
E01C
E01C
E00E
E00E
E00E
E00F
ENDCHAR
STARTCHAR 0213
ENCODING 531
SWIDTH 288 0
DWIDTH 12 0
BBX 10 32 1 0
BITMAP
3F00
7F80
6180
E180
C0C0
C0C0
0000
0000
0000
0000
31C0
33C0
37C0
3600
3C00
3800
3800
3800
3800
3800
3800
3800
3800
3800
3800
3800
3800
3800
3800
3800
3800
3800
ENDCHAR
STARTCHAR 0214
ENCODING 532
SWIDTH 504 0
DWIDTH 21 0
BBX 16 37 3 0
BITMAP
71C0
31C0
38C0
1860
0C60
0C30
0000
0000
E007
E007
E007
E007
E007
E007
E007
E007
E007
E007
E007
E007
E007
E007
E007
E007
E007
E007
E007
E007
E00F
E00F
E00E
E00E
E00E
F01E
7FFC
3FFC
0FF0
ENDCHAR
STARTCHAR 0215
ENCODING 533
SWIDTH 456 0
DWIDTH 19 0
BBX 14 31 2 0
BITMAP
73C0
31C0
38C0
1860
0C60
0000
0000
0000
0000
E01C
E01C
E01C
E01C
E01C
E01C
E01C
E01C
E01C
E01C
E01C
E01C
E01C
E01C
E01C
701C
701C
701C
703C
7FFC
3FCC
1F8C
ENDCHAR
STARTCHAR 0216
ENCODING 534
SWIDTH 504 0
DWIDTH 21 0
BBX 16 37 3 0
BITMAP
07E0
0FF0
1C30
1830
1830
1830
0000
0000
E007
E007
E007
E007
E007
E007
E007
E007
E007
E007
E007
E007
E007
E007
E007
E007
E007
E007
E007
E007
E00F
E00F
E00E
E00E
E00E
F01E
7FFC
3FFC
0FF0
ENDCHAR
STARTCHAR 0217
ENCODING 535
SWIDTH 456 0
DWIDTH 19 0
BBX 14 32 2 0
BITMAP
07C0
0FE0
1C70
1830
1830
1830
0000
0000
0000
0000
E01C
E01C
E01C
E01C
E01C
E01C
E01C
E01C
E01C
E01C
E01C
E01C
E01C
E01C
E01C
701C
701C
701C
703C
7FFC
3FCC
1F8C
ENDCHAR
STARTCHAR 0218
ENCODING 536
SWIDTH 432 0
DWIDTH 18 0
BBX 15 39 2 -10
BITMAP
0FF8
3FFC
7FFC
F000
E000
E000
E000
E000
E000
E000
E000
F000
FF00
7FF0
3FFC
03FC
001C
001E
000E
000E
000E
000E
000E
001E
001C
001C
FFFC
FFF8
FFE0
0000
0000
0380
0380
0380
0380
0180
0180
0180
0700
ENDCHAR
STARTCHAR 0219
ENCODING 537
SWIDTH 384 0
DWIDTH 16 0
BBX 12 32 2 -10
BITMAP
1FE0
7FE0
FFE0
E000
E000
C000
C000
E000
E000
FC00
FFC0
3FE0
00F0
0070
0070
0070
0070
0070
0070
FFF0
FFE0
FF80
0000
0000
0700
0700
0700
0700
0300
0300
0300
0E00
ENDCHAR
STARTCHAR 021A
ENCODING 538
SWIDTH 408 0
DWIDTH 17 0
BBX 16 39 1 -10
BITMAP
FFFF
FFFF
FFFF
0380
0380
0380
0380
0380
0380
0380
0380
0380
0380
0380
0380
0380
0380
0380
0380
0380
0380
0380
0380
0380
0380
0380
0380
0380
0380
0000
0000
03C0
03C0
03C0
03C0
00C0
00C0
0180
0380
ENDCHAR
STARTCHAR 021B
ENCODING 539
SWIDTH 264 0
DWIDTH 11 0
BBX 10 38 1 -10
BITMAP
1C00
1C00
1C00
1C00
1C00
1C00
FFC0
FFC0
FFC0
1C00
1C00
1C00
1C00
1C00
1C00
1C00
1C00
1C00
1C00
1C00
1C00
1C00
1C00
1C00
1C00
1C00
1C00
1C00
0000
0000
1C00
1C00
1C00
1C00
0C00
0C00
0C00
3800
ENDCHAR
STARTCHAR 0232
ENCODING 562
SWIDTH 432 0
DWIDTH 18 0
BBX 18 37 0 0
BITMAP
07F800
07F800
07F800
000000
000000
000000
000000
000000
F001C0
700380
700380
380780
380700
3C0700
1C0E00
1C0E00
0E1C00
0E1C00
0F1C00
073800
073800
03F000
03F000
03F000
01E000
01E000
01E000
01E000
01E000
01E000
01E000
01E000
01E000
01E000
01E000
01E000
01E000
ENDCHAR
STARTCHAR 0233
ENCODING 563
SWIDTH 456 0
DWIDTH 19 0
BBX 14 40 2 -8
BITMAP
1FF0
1FF0
1FF0
0000
0000
0000
0000
0000
0000
0000
E01C
E01C
E01C
E01C
E01C
E01C
E01C
E01C
E01C
E01C
E01C
E01C
E01C
E01C
E01C
701C
701C
701C
703C
7FFC
3FDC
1F9C
001C
001C
001C
001C
0038
7FF8
7FF0
7FC0
ENDCHAR
STARTCHAR 0237
ENCODING 567
SWIDTH 192 0
DWIDTH 8 0
BBX 6 30 0 -8
BITMAP
1C
1C
1C
1C
1C
1C
1C
1C
1C
1C
1C
1C
1C
1C
1C
1C
1C
1C
1C
1C
1C
1C
1C
1C
1C
1C
38
F8
F8
F0
ENDCHAR
STARTCHAR 0259
ENCODING 601
SWIDTH 432 0
DWIDTH 18 0
BBX 14 22 2 0
BITMAP
7FC0
7FF0
7FF8
0038
0038
001C
001C
001C
001C
001C
FFFC
FFFC
FFFC
E01C
E01C
E01C
E01C
E038
F038
7FF8
3FF0
1FC0
ENDCHAR
STARTCHAR 0272
ENCODING 626
SWIDTH 456 0
DWIDTH 19 0
BBX 16 30 0 -8
BITMAP
18FC
19FE
1BFF
1E07
1C07
1C07
1C07
1C07
1C07
1C07
1C07
1C07
1C07
1C07
1C07
1C07
1C07
1C07
1C07
1C07
1C07
1C07
1C00
1C00
1C00
1C00
3800
F800
F800
F000
ENDCHAR
STARTCHAR 02BC
ENCODING 700
SWIDTH 120 0
DWIDTH 5 0
BBX 4 8 0 24
BITMAP
70
70
70
30
30
30
30
E0
ENDCHAR
STARTCHAR 02C6
ENCODING 710
SWIDTH 240 0
DWIDTH 10 0
BBX 10 6 0 26
BITMAP
1E00
1F00
3B00
7380
6180
E1C0
ENDCHAR
STARTCHAR 02C7
ENCODING 711
SWIDTH 240 0
DWIDTH 10 0
BBX 10 6 0 26
BITMAP
E1C0
6180
7380
3B00
1F00
1E00
ENDCHAR
STARTCHAR 02C9
ENCODING 713
SWIDTH 312 0
DWIDTH 13 0
BBX 9 3 2 29
BITMAP
FF80
FF80
FF80
ENDCHAR
STARTCHAR 02D8
ENCODING 728
SWIDTH 240 0
DWIDTH 10 0
BBX 10 6 0 26
BITMAP
C1C0
C1C0
C180
6180
7F80
3F00
ENDCHAR
STARTCHAR 02D9
ENCODING 729
SWIDTH 96 0
DWIDTH 4 0
BBX 3 3 1 28
BITMAP
E0
E0
E0
ENDCHAR
STARTCHAR 02DA
ENCODING 730
SWIDTH 216 0
DWIDTH 9 0
BBX 9 8 0 26
BITMAP
7F00
7F80
E180
C180
C180
E180
7F80
7F00
ENDCHAR
STARTCHAR 02DB
ENCODING 731
SWIDTH 120 0
DWIDTH 5 0
BBX 5 9 0 -8
BITMAP
18
30
60
E0
E0
E0
F8
F8
78
ENDCHAR
STARTCHAR 02DC
ENCODING 732
SWIDTH 288 0
DWIDTH 12 0
BBX 12 5 0 27
BITMAP
0030
7C30
7FF0
FFF0
C1E0
ENDCHAR
STARTCHAR 02DD
ENCODING 733
SWIDTH 288 0
DWIDTH 12 0
BBX 10 5 1 26
BITMAP
39C0
7180
6380
E300
C700
ENDCHAR
STARTCHAR 0300
ENCODING 768
SWIDTH 0 0
DWIDTH 0 0
BBX 6 6 -6 25
BITMAP
F0
70
30
38
18
1C
ENDCHAR
STARTCHAR 0301
ENCODING 769
SWIDTH 0 0
DWIDTH 0 0
BBX 6 6 -6 26
BITMAP
3C
38
38
70
60
E0
ENDCHAR
STARTCHAR 0302
ENCODING 770
SWIDTH 0 0
DWIDTH 0 0
BBX 10 6 -10 26
BITMAP
1E00
3E00
3700
7300
6180
E1C0
ENDCHAR
STARTCHAR 0303
ENCODING 771
SWIDTH 0 0
DWIDTH 0 0
BBX 12 5 -12 27
BITMAP
0030
7830
FFF0
FFE0
C3E0
ENDCHAR
STARTCHAR 0304
ENCODING 772
SWIDTH 0 0
DWIDTH 0 0
BBX 9 3 -11 29
BITMAP
FF80
FF80
FF80
ENDCHAR
STARTCHAR 0306
ENCODING 774
SWIDTH 0 0
DWIDTH 0 0
BBX 10 6 -10 26
BITMAP
C0C0
C0C0
E1C0
6180
7F80
3F00
ENDCHAR
STARTCHAR 0307
ENCODING 775
SWIDTH 0 0
DWIDTH 0 0
BBX 3 3 -4 28
BITMAP
E0
E0
E0
ENDCHAR
STARTCHAR 0308
ENCODING 776
SWIDTH 0 0
DWIDTH 0 0
BBX 10 3 -11 28
BITMAP
E1C0
E1C0
E1C0
ENDCHAR
STARTCHAR 0309
ENCODING 777
SWIDTH 0 0
DWIDTH 0 0
BBX 8 9 -9 26
BITMAP
1C
FF
FF
03
03
03
0F
3C
30
ENDCHAR
STARTCHAR 030A
ENCODING 778
SWIDTH 0 0
DWIDTH 0 0
BBX 9 8 -9 26
BITMAP
7E00
FF00
C380
C180
C180
C380
FF00
7F00
ENDCHAR
STARTCHAR 030B
ENCODING 779
SWIDTH 0 0
DWIDTH 0 0
BBX 10 5 -11 26
BITMAP
39C0
7180
6380
E300
C700
ENDCHAR
STARTCHAR 030C
ENCODING 780
SWIDTH 0 0
DWIDTH 0 0
BBX 10 6 -10 26
BITMAP
E1C0
6180
7300
3700
3E00
1E00
ENDCHAR
STARTCHAR 030F
ENCODING 783
SWIDTH 0 0
DWIDTH 0 0
BBX 10 5 -11 26
BITMAP
E700
6380
7180
31C0
38C0
ENDCHAR
STARTCHAR 0311
ENCODING 785
SWIDTH 0 0
DWIDTH 0 0
BBX 10 6 -10 26
BITMAP
3F00
7F80
6180
61C0
E0C0
E0C0
ENDCHAR
STARTCHAR 0312
ENCODING 786
SWIDTH 0 0
DWIDTH 0 0
BBX 4 8 -16 26
BITMAP
70
E0
C0
C0
E0
E0
E0
E0
ENDCHAR
STARTCHAR 031B
ENCODING 795
SWIDTH 0 0
DWIDTH 0 0
BBX 6 6 -9 20
BITMAP
0C
0C
0C
0C
FC
F8
ENDCHAR
STARTCHAR 0323
ENCODING 803
SWIDTH 0 0
DWIDTH 0 0
BBX 4 4 -6 -6
BITMAP
F0
F0
F0
F0
ENDCHAR
STARTCHAR 0326
ENCODING 806
SWIDTH 0 0
DWIDTH 0 0
BBX 4 8 -6 -10
BITMAP
70
70
70
70
30
30
30
E0
ENDCHAR
STARTCHAR 0327
ENCODING 807
SWIDTH 0 0
DWIDTH 0 0
BBX 4 8 -5 -8
BITMAP
30
30
70
70
60
E0
E0
E0
ENDCHAR
STARTCHAR 0328
ENCODING 808
SWIDTH 0 0
DWIDTH 0 0
BBX 5 9 -5 -8
BITMAP
38
30
60
E0
C0
E0
F8
F8
78
ENDCHAR
STARTCHAR 0335
ENCODING 821
SWIDTH 0 0
DWIDTH 0 0
BBX 9 3 -10 13
BITMAP
FF80
FF80
FF80
ENDCHAR
STARTCHAR 0336
ENCODING 822
SWIDTH 0 0
DWIDTH 0 0
BBX 16 3 -19 21
BITMAP
FFFF
FFFF
FFFF
ENDCHAR
STARTCHAR 0394
ENCODING 916
SWIDTH 504 0
DWIDTH 21 0
BBX 19 29 1 0
BITMAP
01E000
01F000
01F000
03F000
03F000
03B800
03B800
073800
073800
071C00
071C00
0E1C00
0E1E00
0E0E00
0E0E00
1C0E00
1C0F00
1C0700
3C0700
380700
380380
380380
700380
700380
7001C0
7001C0
FFFFC0
FFFFC0
FFFFE0
ENDCHAR
STARTCHAR 03A9
ENCODING 937
SWIDTH 528 0
DWIDTH 22 0
BBX 18 29 2 0
BITMAP
07F800
1FFE00
3FFF00
780780
700780
700380
700380
700380
F00380
F00380
F00380
F00380
F00380
F003C0
F00380
F00380
F00380
F00380
700380
700380
700380
700380
700380
700300
380700
180E00
CF3C80
FF3F80
FF3F80
ENDCHAR
STARTCHAR 03BC
ENCODING 956
SWIDTH 456 0
DWIDTH 19 0
BBX 13 29 3 -8
BITMAP
E038
E038
E038
E038
E038
E038
E038
E038
E038
E038
E038
E038
E038
E038
E038
E038
E038
E078
F8D8
FFD8
FF98
E000
E000
E000
E000
E000
E000
E000
E000
ENDCHAR
STARTCHAR 03C0
ENCODING 960
SWIDTH 456 0
DWIDTH 19 0
BBX 13 21 3 0
BITMAP
FFF8
FFF8
E038
E038
E038
E038
E038
E038
E038
E038
E038
E038
E038
E038
E038
E038
E038
E038
E038
E038
E038
ENDCHAR
STARTCHAR 1E0C
ENCODING 7692
SWIDTH 504 0
DWIDTH 21 0
BBX 16 35 3 -6
BITMAP
FFE0
FFF8
FFFC
E01E
E00E
E00E
E00E
E00E
E00E
E00E
E00E
E00E
E00E
E00E
E00F
E00E
E00E
E00E
E00E
E00E
E00E
E00E
E00E
E00E
E00E
E01E
FFFC
FFF8
FFE0
0000
0000
0380
0380
0380
0380
ENDCHAR
STARTCHAR 1E0D
ENCODING 7693
SWIDTH 456 0
DWIDTH 19 0
BBX 14 38 2 -6
BITMAP
001C
001C
001C
001C
001C
001C
001C
001C
001C
001C
1F9C
3FDC
7FFC
703C
E03C
E01C
E01C
E01C
E01C
E01C
E01C
E01C
E01C
E01C
E01C
E01C
E01C
E03C
703C
7FFC
3FDC
1F9C
0000
0000
0380
0380
0380
0380
ENDCHAR
STARTCHAR 1E24
ENCODING 7716
SWIDTH 528 0
DWIDTH 22 0
BBX 16 35 3 -6
BITMAP
E007
E007
E007
E007
E007
E007
E007
E007
E007
E007
E007
E007
E007
FFFF
FFFF
FFFF
E007
E007
E007
E007
E007
E007
E007
E007
E007
E007
E007
E007
E007
0000
0000
03C0
03C0
03C0
03C0
ENDCHAR
STARTCHAR 1E25
ENCODING 7717
SWIDTH 456 0
DWIDTH 19 0
BBX 13 38 3 -6
BITMAP
E000
E000
E000
E000
E000
E000
E000
E000
E000
E000
E7E0
EFF0
FFF8
F038
E038
E038
E038
E038
E038
E038
E038
E038
E038
E038
E038
E038
E038
E038
E038
E038
E038
E038
0000
0000
0700
0700
0700
0700
ENDCHAR
STARTCHAR 1E44
ENCODING 7748
SWIDTH 528 0
DWIDTH 22 0
BBX 16 36 3 0
BITMAP
0180
0180
0180
0000
0000
0000
0000
E007
F007
F007
F807
F807
FC07
FC07
FE07
EE07
EE07
E707
E707
E387
E387
E3C7
E1C7
E1E7
E0E7
E0E7
E077
E077
E03F
E03F
E01F
E01F
E01F
E00F
E00F
E007
ENDCHAR
STARTCHAR 1E45
ENCODING 7749
SWIDTH 456 0
DWIDTH 19 0
BBX 13 31 3 0
BITMAP
0700
0700
0700
0000
0000
0000
0000
0000
0000
C7E0
CFF0
DFF8
F038
E038
E038
E038
E038
E038
E038
E038
E038
E038
E038
E038
E038
E038
E038
E038
E038
E038
E038
ENDCHAR
STARTCHAR 1E5A
ENCODING 7770
SWIDTH 504 0
DWIDTH 21 0
BBX 16 35 3 -6
BITMAP
FFF0
FFFC
FFFC
E01E
E00E
E00E
E00E
E00E
E00E
E00E
E00E
E00E
E00E
E01E
FFFC
FFFC
FFF0
E070
E078
E038
E038
E03C
E01C
E01C
E01C
E00E
E00E
E00E
E00F
0000
0000
0380
0380
0380
0380
ENDCHAR
STARTCHAR 1E5B
ENCODING 7771
SWIDTH 288 0
DWIDTH 12 0
BBX 9 28 2 -6
BITMAP
6380
6780
6F80
6C00
7800
7000
7000
7000
7000
7000
7000
7000
7000
7000
7000
7000
7000
7000
7000
7000
7000
7000
0000
0000
F000
F000
F000
F000
ENDCHAR
STARTCHAR 1E62
ENCODING 7778
SWIDTH 432 0
DWIDTH 18 0
BBX 15 35 2 -6
BITMAP
0FF8
3FFC
7FFC
F000
E000
E000
E000
E000
E000
E000
E000
F000
FF00
7FF0
3FFC
03FC
001C
001E
000E
000E
000E
000E
000E
001E
001C
001C
FFFC
FFF8
FFE0
0000
0000
0780
0780
0780
0780
ENDCHAR
STARTCHAR 1E63
ENCODING 7779
SWIDTH 384 0
DWIDTH 16 0
BBX 12 28 2 -6
BITMAP
1FE0
7FE0
FFE0
E000
E000
C000
C000
E000
E000
FC00
FFC0
3FE0
00F0
0070
0070
0070
0070
0070
0070
FFF0
FFE0
FF80
0000
0000
0F00
0F00
0F00
0F00
ENDCHAR
STARTCHAR 1E6C
ENCODING 7788
SWIDTH 408 0
DWIDTH 17 0
BBX 16 35 1 -6
BITMAP
FFFF
FFFF
FFFF
0380
0380
0380
0380
0380
0380
0380
0380
0380
0380
0380
0380
0380
0380
0380
0380
0380
0380
0380
0380
0380
0380
0380
0380
0380
0380
0000
0000
0380
0380
0380
0380
ENDCHAR
STARTCHAR 1E6D
ENCODING 7789
SWIDTH 264 0
DWIDTH 11 0
BBX 10 34 1 -6
BITMAP
1C00
1C00
1C00
1C00
1C00
1C00
FFC0
FFC0
FFC0
1C00
1C00
1C00
1C00
1C00
1C00
1C00
1C00
1C00
1C00
1C00
1C00
1C00
1C00
1C00
1C00
1C00
1C00
1C00
0000
0000
1C00
1C00
1C00
1C00
ENDCHAR
STARTCHAR 1E80
ENCODING 7808
SWIDTH 696 0
DWIDTH 29 0
BBX 27 37 1 0
BITMAP
00780000
00380000
00180000
001C0000
000C0000
000E0000
00000000
00000000
E00E00E0
E01F00E0
E01F00E0
E01F00E0
F01F01E0
701F01C0
701B01C0
703B81C0
703B81C0
703B81C0
38318380
38318380
3871C380
3871C380
3871C380
3861C380
1C60C700
1CE0E700
1CE0E700
1CE0E700
1CC0E700
0CC06600
0FC07E00
0FC07E00
0FC07E00
0FC07E00
0F803C00
07803C00
07803C00
ENDCHAR
STARTCHAR 1E81
ENCODING 7809
SWIDTH 624 0
DWIDTH 26 0
BBX 24 31 1 0
BITMAP
00E000
00E000
007000
007000
003000
001800
000000
000000
000000
E03807
E03C0E
E03C0E
703C0E
707C0E
707C0C
706E1C
306E1C
38661C
38E61C
38E618
38C738
18C738
1CC338
1DC330
1DC330
1D83F0
0D83F0
0F81F0
0F81E0
0F81E0
0701E0
ENDCHAR
STARTCHAR 1E82
ENCODING 7810
SWIDTH 696 0
DWIDTH 29 0
BBX 27 37 1 0
BITMAP
00038000
00038000
00070000
00070000
00060000
000C0000
00000000
00000000
E00E00E0
E01F00E0
E01F00E0
E01F00E0
F01F01E0
701F01C0
701B01C0
703B81C0
703B81C0
703B81C0
38318380
38318380
3871C380
3871C380
3871C380
3861C380
1C60C700
1CE0E700
1CE0E700
1CE0E700
1CC0E700
0CC06600
0FC07E00
0FC07E00
0FC07E00
0FC07E00
0F803C00
07803C00
07803C00
ENDCHAR
STARTCHAR 1E83
ENCODING 7811
SWIDTH 624 0
DWIDTH 26 0
BBX 24 32 1 0
BITMAP
000F00
000E00
000E00
001C00
001800
003800
000000
000000
000000
000000
E03807
E03C0E
E03C0E
703C0E
707C0E
707C0C
706E1C
306E1C
38661C
38E61C
38E618
38C738
18C738
1CC338
1DC330
1DC330
1D83F0
0D83F0
0F81F0
0F81E0
0F81E0
0701E0
ENDCHAR
STARTCHAR 1E84
ENCODING 7812
SWIDTH 696 0
DWIDTH 29 0
BBX 27 36 1 0
BITMAP
00E0E000
00E0E000
00E0E000
00000000
00000000
00000000
00000000
E00E00E0
E01F00E0
E01F00E0
E01F00E0
F01F01E0
701F01C0
701B01C0
703B81C0
703B81C0
703B81C0
38318380
38318380
3871C380
3871C380
3871C380
3861C380
1C60C700
1CE0E700
1CE0E700
1CE0E700
1CC0E700
0CC06600
0FC07E00
0FC07E00
0FC07E00
0FC07E00
0F803C00
07803C00
07803C00
ENDCHAR
STARTCHAR 1E85
ENCODING 7813
SWIDTH 624 0
DWIDTH 26 0
BBX 24 31 1 0
BITMAP
018380
018380
018380
000000
000000
000000
000000
000000
000000
E03807
E03C0E
E03C0E
703C0E
707C0E
707C0C
706E1C
306E1C
38661C
38E61C
38E618
38C738
18C738
1CC338
1DC330
1DC330
1D83F0
0D83F0
0F81F0
0F81E0
0F81E0
0701E0
ENDCHAR
STARTCHAR 1E92
ENCODING 7826
SWIDTH 432 0
DWIDTH 18 0
BBX 16 35 1 -6
BITMAP
7FFE
7FFE
7FFE
001E
001C
003C
0038
0078
0070
00F0
00E0
01E0
01E0
03C0
03C0
0780
0780
0700
0F00
0E00
1E00
1C00
3C00
3800
7800
7000
FFFF
FFFF
FFFF
0000
0000
03C0
03C0
03C0
03C0
ENDCHAR
STARTCHAR 1E93
ENCODING 7827
SWIDTH 384 0
DWIDTH 16 0
BBX 13 28 1 -6
BITMAP
7FF8
7FF8
7FF8
0070
00F0
00E0
01E0
01C0
03C0
0380
0780
0700
0F00
0E00
1E00
1C00
3C00
3800
7000
FFF8
FFF8
FFF8
0000
0000
0700
0700
0700
0700
ENDCHAR
STARTCHAR 1E9E
ENCODING 7838
SWIDTH 552 0
DWIDTH 23 0
BBX 18 29 3 0
BITMAP
0FF800
3FFF80
7FFF80
700780
F00700
E00F00
E00E00
E01C00
E03C00
E03800
E07800
E07000
E0E000
E0FE00
E0FF00
E0FF80
E00380
E003C0
E001C0
E001C0
E001C0
E001C0
E001C0
E001C0
E003C0
E00380
E3FF80
E3FF00
E3FC00
ENDCHAR
STARTCHAR 1EA0
ENCODING 7840
SWIDTH 504 0
DWIDTH 21 0
BBX 19 35 1 -6
BITMAP
01E000
01F000
01F000
03F000
03F000
03B800
03B800
073800
073C00
071C00
071C00
0E1C00
0E1E00
0E0E00
1E0E00
1C0E00
1C0F00
1C0700
3FFF00
3FFF00
3FFF80
380380
700380
700380
7003C0
7001C0
E001C0
E001C0
E001E0
000000
000000
00E000
00E000
00E000
00E000
ENDCHAR
STARTCHAR 1EA1
ENCODING 7841
SWIDTH 432 0
DWIDTH 18 0
BBX 14 28 1 -6
BITMAP
3FE0
7FF8
7FF8
003C
001C
001C
001C
001C
001C
07FC
3FFC
7FFC
701C
701C
E01C
E01C
E01C
601C
703C
7FFC
3FDC
1F8C
0000
0000
03C0
03C0
03C0
03C0
ENDCHAR
STARTCHAR 1EA2
ENCODING 7842
SWIDTH 504 0
DWIDTH 21 0
BBX 19 38 1 0
BITMAP
07F800
07F800
001800
001800
003800
00F000
01C000
000000
000000
01E000
01F000
01F000
03F000
03F000
03B800
03B800
073800
073C00
071C00
071C00
0E1C00
0E1E00
0E0E00
1E0E00
1C0E00
1C0F00
1C0700
3FFF00
3FFF00
3FFF80
380380
700380
700380
7003C0
7001C0
E001C0
E001C0
E001E0
ENDCHAR
STARTCHAR 1EA3
ENCODING 7843
SWIDTH 432 0
DWIDTH 18 0
BBX 14 35 1 0
BITMAP
0180
0FE0
0FF0
0030
0030
0070
01E0
0380
0300
0000
0000
0000
0000
3FE0
7FF8
7FF8
003C
001C
001C
001C
001C
001C
07FC
3FFC
7FFC
701C
701C
E01C
E01C
E01C
601C
703C
7FFC
3FDC
1F8C
ENDCHAR
STARTCHAR 1EA4
ENCODING 7844
SWIDTH 504 0
DWIDTH 21 0
BBX 19 44 1 0
BITMAP
000700
000700
000E00
000E00
000C00
001C00
01E000
01F000
03B000
033800
071800
0E0C00
000000
000000
000000
01E000
01F000
01F000
03F000
03F000
03B800
03B800
073800
073C00
071C00
071C00
0E1C00
0E1E00
0E0E00
1E0E00
1C0E00
1C0F00
1C0700
3FFF00
3FFF00
3FFF80
380380
700380
700380
7003C0
7001C0
E001C0
E001C0
E001E0
ENDCHAR
STARTCHAR 1EA5
ENCODING 7845
SWIDTH 432 0
DWIDTH 18 0
BBX 15 38 1 0
BITMAP
000E
001C
001C
0018
0038
0030
03C0
07C0
06E0
0E60
0C30
1838
0000
0000
0000
0000
3FE0
7FF8
7FF8
003C
001C
001C
001C
001C
001C
07FC
3FFC
7FFC
701C
701C
E01C
E01C
E01C
601C
703C
7FFC
3FDC
1F8C
ENDCHAR
STARTCHAR 1EA6
ENCODING 7846
SWIDTH 504 0
DWIDTH 21 0
BBX 19 43 1 0
BITMAP
007000
007000
003800
003800
001800
01EC00
01F000
03B000
033800
061800
0E0C00
000000
000000
000000
01E000
01F000
01F000
03F000
03F000
03B800
03B800
073800
073C00
071C00
071C00
0E1C00
0E1E00
0E0E00
1E0E00
1C0E00
1C0F00
1C0700
3FFF00
3FFF00
3FFF80
380380
700380
700380
7003C0
7001C0
E001C0
E001C0
E001E0
ENDCHAR
STARTCHAR 1EA7
ENCODING 7847
SWIDTH 432 0
DWIDTH 18 0
BBX 14 37 1 0
BITMAP
01E0
00E0
0060
0070
0030
03F8
07C0
06E0
0E60
0C30
1838
0000
0000
0000
0000
3FE0
7FF8
7FF8
003C
001C
001C
001C
001C
001C
07FC
3FFC
7FFC
701C
701C
E01C
E01C
E01C
601C
703C
7FFC
3FDC
1F8C
ENDCHAR
STARTCHAR 1EA8
ENCODING 7848
SWIDTH 504 0
DWIDTH 21 0
BBX 19 46 1 0
BITMAP
000800
007F00
007F80
000380
000180
000380
000F00
001C00
01F800
01F000
03B000
033800
071800
0E0C00
000000
000000
000000
01E000
01F000
01F000
03F000
03F000
03B800
03B800
073800
073C00
071C00
071C00
0E1C00
0E1E00
0E0E00
1E0E00
1C0E00
1C0F00
1C0700
3FFF00
3FFF00
3FFF80
380380
700380
700380
7003C0
7001C0
E001C0
E001C0
E001E0
ENDCHAR
STARTCHAR 1EA9
ENCODING 7849
SWIDTH 432 0
DWIDTH 18 0
BBX 15 41 1 0
BITMAP
0038
01FE
01FE
0006
0006
0006
001E
0078
0060
03C0
07C0
06E0
0E60
0C30
1838
0000
0000
0000
0000
3FE0
7FF8
7FF8
003C
001C
001C
001C
001C
001C
07FC
3FFC
7FFC
701C
701C
E01C
E01C
E01C
601C
703C
7FFC
3FDC
1F8C
ENDCHAR
STARTCHAR 1EAA
ENCODING 7850
SWIDTH 504 0
DWIDTH 21 0
BBX 19 45 1 0
BITMAP
000600
0F8600
0FFE00
1FFE00
183C00
000000
000000
01E000
01F000
03B000
033800
061800
0E0C00
000000
000000
000000
01E000
01F000
01F000
03F000
03F000
03B800
03B800
073800
073C00
071C00
071C00
0E1C00
0E1E00
0E0E00
1E0E00
1C0E00
1C0F00
1C0700
3FFF00
3FFF00
3FFF80
380380
700380
700380
7003C0
7001C0
E001C0
E001C0
E001E0
ENDCHAR
STARTCHAR 1EAB
ENCODING 7851
SWIDTH 432 0
DWIDTH 18 0
BBX 14 39 1 0
BITMAP
000C
1E0C
3FFC
3FF8
30F8
0000
0000
03C0
07C0
06E0
0E60
0C30
1838
0000
0000
0000
0000
3FE0
7FF8
7FF8
003C
001C
001C
001C
001C
001C
07FC
3FFC
7FFC
701C
701C
E01C
E01C
E01C
601C
703C
7FFC
3FDC
1F8C
ENDCHAR
STARTCHAR 1EAC
ENCODING 7852
SWIDTH 504 0
DWIDTH 21 0
BBX 19 43 1 -6
BITMAP
01E000
01F000
03B000
033800
061800
0E0C00
000000
000000
01E000
01F000
01F000
03F000
03F000
03B800
03B800
073800
073C00
071C00
071C00
0E1C00
0E1E00
0E0E00
1E0E00
1C0E00
1C0F00
1C0700
3FFF00
3FFF00
3FFF80
380380
700380
700380
7003C0
7001C0
E001C0
E001C0
E001E0
000000
000000
00E000
00E000
00E000
00E000
ENDCHAR
STARTCHAR 1EAD
ENCODING 7853
SWIDTH 432 0
DWIDTH 18 0
BBX 14 38 1 -6
BITMAP
03C0
07C0
06E0
0E60
0C30
1838
0000
0000
0000
0000
3FE0
7FF8
7FF8
003C
001C
001C
001C
001C
001C
07FC
3FFC
7FFC
701C
701C
E01C
E01C
E01C
601C
703C
7FFC
3FDC
1F8C
0000
0000
03C0
03C0
03C0
03C0
ENDCHAR
STARTCHAR 1EAE
ENCODING 7854
SWIDTH 504 0
DWIDTH 21 0
BBX 19 45 1 0
BITMAP
003800
003800
007000
007000
006000
00E000
000000
060C00
060C00
060C00
061C00
07F800
03F000
000000
000000
000000
01E000
01F000
01F000
03F000
03F000
03B800
03B800
073800
073C00
071C00
071C00
0E1C00
0E1E00
0E0E00
1E0E00
1C0E00
1C0F00
1C0700
3FFF00
3FFF00
3FFF80
380380
700380
700380
7003C0
7001C0
E001C0
E001C0
E001E0
ENDCHAR
STARTCHAR 1EAF
ENCODING 7855
SWIDTH 432 0
DWIDTH 18 0
BBX 14 39 1 0
BITMAP
0070
00E0
00E0
01C0
01C0
0180
0000
1830
1830
1830
1C30
0FF0
07E0
0000
0000
0000
0000
3FE0
7FF8
7FF8
003C
001C
001C
001C
001C
001C
07FC
3FFC
7FFC
701C
701C
E01C
E01C
E01C
601C
703C
7FFC
3FDC
1F8C
ENDCHAR
STARTCHAR 1EB0
ENCODING 7856
SWIDTH 504 0
DWIDTH 21 0
BBX 19 44 1 0
BITMAP
078000
038000
018000
01C000
00C000
00E000
060C00
060C00
060C00
061C00
07F800
01F000
000000
000000
000000
01E000
01F000
01F000
03F000
03F000
03B800
03B800
073800
073C00
071C00
071C00
0E1C00
0E1E00
0E0E00
1E0E00
1C0E00
1C0F00
1C0700
3FFF00
3FFF00
3FFF80
380380
700380
700380
7003C0
7001C0
E001C0
E001C0
E001E0
ENDCHAR
STARTCHAR 1EB1
ENCODING 7857
SWIDTH 432 0
DWIDTH 18 0
BBX 14 38 1 0
BITMAP
0E00
0700
0700
0300
0380
0180
1838
1838
1830
0C30
0FF0
07E0
0000
0000
0000
0000
3FE0
7FF8
7FF8
003C
001C
001C
001C
001C
001C
07FC
3FFC
7FFC
701C
701C
E01C
E01C
E01C
601C
703C
7FFC
3FDC
1F8C
ENDCHAR
STARTCHAR 1EB2
ENCODING 7858
SWIDTH 504 0
DWIDTH 21 0
BBX 19 47 1 0
BITMAP
00C000
07F800
07FC00
001C00
001C00
001C00
007800
00E000
00C000
060C00
060C00
060C00
061C00
07F800
03F000
000000
000000
000000
01E000
01F000
01F000
03F000
03F000
03B800
03B800
073800
073C00
071C00
071C00
0E1C00
0E1E00
0E0E00
1E0E00
1C0E00
1C0F00
1C0700
3FFF00
3FFF00
3FFF80
380380
700380
700380
7003C0
7001C0
E001C0
E001C0
E001E0
ENDCHAR
STARTCHAR 1EB3
ENCODING 7859
SWIDTH 432 0
DWIDTH 18 0
BBX 14 41 1 0
BITMAP
0180
0FF0
0FF0
0030
0030
0030
01E0
03C0
0300
1838
1830
1830
1C30
0FF0
07E0
0000
0000
0000
0000
3FE0
7FF8
7FF8
003C
001C
001C
001C
001C
001C
07FC
3FFC
7FFC
701C
701C
E01C
E01C
E01C
601C
703C
7FFC
3FDC
1F8C
ENDCHAR
STARTCHAR 1EB4
ENCODING 7860
SWIDTH 504 0
DWIDTH 21 0
BBX 19 45 1 0
BITMAP
000600
0F8600
0FFE00
1FFE00
183C00
000000
000000
0E0C00
060C00
060C00
061C00
07F800
03F000
000000
000000
000000
01E000
01F000
01F000
03F000
03F000
03B800
03B800
073800
073C00
071C00
071C00
0E1C00
0E1E00
0E0E00
1E0E00
1C0E00
1C0F00
1C0700
3FFF00
3FFF00
3FFF80
380380
700380
700380
7003C0
7001C0
E001C0
E001C0
E001E0
ENDCHAR
STARTCHAR 1EB5
ENCODING 7861
SWIDTH 432 0
DWIDTH 18 0
BBX 14 39 1 0
BITMAP
000C
1E0C
3FFC
3FF8
30F8
0000
0000
1830
1830
1830
1C30
0FF0
07E0
0000
0000
0000
0000
3FE0
7FF8
7FF8
003C
001C
001C
001C
001C
001C
07FC
3FFC
7FFC
701C
701C
E01C
E01C
E01C
601C
703C
7FFC
3FDC
1F8C
ENDCHAR
STARTCHAR 1EB6
ENCODING 7862
SWIDTH 504 0
DWIDTH 21 0
BBX 19 43 1 -6
BITMAP
060C00
060C00
060C00
061C00
07F800
01F000
000000
000000
01E000
01F000
01F000
03F000
03F000
03B800
03B800
073800
073C00
071C00
071C00
0E1C00
0E1E00
0E0E00
1E0E00
1C0E00
1C0F00
1C0700
3FFF00
3FFF00
3FFF80
380380
700380
700380
7003C0
7001C0
E001C0
E001C0
E001E0
000000
000000
00E000
00E000
00E000
00E000
ENDCHAR
STARTCHAR 1EB7
ENCODING 7863
SWIDTH 432 0
DWIDTH 18 0
BBX 14 38 1 -6
BITMAP
1838
1830
1830
1C30
0FF0
07E0
0000
0000
0000
0000
3FE0
7FF8
7FF8
003C
001C
001C
001C
001C
001C
07FC
3FFC
7FFC
701C
701C
E01C
E01C
E01C
601C
703C
7FFC
3FDC
1F8C
0000
0000
03C0
03C0
03C0
03C0
ENDCHAR
STARTCHAR 1EB8
ENCODING 7864
SWIDTH 432 0
DWIDTH 18 0
BBX 13 35 3 -6
BITMAP
FFF8
FFF8
FFF8
E000
E000
E000
E000
E000
E000
E000
E000
E000
E000
FFF0
FFF0
FFF0
E000
E000
E000
E000
E000
E000
E000
E000
E000
E000
FFF8
FFF8
FFF8
0000
0000
0700
0700
0700
0700
ENDCHAR
STARTCHAR 1EB9
ENCODING 7865
SWIDTH 432 0
DWIDTH 18 0
BBX 14 28 2 -6
BITMAP
1FE0
3FF0
7FF8
7038
E01C
E01C
E01C
E01C
E01C
FFFC
FFFC
FFFC
E000
E000
E000
E000
E000
F000
7000
7FF8
3FF8
1FF8
0000
0000
0780
0780
0780
0780
ENDCHAR
STARTCHAR 1EBA
ENCODING 7866
SWIDTH 432 0
DWIDTH 18 0
BBX 13 38 3 0
BITMAP
3FC0
3FE0
00E0
00E0
01C0
0780
0600
0000
0000
FFF8
FFF8
FFF8
E000
E000
E000
E000
E000
E000
E000
E000
E000
E000
FFF0
FFF0
FFF0
E000
E000
E000
E000
E000
E000
E000
E000
E000
E000
FFF8
FFF8
FFF8
ENDCHAR
STARTCHAR 1EBB
ENCODING 7867
SWIDTH 432 0
DWIDTH 18 0
BBX 14 35 2 0
BITMAP
0300
1FC0
1FE0
0060
0060
00E0
03C0
0700
0600
0000
0000
0000
0000
1FE0
3FF0
7FF8
7038
E01C
E01C
E01C
E01C
E01C
FFFC
FFFC
FFFC
E000
E000
E000
E000
E000
F000
7000
7FF8
3FF8
1FF8
ENDCHAR
STARTCHAR 1EBC
ENCODING 7868
SWIDTH 432 0
DWIDTH 18 0
BBX 13 37 3 0
BITMAP
1010
7E10
7FF0
63F0
6060
0000
0000
0000
FFF8
FFF8
FFF8
E000
E000
E000
E000
E000
E000
E000
E000
E000
E000
FFF0
FFF0
FFF0
E000
E000
E000
E000
E000
E000
E000
E000
E000
E000
FFF8
FFF8
FFF8
ENDCHAR
STARTCHAR 1EBD
ENCODING 7869
SWIDTH 432 0
DWIDTH 18 0
BBX 14 32 2 0
BITMAP
0018
3C18
7FF8
7FF0
61F0
0000
0000
0000
0000
0000
1FE0
3FF0
7FF8
7038
E01C
E01C
E01C
E01C
E01C
FFFC
FFFC
FFFC
E000
E000
E000
E000
E000
F000
7000
7FF8
3FF8
1FF8
ENDCHAR
STARTCHAR 1EBE
ENCODING 7870
SWIDTH 432 0
DWIDTH 18 0
BBX 14 44 3 0
BITMAP
003C
0038
0038
0070
0060
0060
0780
0F80
0DC0
1CC0
38E0
3060
0000
0000
0000
FFF8
FFF8
FFF8
E000
E000
E000
E000
E000
E000
E000
E000
E000
E000
FFF0
FFF0
FFF0
E000
E000
E000
E000
E000
E000
E000
E000
E000
E000
FFF8
FFF8
FFF8
ENDCHAR
STARTCHAR 1EBF
ENCODING 7871
SWIDTH 432 0
DWIDTH 18 0
BBX 14 38 2 0
BITMAP
001C
0038
0038
0030
0070
0060
0780
0F80
0DC0
1CC0
1860
3070
0000
0000
0000
0000
1FE0
3FF0
7FF8
7038
E01C
E01C
E01C
E01C
E01C
FFFC
FFFC
FFFC
E000
E000
E000
E000
E000
F000
7000
7FF8
3FF8
1FF8
ENDCHAR
STARTCHAR 1EC0
ENCODING 7872
SWIDTH 432 0
DWIDTH 18 0
BBX 13 43 3 0
BITMAP
0380
01C0
01C0
00C0
00E0
0760
0F80
1DC0
18C0
38E0
3060
0000
0000
0000
FFF8
FFF8
FFF8
E000
E000
E000
E000
E000
E000
E000
E000
E000
E000
FFF0
FFF0
FFF0
E000
E000
E000
E000
E000
E000
E000
E000
E000
E000
FFF8
FFF8
FFF8
ENDCHAR
STARTCHAR 1EC1
ENCODING 7873
SWIDTH 432 0
DWIDTH 18 0
BBX 14 37 2 0
BITMAP
03C0
01C0
00C0
00E0
0060
07F0
0F80
0DC0
1CC0
1860
3070
0000
0000
0000
0000
1FE0
3FF0
7FF8
7038
E01C
E01C
E01C
E01C
E01C
FFFC
FFFC
FFFC
E000
E000
E000
E000
E000
F000
7000
7FF8
3FF8
1FF8
ENDCHAR
STARTCHAR 1EC2
ENCODING 7874
SWIDTH 432 0
DWIDTH 18 0
BBX 14 46 3 0
BITMAP
0060
03F8
03FC
000C
000C
000C
0078
00E0
07C0
0F80
0DC0
1CC0
38E0
3060
0000
0000
0000
FFF8
FFF8
FFF8
E000
E000
E000
E000
E000
E000
E000
E000
E000
E000
FFF0
FFF0
FFF0
E000
E000
E000
E000
E000
E000
E000
E000
E000
E000
FFF8
FFF8
FFF8
ENDCHAR
STARTCHAR 1EC3
ENCODING 7875
SWIDTH 432 0
DWIDTH 18 0
BBX 14 41 2 0
BITMAP
0070
03FC
03FC
000C
000C
000C
003C
00F0
00C0
0780
0F80
0DC0
1CC0
1860
3870
0000
0000
0000
0000
1FE0
3FF0
7FF8
7038
E01C
E01C
E01C
E01C
E01C
FFFC
FFFC
FFFC
E000
E000
E000
E000
E000
F000
7000
7FF8
3FF8
1FF8
ENDCHAR
STARTCHAR 1EC4
ENCODING 7876
SWIDTH 432 0
DWIDTH 18 0
BBX 13 45 3 0
BITMAP
0010
3C10
7FF0
7FF0
61F0
0000
0000
0700
0F80
1DC0
18C0
38E0
3060
0000
0000
0000
FFF8
FFF8
FFF8
E000
E000
E000
E000
E000
E000
E000
E000
E000
E000
FFF0
FFF0
FFF0
E000
E000
E000
E000
E000
E000
E000
E000
E000
E000
FFF8
FFF8
FFF8
ENDCHAR
STARTCHAR 1EC5
ENCODING 7877
SWIDTH 432 0
DWIDTH 18 0
BBX 14 39 2 0
BITMAP
0018
3C18
7FF8
7FF0
61F0
0000
0000
0780
0F80
0DC0
1CC0
1860
3070
0000
0000
0000
0000
1FE0
3FF0
7FF8
7038
E01C
E01C
E01C
E01C
E01C
FFFC
FFFC
FFFC
E000
E000
E000
E000
E000
F000
7000
7FF8
3FF8
1FF8
ENDCHAR
STARTCHAR 1EC6
ENCODING 7878
SWIDTH 432 0
DWIDTH 18 0
BBX 13 43 3 -6
BITMAP
0780
0F80
0DC0
18C0
38E0
3060
0000
0000
FFF8
FFF8
FFF8
E000
E000
E000
E000
E000
E000
E000
E000
E000
E000
FFF0
FFF0
FFF0
E000
E000
E000
E000
E000
E000
E000
E000
E000
E000
FFF8
FFF8
FFF8
0000
0000
0700
0700
0700
0700
ENDCHAR
STARTCHAR 1EC7
ENCODING 7879
SWIDTH 432 0
DWIDTH 18 0
BBX 14 38 2 -6
BITMAP
0780
0F80
0DC0
1CC0
1860
3870
0000
0000
0000
0000
1FE0
3FF0
7FF8
7038
E01C
E01C
E01C
E01C
E01C
FFFC
FFFC
FFFC
E000
E000
E000
E000
E000
F000
7000
7FF8
3FF8
1FF8
0000
0000
0780
0780
0780
0780
ENDCHAR
STARTCHAR 1EC8
ENCODING 7880
SWIDTH 216 0
DWIDTH 9 0
BBX 9 38 0 0
BITMAP
FF00
FF80
0380
0380
0700
1E00
1800
0000
0000
1C00
1C00
1C00
1C00
1C00
1C00
1C00
1C00
1C00
1C00
1C00
1C00
1C00
1C00
1C00
1C00
1C00
1C00
1C00
1C00
1C00
1C00
1C00
1C00
1C00
1C00
1C00
1C00
1C00
ENDCHAR
STARTCHAR 1EC9
ENCODING 7881
SWIDTH 192 0
DWIDTH 8 0
BBX 8 35 0 0
BITMAP
38
FF
FF
03
03
03
1E
3C
30
00
00
00
00
1C
1C
1C
1C
1C
1C
1C
1C
1C
1C
1C
1C
1C
1C
1C
1C
1C
1C
1C
1C
1C
1C
ENDCHAR
STARTCHAR 1ECA
ENCODING 7882
SWIDTH 216 0
DWIDTH 9 0
BBX 3 35 3 -6
BITMAP
E0
E0
E0
E0
E0
E0
E0
E0
E0
E0
E0
E0
E0
E0
E0
E0
E0
E0
E0
E0
E0
E0
E0
E0
E0
E0
E0
E0
E0
00
00
E0
E0
E0
E0
ENDCHAR
STARTCHAR 1ECB
ENCODING 7883
SWIDTH 192 0
DWIDTH 8 0
BBX 4 38 2 -6
BITMAP
70
70
70
70
00
00
00
00
00
00
70
70
70
70
70
70
70
70
70
70
70
70
70
70
70
70
70
70
70
70
70
70
00
00
F0
F0
F0
F0
ENDCHAR
STARTCHAR 1ECC
ENCODING 7884
SWIDTH 528 0
DWIDTH 22 0
BBX 17 35 2 -6
BITMAP
0FF800
3FFE00
3FFF00
780700
700780
700380
F00380
F00380
E00380
E00380
E00380
E00380
E00380
E00380
E00380
E00380
E00380
E00380
E00380
E00380
E00380
F00380
700380
700380
700780
780700
3FFF00
3FFE00
0FF800
000000
000000
01E000
01E000
01E000
01E000
ENDCHAR
STARTCHAR 1ECD
ENCODING 7885
SWIDTH 432 0
DWIDTH 18 0
BBX 14 28 2 -6
BITMAP
1FE0
3FF8
7FF8
F03C
E01C
E01C
E01C
E01C
E01C
E01C
E01C
E01C
E01C
E01C
E01C
E01C
E01C
E01C
F03C
7FF8
3FF8
1FE0
0000
0000
0780
0780
0780
0780
ENDCHAR
STARTCHAR 1ECE
ENCODING 7886
SWIDTH 528 0
DWIDTH 22 0
BBX 17 38 2 0
BITMAP
07F000
07F800
001800
001800
003800
01F000
018000
000000
000000
0FF800
3FFE00
3FFF00
780700
700780
700380
F00380
F00380
E00380
E00380
E00380
E00380
E00380
E00380
E00380
E00380
E00380
E00380
E00380
E00380
E00380
F00380
700380
700380
700780
780700
3FFF00
3FFE00
0FF800
ENDCHAR
STARTCHAR 1ECF
ENCODING 7887
SWIDTH 432 0
DWIDTH 18 0
BBX 14 35 2 0
BITMAP
0300
1FE0
1FE0
0060
0060
0060
03C0
0780
0600
0000
0000
0000
0000
1FE0
3FF8
7FF8
F03C
E01C
E01C
E01C
E01C
E01C
E01C
E01C
E01C
E01C
E01C
E01C
E01C
E01C
E01C
F03C
7FF8
3FF8
1FE0
ENDCHAR
STARTCHAR 1ED0
ENCODING 7888
SWIDTH 528 0
DWIDTH 22 0
BBX 17 44 2 0
BITMAP
000700
000E00
000E00
001C00
001C00
001800
01E000
03E000
037000
073000
063800
0C1C00
000000
000000
000000
0FF800
3FFE00
3FFF00
780700
700780
700380
F00380
F00380
E00380
E00380
E00380
E00380
E00380
E00380
E00380
E00380
E00380
E00380
E00380
E00380
E00380
F00380
700380
700380
700780
780700
3FFF00
3FFE00
0FF800
ENDCHAR
STARTCHAR 1ED1
ENCODING 7889
SWIDTH 432 0
DWIDTH 18 0
BBX 14 38 2 0
BITMAP
001C
001C
0038
0038
0070
0060
0780
07C0
0EC0
0CE0
1860
3870
0000
0000
0000
0000
1FE0
3FF8
7FF8
F03C
E01C
E01C
E01C
E01C
E01C
E01C
E01C
E01C
E01C
E01C
E01C
E01C
E01C
E01C
F03C
7FF8
3FF8
1FE0
ENDCHAR
STARTCHAR 1ED2
ENCODING 7890
SWIDTH 528 0
DWIDTH 22 0
BBX 17 43 2 0
BITMAP
00E000
007000
007000
003800
001800
01F800
03E000
037000
073000
063800
0C1C00
000000
000000
000000
0FF800
3FFE00
3FFF00
780700
700780
700380
F00380
F00380
E00380
E00380
E00380
E00380
E00380
E00380
E00380
E00380
E00380
E00380
E00380
E00380
E00380
F00380
700380
700380
700780
780700
3FFF00
3FFE00
0FF800
ENDCHAR
STARTCHAR 1ED3
ENCODING 7891
SWIDTH 432 0
DWIDTH 18 0
BBX 14 37 2 0
BITMAP
03C0
01C0
00E0
00E0
0060
07F0
07C0
0EC0
1CE0
1860
3870
0000
0000
0000
0000
1FE0
3FF8
7FF8
F03C
E01C
E01C
E01C
E01C
E01C
E01C
E01C
E01C
E01C
E01C
E01C
E01C
E01C
E01C
F03C
7FF8
3FF8
1FE0
ENDCHAR
STARTCHAR 1ED4
ENCODING 7892
SWIDTH 528 0
DWIDTH 22 0
BBX 17 46 2 0
BITMAP
001800
00FF00
00FF00
000300
000300
000300
001E00
003C00
01F000
03E000
037000
073000
061800
0C1C00
000000
000000
000000
0FF800
3FFE00
3FFF00
780700
700780
700380
F00380
F00380
E00380
E00380
E00380
E00380
E00380
E00380
E00380
E00380
E00380
E00380
E00380
E00380
E00380
F00380
700380
700380
700780
780700
3FFF00
3FFE00
0FF800
ENDCHAR
STARTCHAR 1ED5
ENCODING 7893
SWIDTH 432 0
DWIDTH 18 0
BBX 15 41 2 0
BITMAP
0060
03FC
03FE
000E
000E
000C
003C
0070
0060
0780
07C0
0EC0
0CE0
1860
3830
0000
0000
0000
0000
1FE0
3FF8
7FF8
F03C
E01C
E01C
E01C
E01C
E01C
E01C
E01C
E01C
E01C
E01C
E01C
E01C
E01C
E01C
F03C
7FF8
3FF8
1FE0
ENDCHAR
STARTCHAR 1ED6
ENCODING 7894
SWIDTH 528 0
DWIDTH 22 0
BBX 17 45 2 0
BITMAP
000600
0F0600
1FFE00
1FFC00
187C00
000000
000000
01E000
03E000
037000
073000
063800
0C1C00
000000
000000
000000
0FF800
3FFE00
3FFF00
780700
700780
700380
F00380
F00380
E00380
E00380
E00380
E00380
E00380
E00380
E00380
E00380
E00380
E00380
E00380
E00380
E00380
F00380
700380
700380
700780
780700
3FFF00
3FFE00
0FF800
ENDCHAR
STARTCHAR 1ED7
ENCODING 7895
SWIDTH 432 0
DWIDTH 18 0
BBX 14 39 2 0
BITMAP
0018
3E18
3FF8
7FF8
60F0
0000
0000
0780
07C0
0EC0
1CE0
1860
3870
0000
0000
0000
0000
1FE0
3FF8
7FF8
F03C
E01C
E01C
E01C
E01C
E01C
E01C
E01C
E01C
E01C
E01C
E01C
E01C
E01C
E01C
F03C
7FF8
3FF8
1FE0
ENDCHAR
STARTCHAR 1ED8
ENCODING 7896
SWIDTH 528 0
DWIDTH 22 0
BBX 17 43 2 -6
BITMAP
01E000
03E000
037000
073000
061800
0C1C00
000000
000000
0FF800
3FFE00
3FFF00
780700
700780
700380
F00380
F00380
E00380
E00380
E00380
E00380
E00380
E00380
E00380
E00380
E00380
E00380
E00380
E00380
E00380
F00380
700380
700380
700780
780700
3FFF00
3FFE00
0FF800
000000
000000
01E000
01E000
01E000
01E000
ENDCHAR
STARTCHAR 1ED9
ENCODING 7897
SWIDTH 432 0
DWIDTH 18 0
BBX 14 38 2 -6
BITMAP
0780
07C0
0EC0
0CE0
1860
3830
0000
0000
0000
0000
1FE0
3FF8
7FF8
F03C
E01C
E01C
E01C
E01C
E01C
E01C
E01C
E01C
E01C
E01C
E01C
E01C
E01C
E01C
F03C
7FF8
3FF8
1FE0
0000
0000
0780
0780
0780
0780
ENDCHAR
STARTCHAR 1EDA
ENCODING 7898
SWIDTH 528 0
DWIDTH 22 0
BBX 19 37 2 0
BITMAP
007800
007000
007000
00E060
00C060
01C060
000060
0000E0
0FFFE0
3FFFC0
3FFF00
780700
700780
700380
F00380
F00380
E00380
E00380
E00380
E00380
E00380
E00380
E00380
E00380
E00380
E00380
E00380
E00380
E00380
F00380
700380
700380
700780
780700
3FFF00
3FFE00
0FF800
ENDCHAR
STARTCHAR 1EDB
ENCODING 7899
SWIDTH 432 0
DWIDTH 18 0
BBX 17 32 2 0
BITMAP
00E000
01E000
01C000
018000
038000
030000
000380
000380
000380
000380
1FFF00
3FFE00
7FF800
F03C00
E01C00
E01C00
E01C00
E01C00
E01C00
E01C00
E01C00
E01C00
E01C00
E01C00
E01C00
E01C00
E01C00
E01C00
F03C00
7FF800
3FF800
1FE000
ENDCHAR
STARTCHAR 1EDC
ENCODING 7900
SWIDTH 528 0
DWIDTH 22 0
BBX 19 37 2 0
BITMAP
070000
070000
038000
018060
01C060
00C060
000060
0000E0
0FFFE0
3FFFC0
3FFF00
780700
700780
700380
F00380
F00380
E00380
E00380
E00380
E00380
E00380
E00380
E00380
E00380
E00380
E00380
E00380
E00380
E00380
F00380
700380
700380
700780
780700
3FFF00
3FFE00
0FF800
ENDCHAR
STARTCHAR 1EDD
ENCODING 7901
SWIDTH 432 0
DWIDTH 18 0
BBX 17 31 2 0
BITMAP
1C0000
0E0000
0E0000
060000
070000
030380
000380
000380
000380
1FFF00
3FFE00
7FF800
F03C00
E01C00
E01C00
E01C00
E01C00
E01C00
E01C00
E01C00
E01C00
E01C00
E01C00
E01C00
E01C00
E01C00
E01C00
F03C00
7FF800
3FF800
1FE000
ENDCHAR
STARTCHAR 1EDE
ENCODING 7902
SWIDTH 528 0
DWIDTH 22 0
BBX 19 38 2 0
BITMAP
07F000
07F800
001800
001800
003860
01F060
018060
000060
0000E0
0FFFE0
3FFFC0
3FFF00
780700
700780
700380
F00380
F00380
E00380
E00380
E00380
E00380
E00380
E00380
E00380
E00380
E00380
E00380
E00380
E00380
E00380
F00380
700380
700380
700780
780700
3FFF00
3FFE00
0FF800
ENDCHAR
STARTCHAR 1EDF
ENCODING 7903
SWIDTH 432 0
DWIDTH 18 0
BBX 17 35 2 0
BITMAP
030000
1FE000
1FE000
006000
006000
006000
03C000
078000
060000
000380
000380
000380
000380
1FFF00
3FFE00
7FF800
F03C00
E01C00
E01C00
E01C00
E01C00
E01C00
E01C00
E01C00
E01C00
E01C00
E01C00
E01C00
E01C00
E01C00
E01C00
F03C00
7FF800
3FF800
1FE000
ENDCHAR
STARTCHAR 1EE0
ENCODING 7904
SWIDTH 528 0
DWIDTH 22 0
BBX 19 37 2 0
BITMAP
040600
1F8600
1FFC00
18FC60
181860
000060
000060
0000E0
0FFFE0
3FFFC0
3FFF00
780700
700780
700380
F00380
F00380
E00380
E00380
E00380
E00380
E00380
E00380
E00380
E00380
E00380
E00380
E00380
E00380
E00380
F00380
700380
700380
700780
780700
3FFF00
3FFE00
0FF800
ENDCHAR
STARTCHAR 1EE1
ENCODING 7905
SWIDTH 432 0
DWIDTH 18 0
BBX 17 32 2 0
BITMAP
001800
3E1800
3FF800
7FF800
60F000
000000
000380
000380
000380
000380
1FFF00
3FFE00
7FF800
F03C00
E01C00
E01C00
E01C00
E01C00
E01C00
E01C00
E01C00
E01C00
E01C00
E01C00
E01C00
E01C00
E01C00
E01C00
F03C00
7FF800
3FF800
1FE000
ENDCHAR
STARTCHAR 1EE2
ENCODING 7906
SWIDTH 528 0
DWIDTH 22 0
BBX 19 40 2 -6
BITMAP
000060
000060
000060
000060
0000E0
0FFFE0
3FFFC0
3FFF00
780700
700780
700380
F00380
F00380
E00380
E00380
E00380
E00380
E00380
E00380
E00380
E00380
E00380
E00380
E00380
E00380
E00380
F00380
700380
700380
700780
780700
3FFF00
3FFE00
0FF800
000000
000000
01E000
01E000
01E000
01E000
ENDCHAR
STARTCHAR 1EE3
ENCODING 7907
SWIDTH 432 0
DWIDTH 18 0
BBX 17 32 2 -6
BITMAP
000380
000380
000380
000380
1FFF00
3FFE00
7FF800
F03C00
E01C00
E01C00
E01C00
E01C00
E01C00
E01C00
E01C00
E01C00
E01C00
E01C00
E01C00
E01C00
E01C00
E01C00
F03C00
7FF800
3FF800
1FE000
000000
000000
078000
078000
078000
078000
ENDCHAR
STARTCHAR 1EE4
ENCODING 7908
SWIDTH 504 0
DWIDTH 21 0
BBX 16 35 3 -6
BITMAP
E007
E007
E007
E007
E007
E007
E007
E007
E007
E007
E007
E007
E007
E007
E007
E007
E007
E007
E007
E007
E00F
E00F
E00E
E00E
E00E
F01E
7FFC
3FFC
0FF0
0000
0000
0380
0380
0380
0380
ENDCHAR
STARTCHAR 1EE5
ENCODING 7909
SWIDTH 456 0
DWIDTH 19 0
BBX 14 28 2 -6
BITMAP
E01C
E01C
E01C
E01C
E01C
E01C
E01C
E01C
E01C
E01C
E01C
E01C
E01C
E01C
E01C
701C
701C
701C
703C
7FFC
3FCC
1F8C
0000
0000
0780
0780
0780
0780
ENDCHAR
STARTCHAR 1EE6
ENCODING 7910
SWIDTH 504 0
DWIDTH 21 0
BBX 16 38 3 0
BITMAP
0FE0
0FF0
0030
0030
00F0
03E0
0300
0000
0000
E007
E007
E007
E007
E007
E007
E007
E007
E007
E007
E007
E007
E007
E007
E007
E007
E007
E007
E007
E007
E00F
E00F
E00E
E00E
E00E
F01E
7FFC
3FFC
0FF0
ENDCHAR
STARTCHAR 1EE7
ENCODING 7911
SWIDTH 456 0
DWIDTH 19 0
BBX 14 35 2 0
BITMAP
0300
1FE0
1FE0
0070
0070
0060
01E0
0380
0700
0000
0000
0000
0000
E01C
E01C
E01C
E01C
E01C
E01C
E01C
E01C
E01C
E01C
E01C
E01C
E01C
E01C
E01C
701C
701C
701C
703C
7FFC
3FCC
1F8C
ENDCHAR
STARTCHAR 1EE8
ENCODING 7912
SWIDTH 504 0
DWIDTH 21 0
BBX 19 37 3 0
BITMAP
00F000
00E000
00C000
01C060
018060
038060
000060
000060
E007E0
E00780
E00700
E00700
E00700
E00700
E00700
E00700
E00700
E00700
E00700
E00700
E00700
E00700
E00700
E00700
E00700
E00700
E00700
E00700
E00F00
E00F00
E00E00
E00E00
E00E00
F01E00
7FFC00
3FFC00
0FF000
ENDCHAR
STARTCHAR 1EE9
ENCODING 7913
SWIDTH 456 0
DWIDTH 19 0
BBX 18 32 2 0
BITMAP
00E000
00E000
01C000
01C000
018000
038000
0000C0
0000C0
0000C0
0001C0
E01F80
E01F00
E01C00
E01C00
E01C00
E01C00
E01C00
E01C00
E01C00
E01C00
E01C00
E01C00
E01C00
E01C00
E01C00
701C00
701C00
701C00
703C00
7FFC00
3FCC00
1F8C00
ENDCHAR
STARTCHAR 1EEA
ENCODING 7914
SWIDTH 504 0
DWIDTH 21 0
BBX 19 37 3 0
BITMAP
0E0000
0E0000
070000
070060
038060
018060
000060
000060
E007E0
E00780
E00700
E00700
E00700
E00700
E00700
E00700
E00700
E00700
E00700
E00700
E00700
E00700
E00700
E00700
E00700
E00700
E00700
E00700
E00F00
E00F00
E00E00
E00E00
E00E00
F01E00
7FFC00
3FFC00
0FF000
ENDCHAR
STARTCHAR 1EEB
ENCODING 7915
SWIDTH 456 0
DWIDTH 19 0
BBX 18 31 2 0
BITMAP
1E0000
0E0000
060000
070000
030000
0380C0
0000C0
0000C0
0001C0
E01F80
E01F00
E01C00
E01C00
E01C00
E01C00
E01C00
E01C00
E01C00
E01C00
E01C00
E01C00
E01C00
E01C00
E01C00
701C00
701C00
701C00
703C00
7FFC00
3FCC00
1F8C00
ENDCHAR
STARTCHAR 1EEC
ENCODING 7916
SWIDTH 504 0
DWIDTH 21 0
BBX 19 38 3 0
BITMAP
0FE000
0FF000
003000
003000
00F060
03E060
030060
000060
000060
E007E0
E00780
E00700
E00700
E00700
E00700
E00700
E00700
E00700
E00700
E00700
E00700
E00700
E00700
E00700
E00700
E00700
E00700
E00700
E00700
E00F00
E00F00
E00E00
E00E00
E00E00
F01E00
7FFC00
3FFC00
0FF000
ENDCHAR
STARTCHAR 1EED
ENCODING 7917
SWIDTH 456 0
DWIDTH 19 0
BBX 18 35 2 0
BITMAP
030000
1FE000
1FE000
007000
007000
006000
01E000
038000
070000
0000C0
0000C0
0000C0
0001C0
E01F80
E01F00
E01C00
E01C00
E01C00
E01C00
E01C00
E01C00
E01C00
E01C00
E01C00
E01C00
E01C00
E01C00
E01C00
701C00
701C00
701C00
703C00
7FFC00
3FCC00
1F8C00
ENDCHAR
STARTCHAR 1EEE
ENCODING 7918
SWIDTH 504 0
DWIDTH 21 0
BBX 19 37 3 0
BITMAP
080C00
3F0800
3FF800
31F860
303060
000060
000060
000060
E007E0
E00780
E00700
E00700
E00700
E00700
E00700
E00700
E00700
E00700
E00700
E00700
E00700
E00700
E00700
E00700
E00700
E00700
E00700
E00700
E00F00
E00F00
E00E00
E00E00
E00E00
F01E00
7FFC00
3FFC00
0FF000
ENDCHAR
STARTCHAR 1EEF
ENCODING 7919
SWIDTH 456 0
DWIDTH 19 0
BBX 18 32 2 0
BITMAP
001800
3E1800
3FF800
3FF800
20F000
000000
0000C0
0000C0
0000C0
0001C0
E01F80
E01F00
E01C00
E01C00
E01C00
E01C00
E01C00
E01C00
E01C00
E01C00
E01C00
E01C00
E01C00
E01C00
E01C00
701C00
701C00
701C00
703C00
7FFC00
3FCC00
1F8C00
ENDCHAR
STARTCHAR 1EF0
ENCODING 7920
SWIDTH 504 0
DWIDTH 21 0
BBX 19 40 3 -6
BITMAP
000060
000060
000060
000060
000060
E007E0
E00780
E00700
E00700
E00700
E00700
E00700
E00700
E00700
E00700
E00700
E00700
E00700
E00700
E00700
E00700
E00700
E00700
E00700
E00700
E00F00
E00F00
E00E00
E00E00
E00E00
F01E00
7FFC00
3FFC00
0FF000
000000
000000
038000
038000
038000
038000
ENDCHAR
STARTCHAR 1EF1
ENCODING 7921
SWIDTH 456 0
DWIDTH 19 0
BBX 18 32 2 -6
BITMAP
0000C0
0000C0
0000C0
0001C0
E01F80
E01F00
E01C00
E01C00
E01C00
E01C00
E01C00
E01C00
E01C00
E01C00
E01C00
E01C00
E01C00
E01C00
E01C00
701C00
701C00
701C00
703C00
7FFC00
3FCC00
1F8C00
000000
000000
078000
078000
078000
078000
ENDCHAR
STARTCHAR 1EF2
ENCODING 7922
SWIDTH 432 0
DWIDTH 18 0
BBX 18 37 0 0
BITMAP
070000
038000
038000
018000
01C000
00C000
000000
000000
F001C0
700380
700380
380780
380700
3C0700
1C0E00
1C0E00
0E1C00
0E1C00
0F1C00
073800
073800
03F000
03F000
03F000
01E000
01E000
01E000
01E000
01E000
01E000
01E000
01E000
01E000
01E000
01E000
01E000
01E000
ENDCHAR
STARTCHAR 1EF3
ENCODING 7923
SWIDTH 456 0
DWIDTH 19 0
BBX 14 39 2 -8
BITMAP
1E00
0E00
0600
0700
0300
0380
0000
0000
0000
E01C
E01C
E01C
E01C
E01C
E01C
E01C
E01C
E01C
E01C
E01C
E01C
E01C
E01C
E01C
701C
701C
701C
703C
7FFC
3FDC
1F9C
001C
001C
001C
001C
0038
7FF8
7FF0
7FC0
ENDCHAR
STARTCHAR 1EF4
ENCODING 7924
SWIDTH 432 0
DWIDTH 18 0
BBX 18 35 0 -6
BITMAP
F001C0
700380
700380
380780
380700
3C0700
1C0E00
1C0E00
0E1C00
0E1C00
0F1C00
073800
073800
03F000
03F000
03F000
01E000
01E000
01E000
01E000
01E000
01E000
01E000
01E000
01E000
01E000
01E000
01E000
01E000
000000
000000
01E000
01E000
01E000
01E000
ENDCHAR
STARTCHAR 1EF5
ENCODING 7925
SWIDTH 456 0
DWIDTH 19 0
BBX 14 36 2 -14
BITMAP
E01C
E01C
E01C
E01C
E01C
E01C
E01C
E01C
E01C
E01C
E01C
E01C
E01C
E01C
E01C
701C
701C
701C
703C
7FFC
3FDC
1F9C
001C
001C
001C
001C
0038
7FF8
7FF0
7FC0
0000
0000
0700
0700
0700
0700
ENDCHAR
STARTCHAR 1EF6
ENCODING 7926
SWIDTH 432 0
DWIDTH 18 0
BBX 18 38 0 0
BITMAP
07F000
07F800
001800
001800
003800
00F000
018000
000000
000000
F001C0
700380
700380
380780
380700
3C0700
1C0E00
1C0E00
0E1C00
0E1C00
0F1C00
073800
073800
03F000
03F000
03F000
01E000
01E000
01E000
01E000
01E000
01E000
01E000
01E000
01E000
01E000
01E000
01E000
01E000
ENDCHAR
STARTCHAR 1EF7
ENCODING 7927
SWIDTH 456 0
DWIDTH 19 0
BBX 14 43 2 -8
BITMAP
0300
1FE0
1FE0
0070
0070
0060
01E0
0380
0700
0000
0000
0000
0000
E01C
E01C
E01C
E01C
E01C
E01C
E01C
E01C
E01C
E01C
E01C
E01C
E01C
E01C
E01C
701C
701C
701C
703C
7FFC
3FDC
1F9C
001C
001C
001C
001C
0038
7FF8
7FF0
7FC0
ENDCHAR
STARTCHAR 1EF8
ENCODING 7928
SWIDTH 432 0
DWIDTH 18 0
BBX 18 37 0 0
BITMAP
040600
0FC600
1FFE00
187C00
180800
000000
000000
000000
F001C0
700380
700380
380780
380700
3C0700
1C0E00
1C0E00
0E1C00
0E1C00
0F1C00
073800
073800
03F000
03F000
03F000
01E000
01E000
01E000
01E000
01E000
01E000
01E000
01E000
01E000
01E000
01E000
01E000
01E000
ENDCHAR
STARTCHAR 1EF9
ENCODING 7929
SWIDTH 456 0
DWIDTH 19 0
BBX 14 40 2 -8
BITMAP
0018
3E18
3FF8
3FF8
20F0
0000
0000
0000
0000
0000
E01C
E01C
E01C
E01C
E01C
E01C
E01C
E01C
E01C
E01C
E01C
E01C
E01C
E01C
E01C
701C
701C
701C
703C
7FFC
3FDC
1F9C
001C
001C
001C
001C
0038
7FF8
7FF0
7FC0
ENDCHAR
STARTCHAR 2002
ENCODING 8194
SWIDTH 312 0
DWIDTH 13 0
BBX 0 0 0 0
BITMAP
ENDCHAR
STARTCHAR 2013
ENCODING 8211
SWIDTH 432 0
DWIDTH 18 0
BBX 14 3 2 12
BITMAP
FFFC
FFFC
FFFC
ENDCHAR
STARTCHAR 2014
ENCODING 8212
SWIDTH 816 0
DWIDTH 34 0
BBX 30 3 2 12
BITMAP
FFFFFFFC
FFFFFFFC
FFFFFFFC
ENDCHAR
STARTCHAR 2017
ENCODING 8215
SWIDTH 312 0
DWIDTH 13 0
BBX 13 7 0 -11
BITMAP
FFF8
FFF8
FFF8
0000
FFF8
FFF8
FFF8
ENDCHAR
STARTCHAR 2018
ENCODING 8216
SWIDTH 168 0
DWIDTH 7 0
BBX 4 8 2 21
BITMAP
70
E0
C0
C0
E0
E0
E0
E0
ENDCHAR
STARTCHAR 2019
ENCODING 8217
SWIDTH 168 0
DWIDTH 7 0
BBX 4 8 1 21
BITMAP
70
70
70
70
30
30
30
E0
ENDCHAR
STARTCHAR 201A
ENCODING 8218
SWIDTH 192 0
DWIDTH 8 0
BBX 4 9 2 -5
BITMAP
F0
F0
F0
F0
30
30
20
60
C0
ENDCHAR
STARTCHAR 201C
ENCODING 8220
SWIDTH 312 0
DWIDTH 13 0
BBX 10 8 2 21
BITMAP
71C0
E300
C300
C300
E380
E380
E380
E380
ENDCHAR
STARTCHAR 201D
ENCODING 8221
SWIDTH 312 0
DWIDTH 13 0
BBX 10 8 1 21
BITMAP
71C0
71C0
71C0
71C0
30C0
30C0
30C0
E380
ENDCHAR
STARTCHAR 201E
ENCODING 8222
SWIDTH 336 0
DWIDTH 14 0
BBX 9 9 2 -5
BITMAP
F380
F380
F380
F380
3180
3180
2180
6180
C700
ENDCHAR
STARTCHAR 2020
ENCODING 8224
SWIDTH 336 0
DWIDTH 14 0
BBX 11 29 2 0
BITMAP
0C00
0C00
0C00
0C00
0C00
0C00
0C00
1F00
FFE0
FFE0
0C00
0C00
0C00
0C00
0C00
0C00
0C00
0C00
0C00
0C00
0C00
0C00
0C00
0C00
0C00
0C00
0C00
0C00
0C00
ENDCHAR
STARTCHAR 2021
ENCODING 8225
SWIDTH 336 0
DWIDTH 14 0
BBX 11 29 2 0
BITMAP
0C00
0C00
0C00
0C00
0C00
0C00
0C00
3F80
FFE0
FFE0
0C00
0C00
0C00
0C00
0C00
0C00
0C00
0C00
0C00
FFE0
FFE0
7FE0
0C00
0C00
0C00
0C00
0C00
0C00
0C00
ENDCHAR
STARTCHAR 2022
ENCODING 8226
SWIDTH 288 0
DWIDTH 12 0
BBX 8 8 2 11
BITMAP
7E
7F
FF
FF
FF
FF
7F
7E
ENDCHAR
STARTCHAR 2026
ENCODING 8230
SWIDTH 576 0
DWIDTH 24 0
BBX 20 4 2 0
BITMAP
F0F0F0
F0F0F0
F0F0F0
F0F0F0
ENDCHAR
STARTCHAR 2030
ENCODING 8240
SWIDTH 768 0
DWIDTH 32 0
BBX 28 29 2 0
BITMAP
3C018000
7E038000
C3030000
C3070000
C3060000
C3060000
C30C0000
C30C0000
C3180000
C3180000
C3300000
E3300000
7E600000
3C600000
00C00000
00CF87C0
019FCFE0
0198CC60
0318CC30
0330CC30
0630CC30
0630CC30
0C30CC30
0C30CC30
1830CC30
1810CC30
3018CC60
301FCFE0
600F87C0
ENDCHAR
STARTCHAR 2032
ENCODING 8242
SWIDTH 168 0
DWIDTH 7 0
BBX 3 13 2 16
BITMAP
E0
E0
E0
E0
E0
E0
E0
E0
C0
C0
C0
C0
C0
ENDCHAR
STARTCHAR 2033
ENCODING 8243
SWIDTH 288 0
DWIDTH 12 0
BBX 8 13 2 16
BITMAP
E7
E7
E7
E7
E7
E7
E7
E7
C7
C6
C6
C6
C6
ENDCHAR
STARTCHAR 2039
ENCODING 8249
SWIDTH 240 0
DWIDTH 10 0
BBX 6 17 1 5
BITMAP
0C
0C
18
18
38
30
70
60
E0
60
70
30
38
18
18
0C
0C
ENDCHAR
STARTCHAR 203A
ENCODING 8250
SWIDTH 240 0
DWIDTH 10 0
BBX 6 17 2 5
BITMAP
E0
60
70
30
30
38
18
1C
0C
1C
18
38
30
30
70
60
E0
ENDCHAR
STARTCHAR 203C
ENCODING 8252
SWIDTH 384 0
DWIDTH 16 0
BBX 10 29 3 0
BITMAP
E1C0
E1C0
E1C0
E1C0
E1C0
E1C0
E1C0
E1C0
E1C0
E1C0
E1C0
E1C0
E1C0
E1C0
E1C0
E1C0
E1C0
E0C0
E0C0
E0C0
E0C0
0000
0000
0000
0000
E1C0
E1C0
E1C0
E1C0
ENDCHAR
STARTCHAR 2044
ENCODING 8260
SWIDTH 120 0
DWIDTH 5 0
BBX 16 29 -6 0
BITMAP
0003
0003
0006
0006
000C
000C
0018
0018
0030
0030
0060
0060
00E0
00C0
01C0
0180
0380
0300
0700
0600
0E00
0C00
0C00
1800
1800
3000
3000
6000
E000
ENDCHAR
STARTCHAR 20AC
ENCODING 8364
SWIDTH 456 0
DWIDTH 19 0
BBX 16 29 1 0
BITMAP
01FE
07FF
0FFF
0F00
1E00
1C00
1C00
1C00
1C00
FFFC
FFFC
FFFC
1C00
1C00
1C00
1C00
FFFC
FFFC
FFFC
1C00
1C00
1C00
1C00
1C00
0E00
0F00
0FFF
07FF
01FF
ENDCHAR
STARTCHAR 20B2
ENCODING 8370
SWIDTH 480 0
DWIDTH 20 0
BBX 16 29 2 0
BITMAP
01C0
01C0
03F0
1FFE
3FFE
7802
7000
7000
F000
E000
E000
E000
E000
E0FF
E0FF
E0FF
E007
E007
E007
F007
700F
700E
781E
3FFE
1FFC
03E0
01C0
01C0
01C0
ENDCHAR
STARTCHAR 2113
ENCODING 8467
SWIDTH 360 0
DWIDTH 15 0
BBX 12 29 1 0
BITMAP
0780
0FE0
1FE0
1C70
1C70
3870
3870
3870
3870
38E0
38E0
38E0
39C0
39C0
3BC0
3F80
3F00
3E00
3C00
F800
F800
F800
3800
3800
3800
1C10
1EF0
1FF0
07E0
ENDCHAR
STARTCHAR 2116
ENCODING 8470
SWIDTH 792 0
DWIDTH 33 0
BBX 28 29 3 0
BITMAP
E0070FC0
F0071FE0
F0071C70
F8071830
F8071830
FC071830
FC071830
FC071830
EE071830
EE071870
E7071EF0
E7070FE0
E3870000
E3870000
E3C70000
E1C70000
E1C70000
E0E71FF0
E0E71FF0
E0771FF0
E0770000
E03F0000
E03F0000
E03F0000
E01F0000
E01F0000
E00F0000
E00F0000
E0070000
ENDCHAR
STARTCHAR 2122
ENCODING 8482
SWIDTH 552 0
DWIDTH 23 0
BBX 19 13 2 16
BITMAP
FE60E0
FE60E0
3060E0
3071E0
305160
305160
305960
305B60
304A60
304A60
304E60
304E60
304460
ENDCHAR
STARTCHAR 2126
ENCODING 8486
SWIDTH 528 0
DWIDTH 22 0
BBX 18 29 2 0
BITMAP
07F800
1FFE00
3FFF00
780780
700780
700380
700380
700380
F00380
F00380
F00380
F00380
F00380
F003C0
F00380
F00380
F00380
F00380
700380
700380
700380
700380
700380
700300
380700
180E00
CF3C80
FF3F80
FF3F80
ENDCHAR
STARTCHAR 212E
ENCODING 8494
SWIDTH 528 0
DWIDTH 22 0
BBX 17 29 2 0
BITMAP
0FF800
3E3E00
380700
700700
700380
700380
F00380
E00380
E00380
E00380
E00380
E00380
E00380
E00380
FFFF80
FFFF80
E00000
E00000
E00000
E00000
E00000
E00180
F00180
700180
700180
700100
700300
3C0600
0FFC00
ENDCHAR
STARTCHAR 2153
ENCODING 8531
SWIDTH 600 0
DWIDTH 25 0
BBX 21 29 2 0
BITMAP
300380
F00300
F00600
B00600
300C00
300C00
301800
301800
303800
303000
307000
306000
30E000
30C7E0
31C7F0
318830
038038
030038
030030
060030
0603E0
0C03F0
0C0030
180038
180038
300038
300FF0
600FF0
600FE0
ENDCHAR
STARTCHAR 2154
ENCODING 8532
SWIDTH 648 0
DWIDTH 27 0
BBX 23 29 2 0
BITMAP
FE0060
FF00C0
FF00C0
030180
030180
030380
070300
0E0700
380600
600E00
C00C00
C01C00
C01800
FF39F8
FF31FC
FF300C
00600E
00600E
00C00E
00C00C
0180F8
0180FC
03000C
03000E
060006
06000E
0E01FE
0C01FC
1C01F8
ENDCHAR
STARTCHAR 215B
ENCODING 8539
SWIDTH 624 0
DWIDTH 26 0
BBX 21 29 2 0
BITMAP
300380
F00300
F00600
B00600
300C00
300C00
301800
301800
303800
303000
307000
306000
30E000
30C7E0
31CFF8
318C18
038C18
030C18
030C18
060C18
0607F0
0C07F0
0C0C18
180C18
180C18
300C18
300C18
600FF8
6007F0
ENDCHAR
STARTCHAR 215C
ENCODING 8540
SWIDTH 672 0
DWIDTH 28 0
BBX 26 29 1 0
BITMAP
7C003000
FF007000
07006000
0300E000
0300C000
0301C000
03018000
3E038000
3E030000
07070000
03060000
03060000
030C0000
030C3F00
FF187F80
FE18E180
0030C1C0
0030C1C0
0060C180
00606180
00C07F00
00C07F80
0180E180
0180C1C0
0380C0C0
0300C1C0
0700E1C0
06007F80
0E007F00
ENDCHAR
STARTCHAR 215D
ENCODING 8541
SWIDTH 672 0
DWIDTH 28 0
BBX 26 29 1 0
BITMAP
7F003800
7F003000
60006000
60006000
6000C000
6000C000
6001C000
7F018000
7F838000
01830000
01870000
01860000
018E0000
018C3F00
FF8C7F80
FF1861C0
001860C0
003060C0
003060C0
006061C0
00603F80
00C03F80
00C061C0
0180E0C0
0180E0C0
0300E0C0
030060C0
07007FC0
06003F80
ENDCHAR
STARTCHAR 215E
ENCODING 8542
SWIDTH 624 0
DWIDTH 26 0
BBX 24 29 1 0
BITMAP
FF00C0
FF01C0
030180
030380
070300
060700
060600
0E0E00
0C0C00
0C0C00
181800
181800
383000
3030FC
3061FE
706386
00C307
00C307
018307
018186
0301FC
0301FE
070386
060307
0E0303
0C0303
1C0387
1801FE
3801FC
ENDCHAR
STARTCHAR 2190
ENCODING 8592
SWIDTH 888 0
DWIDTH 37 0
BBX 33 11 2 7
BITMAP
0020000000
00E0000000
03C0000000
0FC0000000
3FFFFFFF80
FFFFFFFF80
1FFFFFFF80
07C0000000
01C0000000
0060000000
0010000000
ENDCHAR
STARTCHAR 2191
ENCODING 8593
SWIDTH 384 0
DWIDTH 16 0
BBX 10 32 3 -3
BITMAP
0400
0400
0C00
0E00
1E00
1F00
3F00
3F80
7F80
7FC0
CCC0
0C00
0C00
0C00
0C00
0C00
0C00
0C00
0C00
0C00
0C00
0C00
0C00
0C00
0C00
0C00
0C00
0C00
0C00
0C00
0C00
0C00
ENDCHAR
STARTCHAR 2192
ENCODING 8594
SWIDTH 888 0
DWIDTH 37 0
BBX 33 11 2 7
BITMAP
0000040000
0000030000
000003E000
000001F800
FFFFFFFE00
FFFFFFFF80
FFFFFFFC00
000001F000
000003C000
0000030000
0000040000
ENDCHAR
STARTCHAR 2193
ENCODING 8595
SWIDTH 384 0
DWIDTH 16 0
BBX 10 33 3 -4
BITMAP
0C00
0C00
0C00
0C00
0C00
0C00
0C00
0C00
0C00
0C00
0C00
0C00
0C00
0C00
0C00
0C00
0C00
0C00
0C00
0C00
0C00
8C40
6CC0
7F80
7F80
3F80
3F00
1F00
1E00
0E00
0C00
0400
0400
ENDCHAR
STARTCHAR 2194
ENCODING 8596
SWIDTH 888 0
DWIDTH 37 0
BBX 33 11 2 7
BITMAP
0020040000
00E0030000
03C003E000
0FC001F800
3FFFFFFE00
FFFFFFFF80
1FFFFFFC00
07C001F000
01E003C000
0060030000
0010040000
ENDCHAR
STARTCHAR 2195
ENCODING 8597
SWIDTH 384 0
DWIDTH 16 0
BBX 10 33 3 -4
BITMAP
0400
0400
0C00
0E00
1E00
1F00
3F00
3F80
7F80
7FC0
CC40
0C00
0C00
0C00
0C00
0C00
0C00
0C00
0C00
0C00
0C00
8C40
6CC0
7F80
7F80
3F80
3F00
1F00
1E00
0E00
0C00
0400
0400
ENDCHAR
STARTCHAR 21A8
ENCODING 8616
SWIDTH 384 0
DWIDTH 16 0
BBX 12 37 2 -8
BITMAP
0200
0200
0600
0700
0F00
0F80
1F80
1FC0
3FC0
3FE0
6620
0600
0600
0600
0600
0600
0600
0600
0600
0600
0600
4610
3660
3FC0
3FC0
1FC0
1F80
0F80
0F00
0700
0600
0200
0200
0000
FFF0
FFF0
FFF0
ENDCHAR
STARTCHAR 2202
ENCODING 8706
SWIDTH 432 0
DWIDTH 18 0
BBX 14 31 2 0
BITMAP
0780
03C0
01C0
00E0
00E0
0070
0070
0038
0038
0638
3FD8
7FFC
703C
E01C
E01C
E01C
E01C
E01C
E01C
E01C
E01C
E01C
E01C
E01C
E01C
E01C
E01C
F01C
787C
7FF8
3FF0
ENDCHAR
STARTCHAR 2206
ENCODING 8710
SWIDTH 504 0
DWIDTH 21 0
BBX 19 29 1 0
BITMAP
01E000
01F000
01F000
03F000
03F000
03B800
03B800
073800
073800
071C00
071C00
0E1C00
0E1E00
0E0E00
0E0E00
1C0E00
1C0F00
1C0700
3C0700
380700
380380
380380
700380
700380
7001C0
7001C0
FFFFC0
FFFFC0
FFFFE0
ENDCHAR
STARTCHAR 220F
ENCODING 8719
SWIDTH 528 0
DWIDTH 22 0
BBX 16 37 3 -8
BITMAP
FFFF
FFFF
FFFF
E007
E007
E007
E007
E007
E007
E007
E007
E007
E007
E007
E007
E007
E007
E007
E007
E007
E007
E007
E007
E007
E007
E007
E007
E007
E007
E007
E007
E007
E007
E007
E007
E007
E007
ENDCHAR
STARTCHAR 2211
ENCODING 8721
SWIDTH 528 0
DWIDTH 22 0
BBX 16 37 3 -8
BITMAP
FFFF
FFFF
FFFF
F000
7000
7800
3C00
1C00
1E00
0E00
0F00
0700
0780
03C0
01C0
01E0
00E0
00F0
0078
0070
00F0
01E0
01C0
03C0
0380
0780
0F00
0E00
1E00
1C00
3C00
7800
7000
F000
FFFF
FFFF
FFFF
ENDCHAR
STARTCHAR 2212
ENCODING 8722
SWIDTH 480 0
DWIDTH 20 0
BBX 15 3 3 9
BITMAP
FFFE
FFFE
FFFE
ENDCHAR
STARTCHAR 221A
ENCODING 8730
SWIDTH 480 0
DWIDTH 20 0
BBX 18 36 1 -4
BITMAP
0001C0
0001C0
0001C0
0001C0
000180
000380
000380
000380
000380
000300
000700
000700
000700
000700
000600
000600
000E00
000E00
080E00
380E00
F80C00
F81C00
1C1C00
1C1C00
1C1C00
0E1800
0E3800
0E3800
073800
073800
033000
03B000
03F000
01F000
01F000
01E000
ENDCHAR
STARTCHAR 221E
ENCODING 8734
SWIDTH 792 0
DWIDTH 33 0
BBX 29 17 2 2
BITMAP
1FE03FC0
3FF07FE0
7878F0F0
701DC070
600D8030
E00F8038
E0070038
E0070038
E0070038
E0070038
E00F8038
E00D8038
601DC030
7038C070
7FF8FFE0
3FF07FE0
0FC01F80
ENDCHAR
STARTCHAR 222B
ENCODING 8747
SWIDTH 336 0
DWIDTH 14 0
BBX 10 37 2 -8
BITMAP
07C0
1FC0
1E00
1C00
1C00
1C00
1C00
1C00
1C00
1C00
1C00
1C00
1C00
1C00
1C00
1C00
1C00
1C00
0E00
0E00
0E00
0E00
0E00
0E00
0E00
0E00
0E00
0E00
0E00
0E00
0E00
0E00
0E00
0E00
7E00
FC00
F800
ENDCHAR
STARTCHAR 2248
ENCODING 8776
SWIDTH 432 0
DWIDTH 18 0
BBX 14 13 2 4
BITMAP
000C
7E0C
7FDC
E3F8
C078
0000
0000
0000
7C0C
7F9C
67FC
C0F8
C000
ENDCHAR
STARTCHAR 2260
ENCODING 8800
SWIDTH 480 0
DWIDTH 20 0
BBX 15 19 3 1
BITMAP
0038
0030
0070
0060
FFFE
FFFE
FFFE
0180
0380
0300
0700
0600
FFFE
FFFE
1C00
1800
3800
3000
7000
ENDCHAR
STARTCHAR 2264
ENCODING 8804
SWIDTH 480 0
DWIDTH 20 0
BBX 15 22 3 1
BITMAP
0006
003E
00FC
07F0
1F80
7E00
F800
E000
F800
7E00
1FC0
03F0
00FC
001E
0006
0000
0000
0000
0000
FFFE
FFFE
FFFE
ENDCHAR
STARTCHAR 2265
ENCODING 8805
SWIDTH 480 0
DWIDTH 20 0
BBX 15 22 3 1
BITMAP
C000
F000
FC00
3F80
07E0
01F8
003E
000E
007E
01F8
0FE0
3F00
FC00
F000
8000
0000
0000
0000
0000
FFFE
FFFE
FFFE
ENDCHAR
STARTCHAR 2302
ENCODING 8962
SWIDTH 528 0
DWIDTH 22 0
BBX 19 29 1 0
BITMAP
00E000
00F000
01F800
03B800
039C00
070E00
060E00
0E0700
1C0300
1C0380
3801C0
7001C0
7000E0
E00060
E00060
E00060
E00060
E00060
E00060
E00060
E00060
E00060
E00060
E00060
E00060
E00060
E00060
FFFFE0
FFFFE0
ENDCHAR
STARTCHAR 25CA
ENCODING 9674
SWIDTH 432 0
DWIDTH 18 0
BBX 14 29 2 0
BITMAP
0300
0780
0780
0FC0
0CC0
0CC0
1CE0
1860
3870
3030
3030
7038
6018
E01C
E00C
E01C
6018
7038
7038
3030
3870
1860
1C60
1CE0
0CC0
0FC0
0780
0780
0780
ENDCHAR
STARTCHAR A78B
ENCODING 42891
SWIDTH 120 0
DWIDTH 5 0
BBX 3 17 1 12
BITMAP
E0
E0
E0
E0
E0
E0
E0
E0
E0
E0
E0
E0
C0
C0
C0
C0
C0
ENDCHAR
STARTCHAR A78C
ENCODING 42892
SWIDTH 120 0
DWIDTH 5 0
BBX 3 19 1 13
BITMAP
E0
E0
E0
E0
E0
E0
E0
E0
E0
E0
E0
E0
E0
E0
C0
C0
C0
C0
C0
ENDCHAR
STARTCHAR F8FF
ENCODING 63743
SWIDTH 840 0
DWIDTH 35 0
BBX 29 29 3 0
BITMAP
FFFFFFF8
FFFFFFF8
FFFFFFF8
FFFFFFF8
FFFFFFF8
FFFFFFF8
FFC01FF8
FF800FF8
FF0007F8
FE0203F8
FE0783F8
FC0F81F8
FC0F81F8
FC0F81F8
FC0F81F8
FC0F81F8
FC0F81F8
FE0F81F8
FE0783F8
FE0003F8
FF0007F8
FF800FF8
FFC01FF8
FFFFFFF8
FFFFFFF8
FFFFFFF8
FFFFFFF8
FFFFFFF8
FFFFFFF8
ENDCHAR
STARTCHAR FB01
ENCODING 64257
SWIDTH 480 0
DWIDTH 20 0
BBX 16 32 1 0
BITMAP
07C7
0FC7
1FC7
1C07
1C00
1C00
1C00
1C00
1C00
1C00
FFC7
FFC7
FFC7
1C07
1C07
1C07
1C07
1C07
1C07
1C07
1C07
1C07
1C07
1C07
1C07
1C07
1C07
1C07
1C07
1C07
1C07
1C07
ENDCHAR
STARTCHAR FB02
ENCODING 64258
SWIDTH 480 0
DWIDTH 20 0
BBX 16 32 1 0
BITMAP
07C7
0FC7
1FC7
1C07
1C07
1C07
1C07
1C07
1C07
1C07
FFC7
FFC7
FFC7
1C07
1C07
1C07
1C07
1C07
1C07
1C07
1C07
1C07
1C07
1C07
1C07
1C07
1C07
1C07
1C07
1C07
1C07
1C07
ENDCHAR
ENDFONT
